<?xml version="1.0" standalone="no"?>
<!DOCTYPE svg PUBLIC "-//W3C//DTD SVG 1.1//EN" "http://www.w3.org/Graphics/SVG/1.1/DTD/svg11.dtd" >
<svg xmlns="http://www.w3.org/2000/svg" xmlns:xlink="http://www.w3.org/1999/xlink" version="1.1">
<metadata></metadata>
<defs>
<font id="ftf_indonesiana_serif_free_Rg" horiz-adv-x="1128" >
<font-face units-per-em="2048" ascent="1638" descent="-410" />
<missing-glyph horiz-adv-x="508" />
<glyph horiz-adv-x="0" />
<glyph unicode="&#xd;" horiz-adv-x="508" />
<glyph unicode=" "  horiz-adv-x="508" />
<glyph unicode="&#x09;" horiz-adv-x="508" />
<glyph unicode="&#xa0;" horiz-adv-x="508" />
<glyph unicode="!" d="M51 432v2l75 288h5l251 -432h4l432 247h5q-69 -286 -73 -290l-439 -249h-4zM122 1129q443 199 454 199h2l49 -113v-3l-316 -139l60 -144l282 120h2q45 -96 45 -107l-277 -127l120 -271q-130 -65 -137 -65zM537 679q315 146 322 146l-234 540l138 64l292 -662l-456 -212z " />
<glyph unicode="&#x22;" d="M51 432v2l75 288h5l251 -432h4l432 247h5q-69 -286 -73 -290l-439 -249h-4zM122 1129q443 199 454 199h2l49 -113v-3l-316 -139l60 -144l282 120h2q45 -96 45 -107l-277 -127l120 -271q-130 -65 -137 -65zM537 679q315 146 322 146l-234 540l138 64l292 -662l-456 -212z " />
<glyph unicode="#" d="M51 432v2l75 288h5l251 -432h4l432 247h5q-69 -286 -73 -290l-439 -249h-4zM122 1129q443 199 454 199h2l49 -113v-3l-316 -139l60 -144l282 120h2q45 -96 45 -107l-277 -127l120 -271q-130 -65 -137 -65zM537 679q315 146 322 146l-234 540l138 64l292 -662l-456 -212z " />
<glyph unicode="$" d="M51 432v2l75 288h5l251 -432h4l432 247h5q-69 -286 -73 -290l-439 -249h-4zM122 1129q443 199 454 199h2l49 -113v-3l-316 -139l60 -144l282 120h2q45 -96 45 -107l-277 -127l120 -271q-130 -65 -137 -65zM537 679q315 146 322 146l-234 540l138 64l292 -662l-456 -212z " />
<glyph unicode="%" d="M51 432v2l75 288h5l251 -432h4l432 247h5q-69 -286 -73 -290l-439 -249h-4zM122 1129q443 199 454 199h2l49 -113v-3l-316 -139l60 -144l282 120h2q45 -96 45 -107l-277 -127l120 -271q-130 -65 -137 -65zM537 679q315 146 322 146l-234 540l138 64l292 -662l-456 -212z " />
<glyph unicode="&#x26;" d="M51 432v2l75 288h5l251 -432h4l432 247h5q-69 -286 -73 -290l-439 -249h-4zM122 1129q443 199 454 199h2l49 -113v-3l-316 -139l60 -144l282 120h2q45 -96 45 -107l-277 -127l120 -271q-130 -65 -137 -65zM537 679q315 146 322 146l-234 540l138 64l292 -662l-456 -212z " />
<glyph unicode="'" horiz-adv-x="346" />
<glyph unicode="(" horiz-adv-x="1707" />
<glyph unicode=")" horiz-adv-x="1707" />
<glyph unicode="*" horiz-adv-x="454" d="M39 895l156 54l-156 54l43 75l124 -113l-32 162h86l-32 -162l124 113l43 -75l-156 -54l156 -54l-43 -76l-124 114l32 -162h-86l32 162l-124 -114z" />
<glyph unicode="+" horiz-adv-x="915" d="M30 571v72h381v381h72v-381h381v-72h-381v-381h-72v381h-381z" />
<glyph unicode="," horiz-adv-x="226" d="M34 57q0 32 21 53t52 21q80 0 80 -86q0 -149 -135 -226l-12 18q98 69 98 165l-37 -12q-27 0 -47 20t-20 47z" />
<glyph unicode="-" horiz-adv-x="686" d="M81 471v143h522v-143h-522z" />
<glyph unicode="." horiz-adv-x="233" d="M32 45q0 30 21 51q22 22 51 22q31 0 53 -22q20 -21 20 -51q0 -31 -22 -52q-21 -22 -51 -22q-29 0 -51 22q-21 21 -21 52z" />
<glyph unicode="/" horiz-adv-x="696" d="M20 -56l581 1265l60 -26l-581 -1265z" />
<glyph unicode="0" horiz-adv-x="1116" d="M24 591v10q0 251 173 438q156 154 341 154h20q215 0 381 -197q135 -178 135 -400q0 -271 -194 -465q-153 -133 -322 -133h-20q-191 0 -350 162q-164 187 -164 431zM273 602q0 -250 139 -400q67 -59 139 -59q131 0 221 182q56 125 56 280q0 188 -88 334q-86 124 -189 124 q-127 0 -216 -171q-62 -129 -62 -290z" />
<glyph unicode="1" horiz-adv-x="472" d="M15 941l281 254h146v-1195h-219v1014l-181 -109z" />
<glyph unicode="2" horiz-adv-x="891" d="M35 344q0 130 172 270q82 57 222 123q95 54 169 118q48 58 48 113q0 78 -102 113q-34 8 -70 8h-356l-3 4v104l3 4h390q157 0 258 -104q84 -103 84 -210q0 -136 -154 -273q-129 -99 -318 -187q-29 -5 -88 -60q-53 -62 -53 -121v-15q0 -101 136 -153q27 -8 47 -8h216l2 -3 v-65l-2 -4h-227q-234 0 -358 204q-16 20 -16 142z" />
<glyph unicode="3" horiz-adv-x="2703" d="M6 7v1007q2 10 11 10h262q0 -85 27 -85q36 21 80 27q75 -25 75 -75q-15 -108 -27 -108q6 -10 6 -16h5q18 16 27 16q17 -10 32 -10q0 5 27 27l10 -6h22l11 6q0 6 -33 42q14 11 22 11q118 -58 118 -91q0 -16 5 -16l-5 -11q10 -21 10 -37q-3 -54 -16 -54q-10 28 -10 43 q-99 -25 -145 -59v-5q0 -12 27 -16q7 27 37 27h27q11 -2 11 -11v-11q-2 -10 -97 -59q-75 24 -75 59l-48 54l-10 -6q26 -87 91 -112q27 -19 58 -27q6 0 6 5q40 -10 48 -10q42 3 102 48q10 -5 16 -5v-6q0 -25 -38 -53q27 0 54 -32v-6q-9 -21 -38 -21h-53q-11 -2 -11 -11v-11 q56 -55 70 -96q46 -12 139 -96h11v160q-27 101 -27 214q133 -150 166 -150q193 -36 193 -69q48 -20 139 -220q44 -138 53 -139h1302v985h-1810q9 -40 27 -85q-14 -123 -43 -123h-6l-16 10h-5l-5 -27q10 -80 10 -133l-5 -27h-5v53q0 46 -11 70l5 11q-5 10 -5 16q5 0 5 5h-5 q5 10 5 16l-5 11q0 15 48 32l5 32v27l-10 -5l-32 42q0 14 21 16l27 -16q-7 49 -22 49q-34 -24 -42 -49l5 -10v-22l-5 -27h-17q0 6 -5 17q0 5 5 5l-32 128h1933v-1017h-1472q0 16 -22 27v-6l11 -21h-139l21 21l-10 6h-11q-11 0 -11 -27h-96q0 21 -22 32q-48 0 -48 -32h-59v5 h11v6q0 10 -11 10h-5q-13 0 -16 -21h-75v11h-5v-11h-108v11q13 26 49 53q10 -1 10 -10v-6q0 -4 -32 -32v-5h11q43 25 43 32v5q0 8 -32 32q-10 0 -75 -80h-584zM22 125h5q69 125 279 268l37 53q0 16 54 113v10q0 52 -64 123q-28 140 -81 193q-16 98 -16 123h-214v-883z M301 832q21 -35 32 -97h26l22 -32q0 13 37 91q6 30 6 43h-6q-53 -11 -53 -16l-27 16q-10 -5 -16 -5q-10 5 -16 5q0 -5 -5 -5zM461 960v6q78 58 107 58h54v-10q-40 0 -59 -32v-16l21 -6q28 16 65 16q10 -5 16 -5v-5q-4 -13 -75 -33v-5h37v-11q-2 -13 -69 -32q-54 4 -54 27 l5 37h-26q-13 11 -22 11zM483 660q10 0 10 -5q96 28 140 59q0 11 -11 11h-27q-108 -45 -112 -54v-11zM520 730q78 21 91 21v-5q9 5 27 5v22l-54 16l-64 -48v-11zM895 7q0 13 21 16q32 -5 32 -16h-53zM1002 189q3 -16 37 -16v-16q-32 -3 -32 -16v-22l11 -16l27 22q8 0 32 -27 q12 0 16 27h5q24 -22 27 -22l11 6q10 -6 16 -6v16q0 8 -102 97q-48 -11 -48 -22v-5zM1013 34h10q8 0 16 16l-5 11q-21 -8 -21 -17v-10zM1050 275q0 -11 107 -113q0 -21 32 -26q19 0 27 53q-11 24 -16 59h-11q0 -16 -5 -16q-26 13 -48 70q-45 68 -59 69q-9 -55 -27 -75v-21z M1088 61q1 -11 10 -11h6v5q0 11 -11 11h-5v-5zM1109 387q30 0 70 -102h5v22q0 5 -5 5q5 11 5 16q-4 28 -59 70h-5q-11 -2 -11 -11zM1136 71q3 -32 16 -32h5q0 22 11 22l21 -22v11q0 8 -21 27q-8 -6 -32 -6zM1216 66q11 -13 11 -22h11q10 0 10 11q-2 11 -26 22zM1248 494 l6 11q-6 0 -6 5q16 0 16 16v6h6q5 0 5 -6l11 6h5v-22h38q12 0 16 -37h5l5 37h6q5 0 5 -5l32 11q0 -9 22 -22h5v6h-11q0 8 22 16v-11l10 5h11q0 -5 6 -16q-6 0 -6 -5h11q21 27 53 27q23 -8 33 -27v-21h-54v-6q11 0 11 -5l10 5h33q-5 -16 -38 -27q-43 7 -43 38h-5 q0 -22 -16 -22l5 -10l-11 -6h-16v6h11v5q-35 -5 -53 -16v11q0 4 5 32q-5 10 -5 16q5 0 5 5q-5 0 -5 6q5 0 5 5h-11q-20 -91 -43 -91v-5h-5l-11 5q0 -5 -5 -5l-5 10v16h16v16q-15 43 -27 43q-5 0 -5 11h-6v-43h16v-5l-5 -11q5 0 5 -5q-5 0 -16 -6q-23 6 -32 33l5 10l-5 11 l11 5q0 -5 5 -5v5q-5 0 -5 6l-11 -6h-11zM1297 569l32 -5v-5h-27zM1297 607h5q11 -2 11 -11h-6q-10 0 -10 11zM1297 676q0 11 21 11v5h-21l5 11q-5 0 -5 5h5q5 0 5 -5l11 5h16l-5 -10h16v-6h-11l5 -10h-10v-6h10q0 6 6 6q5 -11 5 -16v-6h-5v11h-6v-11h-16q0 11 -16 11l6 11 l-11 -6h-5zM1302 585v6l27 5v5h-16l5 11q-5 0 -5 5l26 -5l38 11l-6 -11q6 0 6 -5q-10 -6 -22 -6v-5h11q11 5 16 5h6v-5h-11v-5q6 0 16 -6v6q-5 0 -5 5l10 5h6l-6 -10h6q1 10 10 10h6l-6 -10v-6l6 -26h-6q-102 12 -107 26h-5zM1323 623v5q17 0 38 6q0 -6 -22 -17q-10 6 -16 6 zM1329 575h37v5h-37v-5zM1339 559v5h27v-5h-27zM1350 687q11 0 11 -16v-5h-6zM1361 634v5q10 17 10 27q0 9 -10 32l37 10q0 -12 -27 -16v-10l17 10h10q-6 -53 -21 -53v11h-6q0 -16 -10 -16zM1388 414v5q5 16 32 16v-16h-11l-11 6q0 -11 -10 -11zM1388 634v5q16 27 16 53v16 q32 0 32 -42l-16 -11q0 5 -6 5q0 -26 -16 -26q0 5 -5 5q0 -5 -5 -5zM1420 569v22h5v-22h-5zM1420 666h5v26h-5v-26zM1425 591q2 10 11 10h5v-16q-10 6 -16 6zM1446 559q0 8 22 21h5q0 -8 -21 -21h-6zM1446 569v6q2 10 11 10h6q0 -7 -17 -16zM1446 585v6q24 26 59 26v-10h-10 v-6h10v-5h-5l-21 5zM1446 617v6q6 29 6 43q-6 10 -6 16q28 -22 33 -22v6q-6 0 -6 5h6l10 -5v5q-10 0 -10 11h5q21 -8 21 -16h-10v-6h10v-5h-10v-5h10v-11q-44 -8 -59 -22zM1446 698v5h6q0 -11 21 -32h-5q-22 11 -22 27zM1446 725l17 21l-11 -5h-6q0 12 27 16l-5 -11 q5 0 5 -5q-10 0 -10 -16h-17zM1446 751v11h17v-5q-6 0 -17 -6zM1468 617v6q28 5 32 5h5v-5q-28 -6 -32 -6h-5zM1473 580v5h11v6h-11v5h11q10 -5 16 -5v-6q-11 0 -11 -10q-10 5 -16 5zM1473 703v5h6q7 0 26 -26h-10q-9 0 -22 21zM1473 746v5q3 0 22 6h5v-6q-11 0 -11 -10 q-10 5 -16 5zM1479 559q0 12 26 16v-6q0 -10 -10 -10h-16zM1479 725q0 12 26 16v-6q0 -10 -10 -10h-16zM1489 708h6q10 -1 10 -10h-5q-11 0 -11 10zM1500 484h5v5l11 -5h5q0 10 -10 10q-11 -1 -11 -10zM1516 617h5l11 -5q0 6 5 16h-5v-5q-10 5 -16 5v11l5 11q-5 0 -5 5 q11 0 11 16h5q0 -12 16 -32v-5l-16 10v-5q24 -22 27 -22v6q-11 0 -11 11h6l16 -11v5q-38 28 -38 54l16 10q0 -5 6 -5q0 21 26 21h6l-6 -10v-22l6 -10q-11 0 -11 -11q-12 0 -16 27h-5v-6q21 -42 58 -42q22 0 33 21h-6q-5 -16 -32 -16q-10 5 -16 5v11l11 -5h21q8 0 16 16v5 l-10 -5h-6l-16 10q0 -5 -5 -5q0 5 -6 5q0 -5 -5 -5l-5 11v10q1 11 10 11v-11l11 6q0 -6 5 -6v6q-5 0 -5 5l11 5h21l-5 -10l11 5q42 -23 42 -64v-11q0 -11 -10 -11v38h-6q0 -24 -26 -38h-6l6 11q-18 -11 -33 -11h-10l-27 6q7 -27 27 -27v-5h-16v-6h16q24 11 27 22 q10 -6 16 -6q10 6 16 6l-6 -11h6q1 11 10 11h6q-16 -27 -38 -27v-5h6q17 10 26 10q-5 -10 -5 -16l-11 6v-6q6 0 6 -5q-8 0 -49 -11q-10 0 -37 11q-10 -5 -16 -5q0 10 -16 10l5 11q-19 0 -32 37zM1548 334v16q0 22 91 37h11q29 0 102 -75l10 -5v5q-8 0 -21 22v10q0 38 37 38 q8 0 17 -16v-11h-17v16h-16q-10 -2 -10 -11v-26q6 -19 48 -32q32 7 32 16q-10 -6 -16 -6q-21 8 -21 16v11q1 11 10 11q2 -11 11 -11h11q32 0 32 37q-7 0 -22 33v5q22 0 43 27q9 -27 38 -27v-5q-15 -33 -22 -33q0 -37 32 -37h11l16 11l6 -11v-11q0 -12 -27 -16l-22 11v-5 q38 -16 43 -16q29 0 54 42q-7 27 -16 27h-16v-16h-16v11q0 7 16 16q37 0 37 -38v-10q-21 -24 -21 -27q8 0 75 64q19 16 37 16h11q91 -15 91 -37v-16h-16q0 37 -32 37q-7 -32 -16 -32h-6q0 21 -5 21q-10 -5 -16 -5q0 11 16 11v10q-6 0 -16 6q-16 0 -97 -80h6q80 53 91 53 q-91 -75 -145 -75q-43 0 -85 54v-6q9 -25 42 -53q-42 -15 -42 -43l-11 -5q-15 42 -43 42l-5 11q18 3 42 48v6h-5q0 -36 -86 -54q-37 0 -155 80q-5 0 -5 -5v-16h-6q-10 0 -10 11v5l5 11l-21 5q-22 -3 -22 -37h-16zM1554 500v10q8 0 26 32h27v-21h-11v-11h11v-16h-11v-26 l-5 -11q5 0 5 -6q-5 0 -5 -5q5 0 5 -5h-32v43zM1554 805v21h16q0 -37 16 -37h10q11 0 11 32h5q11 0 11 -21q109 72 155 80q49 0 91 -48v5q-14 23 -37 48l32 22q11 17 11 26h11q0 -37 42 -42v-6q-22 -25 -37 -48v-5q37 48 91 48q47 -8 155 -80v21h16q0 -32 22 -32h5 q11 12 11 37h16v-21q-9 -22 -38 -22h-10l-11 6q0 -8 -16 -16h-22q-34 0 -91 64l-21 16v-5q9 0 21 -32q-6 -27 -16 -27l6 27q0 32 -54 42q-37 -12 -37 -21q17 11 32 11l11 -16v-22l-17 11h-26q-8 0 -16 -16q5 -11 5 -16h-5l21 -38q-32 -5 -32 -26h-22q0 21 -32 21v5 q18 32 22 32l-6 11q6 11 6 16l-16 11h-27l-16 -11q0 11 -5 11q9 27 26 27l11 -6h5v6q-9 0 -32 10q-53 -9 -53 -48l5 -21q-8 0 -16 21q0 17 21 43h-5q-75 -80 -107 -80h-21q-8 0 -17 16l-10 -6h-11q-29 0 -37 22zM1607 457q0 27 54 27q0 8 -22 16v-6q6 0 6 -5h-33v5 q0 12 38 22q8 -6 32 -6v-32h16q0 24 27 38h11q19 0 42 -22q18 15 43 22v-6l11 6q32 -22 32 -48h-53l5 -11l27 5h16v-11q-8 0 -32 -16q-30 6 -49 22h-5q0 -11 -21 -22l-49 11l6 11q-11 0 -11 16h-11l6 -27v-5h-6q-5 0 -5 5l-11 -5h-5q-5 0 -5 5l-11 -5h-27q-4 0 -16 16z M1623 366l113 -64v5q-9 0 -81 69q-5 0 -16 6q-10 -6 -16 -6v-10zM1623 783l22 -5q14 0 101 86q-115 -70 -123 -70v-11zM1677 591v5q1 11 10 11v-6q0 -10 -10 -10zM1703 559v10q0 6 6 6l-6 10v16q11 -5 17 -5v-5h-11v-6q6 0 16 -5v5q-5 0 -5 6h5q11 -2 11 -11q-6 0 -6 -5 l11 -6v6q-5 0 -5 5h5q8 0 21 -21h-5q-5 0 -5 5l-11 -5l-16 10v-5q5 0 5 -5h-27zM1703 612l6 11q-6 0 -6 5q6 0 6 6q-6 0 -6 5q24 13 33 37q-6 11 -6 16h-5q0 -21 -22 -32v16q0 12 6 22q-6 10 -6 16v21h6v-27h5q0 7 6 54l10 -5q0 5 6 5v-11h5v11h11v-27q0 -5 5 -5 q-5 -10 -5 -16v-6h5v11h5v-16q0 -23 -10 -43h10q0 40 16 43v-11h6v11q-6 0 -6 5h6l11 -5v11h5l11 -6v6q16 0 16 -16h5v10q8 0 16 -16q-5 0 -5 -5h5q0 5 5 5l11 -16q0 -5 -5 -5l5 -11v-5q-27 16 -27 37h-5v-5l16 -27v-5l-16 11v-6q8 0 32 -32v-5l-5 -11q5 0 5 -5 q-17 0 -53 -27q0 5 -6 5l16 27v22l-10 -6h-6v16h11l16 -10v10l11 -5v5l-11 6v-6q-8 6 -32 6v10h11q-11 18 -11 32h-5v-10q5 -10 5 -22h-11v22h-5v-22h-6v27h-5q0 -16 -5 -37h-27q-11 -2 -11 -11v-5l16 10q11 -1 11 -10v-6h-5l-11 6q0 -6 -5 -6l16 -32q0 -11 -11 -11 q-38 21 -38 27zM1703 741v16h11v-6q0 -10 -11 -10zM1714 655v5q2 11 11 11v-5q0 -11 -11 -11zM1725 468l11 -6l32 6l10 -6v27l-10 -5h-16q-11 0 -11 16q-16 -6 -16 -32zM1757 789q27 0 27 16h11v-22l-27 -5q-11 0 -11 11zM1805 484h6v5l10 -5h11q0 10 -11 10h-5 q-11 -1 -11 -10zM1805 559v5q0 8 22 21h5l-11 -16h6q0 12 26 16v6h-10v5q2 0 21 5q0 -5 -5 -5l5 -11v-26h-32l5 10h-5q0 -10 -11 -10l-10 5q0 -5 -6 -5zM1805 826q9 6 27 6v5h-21zM1811 323h21v5h-21v-5zM1848 280h11l10 5l6 -26h5l6 26l10 -5h11q-27 29 -27 43h-5 q0 -14 -27 -43zM1853 403q6 -9 6 -21h37q0 12 6 21l-11 -5h-5q0 21 -11 21q-6 -9 -6 -21h-5zM1853 880q22 -27 22 -38h11q0 14 21 38h-21v16h-11q0 -12 -6 -22l-10 6h-6zM1859 757l10 5l6 -21h11l5 21l11 -5v5q-6 10 -6 16h-32zM1869 339h6v11h5v-11h6v16h-6q-11 -2 -11 -11 v-5zM1869 601q17 43 54 43l11 -16v-11l-11 -16h5l11 16l-5 27q10 -1 10 -10v-22l-16 -21h11q0 -11 -11 -11h-5l-27 5v6q3 0 22 5v5q-12 0 -22 6v-16h-5v10h-5v-10l21 -16h32q25 12 38 37v5h-6q0 -21 -16 -21q0 5 -5 5q0 -5 -6 -5l6 27v21l27 6v-27h5q5 53 5 80v5h11 q13 -10 21 -10v-70l16 11v-5q0 -18 -16 -59h11v21q11 -2 11 -11q-6 -10 -6 -16q11 -1 11 -10h-11q-13 10 -21 10l-21 -10q0 5 -6 5l11 21h-5q0 -5 -6 -5v5l6 11h-6q-16 -37 -53 -37h-16q-49 8 -49 42zM1880 660q0 8 16 16h6l-6 -10h6l5 10q-5 0 -5 6q7 0 16 16h-6 q-2 -11 -26 -22v6q0 21 37 21v-5l16 10h5q0 -3 -32 -32q8 -5 32 -5v-5l-37 -6h-27zM1886 617q9 6 21 6v5h-16zM1896 473q0 19 22 43l26 -6q11 0 11 11h-11v5h11l-5 11h27v-96h-49l-10 -6q-22 19 -22 38zM1923 323h21v5h-21v-5zM1928 682q2 10 11 10h5q0 -10 -10 -10h-6z M1928 832q18 0 27 -6v6l-11 5h-16v-5zM1944 692q0 9 22 22v-6q0 -7 -16 -16h-6zM1950 676v6q0 7 27 26h5q-21 -23 -21 -26q5 0 5 -6h-16zM1961 800l10 5h6q0 -16 26 -16q0 -11 -10 -11q-27 0 -32 22zM1966 676h5q11 -1 11 -10v-6h-11q0 6 -5 16zM1971 682q6 10 6 16h5v-22z M1982 462v27q16 27 43 27v-6l10 6q33 -22 33 -48h-54l5 -11l27 5h16v-11q-7 0 -32 -16q-33 0 -48 27zM2009 484h5v5l11 -5h10q0 10 -10 10h-6q-10 -1 -10 -10zM2014 858l96 -80h11q11 5 16 5v11q-9 0 -123 70v-6zM2052 687v5q5 11 5 16h21q-11 -32 -21 -32v6l5 10h-5 q0 -5 -5 -5zM2062 660v6q2 10 11 10v-5q0 -11 -11 -11zM2068 462h16l26 -5v11q-34 0 -42 21q0 14 26 27v-6l11 6q32 -6 32 -16v-6h-10l-27 6l-6 -11q32 0 49 -16l5 11l-5 26h32v-26h5q2 26 16 26v-5l11 5h11q5 0 5 -5l11 5h21v-26h5v26h11q12 0 22 -5q9 5 21 5q0 -5 5 -5v5 q11 -5 16 -5v-32l-5 -27q5 0 5 -5h-21q-11 0 -11 10v6q0 5 6 5q-6 9 -6 27h-5q-11 -2 -11 -11v-37h-27v37h-5q0 -64 -27 -64q-5 0 -16 -5q-17 10 -27 10v11q12 0 22 5q10 -5 16 -5l11 16l-27 -5q-14 0 -32 21l-11 -16h5q0 5 6 5v-10h-11q-5 0 -5 5l-11 -5h-5v16 q-11 -6 -16 -6l5 -10q-6 0 -16 -6q-48 6 -48 27zM2068 644l10 6v-16q-10 0 -10 10zM2068 650v5l21 37v6h-5v-11h-6v16l11 5q0 -5 5 -5q0 5 6 5q0 -5 5 -5q0 5 5 5v-10q0 -15 -10 -32h5l16 10v-5l-5 -11q12 0 16 -37h5l11 48l11 -5h5v5q-11 17 -11 27l16 10h22l10 -5q0 5 6 5 l5 -10v-6l-5 -10q5 0 5 -6h-5q-12 0 -16 27h-6v-11h-5v11h-5v-5q5 -11 5 -16v-6h-5l-6 22h-5v-6l21 -37h-5q-9 5 -21 5l-11 -16v-5l11 -16v-6q0 -10 -11 -10v5l5 11h-10v-16h-27q-11 0 -11 10v6l16 -11v11h-11l6 27v5l-27 5q0 -5 -5 -5q0 5 -6 5q0 -10 -10 -10zM2078 628 q8 22 16 22h6q10 -2 10 -11q-5 0 -5 -5l-11 5h-5v-5l5 -27q-5 0 -16 21zM2084 601v6q10 -2 10 -11v-5q-10 0 -10 10zM2084 666h5l11 21v5h-6q0 -9 -10 -26zM2105 591v5q8 0 16 -16h-5q-11 0 -11 11zM2121 580l32 5q0 -8 -21 -21zM2143 521v16h26q0 -6 6 -16l-11 -5h-5l5 10 h-5q-11 -5 -16 -5zM2159 644v6h10q11 -2 11 -11q-6 0 -16 -5zM2164 596v5q2 11 11 11v-5q0 -11 -11 -11zM2175 612v5q5 10 5 22h5v-22zM2180 671v5q11 -1 11 -10v-6q-11 0 -11 11zM2185 655q11 0 11 -16v-5h-5zM2223 559q0 8 21 21h6q0 -8 -22 -21h-5zM2223 569v6 q2 10 11 10h5q0 -7 -16 -16zM2223 585v6q24 26 59 26v-10h-11v-6h11v-5h-6l-21 5zM2223 617v6q5 29 5 43q-5 10 -5 16q27 -22 32 -22v6q-5 0 -5 5h5l11 -5v5q-11 0 -11 11h5q22 -8 22 -16h-11v-6h11v-5h-11v-5h11v-11q-44 -8 -59 -22zM2223 698v5h5q0 -11 22 -32h-6 q-21 11 -21 27zM2223 725l16 21l-11 -5h-5q0 12 27 16l-6 -11q6 0 6 -5q-11 0 -11 -16h-16zM2223 751v11h16v-5q-6 0 -16 -6zM2244 617v6q4 0 32 5h6v-5q-4 0 -32 -6h-6zM2250 580v5h10v6h-10v5h10q11 -5 16 -5v-6q-10 0 -10 -10q-11 5 -16 5zM2250 703v5h5q7 0 27 -26h-11 q-8 0 -21 21zM2250 746v5q2 0 21 6h5v-6q-10 0 -10 -10q-11 5 -16 5zM2255 559q0 12 27 16v-6q0 -10 -11 -10h-16zM2255 725q0 12 27 16v-6q0 -10 -11 -10h-16zM2266 708h5q11 -1 11 -10h-6q-10 0 -10 10zM2293 569l32 -5v-5h-27zM2293 607h5q11 -2 11 -11h-6q-10 0 -10 11z M2293 676q0 11 21 11v5h-21l5 11q-5 0 -5 5h5q5 0 5 -5l11 5h16l-5 -10h16v-6h-11l5 -10h-10v-6h10q0 6 6 6q5 -11 5 -16v-6h-5v11h-6v-11h-16q0 11 -16 11l6 11l-11 -6h-5zM2298 585v6l27 5v5h-16l5 11q-5 0 -5 5l26 -5l38 11l-6 -11q6 0 6 -5q-10 -6 -22 -6v-5h11 q11 5 16 5h6v-5h-11v-5q6 0 16 -6v6q-5 0 -5 5l10 5h6l-6 -10h6q1 10 10 10h6l-6 -10v-6l6 -26h-6q-102 12 -107 26h-5zM2319 623v5q17 0 38 6q0 -6 -22 -17q-10 6 -16 6zM2325 575h37v5h-37v-5zM2335 559v5h27v-5h-27zM2341 462v27q16 27 43 27v-6l10 6q27 -12 27 -43h5v37 h27v-10h6q0 16 16 16q5 -11 5 -16l-21 -27v-32h-33v27h-53l5 -11l27 5h16v-11q-7 0 -32 -16q-33 0 -48 27zM2346 687q11 0 11 -16v-5h-6zM2357 634v5q10 17 10 27q0 9 -10 32l37 10q0 -12 -27 -16v-10l17 10h10q-6 -53 -21 -53v11h-6q0 -16 -10 -16zM2367 484h6v5l11 -5h10 q0 10 -10 10h-6q-11 -1 -11 -10zM2384 634v5q16 27 16 53v16q32 0 32 -42l-16 -11q0 5 -6 5q0 -26 -16 -26q0 5 -5 5q0 -5 -5 -5zM2416 569v22h5v-22h-5zM2416 666h5v26h-5v-26zM2421 591q2 10 11 10h5v-16q-10 6 -16 6z" />
<glyph unicode="4" horiz-adv-x="2703" d="M6 7v1007q2 10 11 10h262q0 -85 27 -85q36 21 80 27q75 -25 75 -75q-15 -108 -27 -108q6 -10 6 -16h5q18 16 27 16q17 -10 32 -10q0 5 27 27l10 -6h22l11 6q0 6 -33 42q14 11 22 11q118 -58 118 -91q0 -16 5 -16l-5 -11q10 -21 10 -37q-3 -54 -16 -54q-10 28 -10 43 q-99 -25 -145 -59v-5q0 -12 27 -16q7 27 37 27h27q11 -2 11 -11v-11q-2 -10 -97 -59q-75 24 -75 59l-48 54l-10 -6q26 -87 91 -112q27 -19 58 -27q6 0 6 5q40 -10 48 -10q42 3 102 48q10 -5 16 -5v-6q0 -25 -38 -53q27 0 54 -32v-6q-9 -21 -38 -21h-53q-11 -2 -11 -11v-11 q56 -55 70 -96q46 -12 139 -96h11v160q-27 101 -27 214q133 -150 166 -150q193 -36 193 -69q48 -20 139 -220q44 -138 53 -139h1302v985h-1810q9 -40 27 -85q-14 -123 -43 -123h-6l-16 10h-5l-5 -27q10 -80 10 -133l-5 -27h-5v53q0 46 -11 70l5 11q-5 10 -5 16q5 0 5 5h-5 q5 10 5 16l-5 11q0 15 48 32l5 32v27l-10 -5l-32 42q0 14 21 16l27 -16q-7 49 -22 49q-34 -24 -42 -49l5 -10v-22l-5 -27h-17q0 6 -5 17q0 5 5 5l-32 128h1933v-1017h-1472q0 16 -22 27v-6l11 -21h-139l21 21l-10 6h-11q-11 0 -11 -27h-96q0 21 -22 32q-48 0 -48 -32h-59v5 h11v6q0 10 -11 10h-5q-13 0 -16 -21h-75v11h-5v-11h-108v11q13 26 49 53q10 -1 10 -10v-6q0 -4 -32 -32v-5h11q43 25 43 32v5q0 8 -32 32q-10 0 -75 -80h-584zM22 125h5q69 125 279 268l37 53q0 16 54 113v10q0 52 -64 123q-28 140 -81 193q-16 98 -16 123h-214v-883z M301 832q21 -35 32 -97h26l22 -32q0 13 37 91q6 30 6 43h-6q-53 -11 -53 -16l-27 16q-10 -5 -16 -5q-10 5 -16 5q0 -5 -5 -5zM461 960v6q78 58 107 58h54v-10q-40 0 -59 -32v-16l21 -6q28 16 65 16q10 -5 16 -5v-5q-4 -13 -75 -33v-5h37v-11q-2 -13 -69 -32q-54 4 -54 27 l5 37h-26q-13 11 -22 11zM483 660q10 0 10 -5q96 28 140 59q0 11 -11 11h-27q-108 -45 -112 -54v-11zM520 730q78 21 91 21v-5q9 5 27 5v22l-54 16l-64 -48v-11zM895 7q0 13 21 16q32 -5 32 -16h-53zM1002 189q3 -16 37 -16v-16q-32 -3 -32 -16v-22l11 -16l27 22q8 0 32 -27 q12 0 16 27h5q24 -22 27 -22l11 6q10 -6 16 -6v16q0 8 -102 97q-48 -11 -48 -22v-5zM1013 34h10q8 0 16 16l-5 11q-21 -8 -21 -17v-10zM1050 275q0 -11 107 -113q0 -21 32 -26q19 0 27 53q-11 24 -16 59h-11q0 -16 -5 -16q-26 13 -48 70q-45 68 -59 69q-9 -55 -27 -75v-21z M1088 61q1 -11 10 -11h6v5q0 11 -11 11h-5v-5zM1109 387q30 0 70 -102h5v22q0 5 -5 5q5 11 5 16q-4 28 -59 70h-5q-11 -2 -11 -11zM1136 71q3 -32 16 -32h5q0 22 11 22l21 -22v11q0 8 -21 27q-8 -6 -32 -6zM1216 66q11 -13 11 -22h11q10 0 10 11q-2 11 -26 22zM1248 494 l6 11q-6 0 -6 5q16 0 16 16v6h6q5 0 5 -6l11 6h5v-22h38q12 0 16 -37h5l5 37h6q5 0 5 -5l32 11q0 -9 22 -22h5v6h-11q0 8 22 16v-11l10 5h11q0 -5 6 -16q-6 0 -6 -5h11q21 27 53 27q23 -8 33 -27v-21h-54v-6q11 0 11 -5l10 5h33q-5 -16 -38 -27q-43 7 -43 38h-5 q0 -22 -16 -22l5 -10l-11 -6h-16v6h11v5q-35 -5 -53 -16v11q0 4 5 32q-5 10 -5 16q5 0 5 5q-5 0 -5 6q5 0 5 5h-11q-20 -91 -43 -91v-5h-5l-11 5q0 -5 -5 -5l-5 10v16h16v16q-15 43 -27 43q-5 0 -5 11h-6v-43h16v-5l-5 -11q5 0 5 -5q-5 0 -16 -6q-23 6 -32 33l5 10l-5 11 l11 5q0 -5 5 -5v5q-5 0 -5 6l-11 -6h-11zM1297 569l32 -5v-5h-27zM1297 607h5q11 -2 11 -11h-6q-10 0 -10 11zM1297 676q0 11 21 11v5h-21l5 11q-5 0 -5 5h5q5 0 5 -5l11 5h16l-5 -10h16v-6h-11l5 -10h-10v-6h10q0 6 6 6q5 -11 5 -16v-6h-5v11h-6v-11h-16q0 11 -16 11l6 11 l-11 -6h-5zM1302 585v6l27 5v5h-16l5 11q-5 0 -5 5l26 -5l38 11l-6 -11q6 0 6 -5q-10 -6 -22 -6v-5h11q11 5 16 5h6v-5h-11v-5q6 0 16 -6v6q-5 0 -5 5l10 5h6l-6 -10h6q1 10 10 10h6l-6 -10v-6l6 -26h-6q-102 12 -107 26h-5zM1323 623v5q17 0 38 6q0 -6 -22 -17q-10 6 -16 6 zM1329 575h37v5h-37v-5zM1339 559v5h27v-5h-27zM1350 687q11 0 11 -16v-5h-6zM1361 634v5q10 17 10 27q0 9 -10 32l37 10q0 -12 -27 -16v-10l17 10h10q-6 -53 -21 -53v11h-6q0 -16 -10 -16zM1388 414v5q5 16 32 16v-16h-11l-11 6q0 -11 -10 -11zM1388 634v5q16 27 16 53v16 q32 0 32 -42l-16 -11q0 5 -6 5q0 -26 -16 -26q0 5 -5 5q0 -5 -5 -5zM1420 569v22h5v-22h-5zM1420 666h5v26h-5v-26zM1425 591q2 10 11 10h5v-16q-10 6 -16 6zM1446 559q0 8 22 21h5q0 -8 -21 -21h-6zM1446 569v6q2 10 11 10h6q0 -7 -17 -16zM1446 585v6q24 26 59 26v-10h-10 v-6h10v-5h-5l-21 5zM1446 617v6q6 29 6 43q-6 10 -6 16q28 -22 33 -22v6q-6 0 -6 5h6l10 -5v5q-10 0 -10 11h5q21 -8 21 -16h-10v-6h10v-5h-10v-5h10v-11q-44 -8 -59 -22zM1446 698v5h6q0 -11 21 -32h-5q-22 11 -22 27zM1446 725l17 21l-11 -5h-6q0 12 27 16l-5 -11 q5 0 5 -5q-10 0 -10 -16h-17zM1446 751v11h17v-5q-6 0 -17 -6zM1468 617v6q28 5 32 5h5v-5q-28 -6 -32 -6h-5zM1473 580v5h11v6h-11v5h11q10 -5 16 -5v-6q-11 0 -11 -10q-10 5 -16 5zM1473 703v5h6q7 0 26 -26h-10q-9 0 -22 21zM1473 746v5q3 0 22 6h5v-6q-11 0 -11 -10 q-10 5 -16 5zM1479 559q0 12 26 16v-6q0 -10 -10 -10h-16zM1479 725q0 12 26 16v-6q0 -10 -10 -10h-16zM1489 708h6q10 -1 10 -10h-5q-11 0 -11 10zM1500 484h5v5l11 -5h5q0 10 -10 10q-11 -1 -11 -10zM1516 617h5l11 -5q0 6 5 16h-5v-5q-10 5 -16 5v11l5 11q-5 0 -5 5 q11 0 11 16h5q0 -12 16 -32v-5l-16 10v-5q24 -22 27 -22v6q-11 0 -11 11h6l16 -11v5q-38 28 -38 54l16 10q0 -5 6 -5q0 21 26 21h6l-6 -10v-22l6 -10q-11 0 -11 -11q-12 0 -16 27h-5v-6q21 -42 58 -42q22 0 33 21h-6q-5 -16 -32 -16q-10 5 -16 5v11l11 -5h21q8 0 16 16v5 l-10 -5h-6l-16 10q0 -5 -5 -5q0 5 -6 5q0 -5 -5 -5l-5 11v10q1 11 10 11v-11l11 6q0 -6 5 -6v6q-5 0 -5 5l11 5h21l-5 -10l11 5q42 -23 42 -64v-11q0 -11 -10 -11v38h-6q0 -24 -26 -38h-6l6 11q-18 -11 -33 -11h-10l-27 6q7 -27 27 -27v-5h-16v-6h16q24 11 27 22 q10 -6 16 -6q10 6 16 6l-6 -11h6q1 11 10 11h6q-16 -27 -38 -27v-5h6q17 10 26 10q-5 -10 -5 -16l-11 6v-6q6 0 6 -5q-8 0 -49 -11q-10 0 -37 11q-10 -5 -16 -5q0 10 -16 10l5 11q-19 0 -32 37zM1548 334v16q0 22 91 37h11q29 0 102 -75l10 -5v5q-8 0 -21 22v10q0 38 37 38 q8 0 17 -16v-11h-17v16h-16q-10 -2 -10 -11v-26q6 -19 48 -32q32 7 32 16q-10 -6 -16 -6q-21 8 -21 16v11q1 11 10 11q2 -11 11 -11h11q32 0 32 37q-7 0 -22 33v5q22 0 43 27q9 -27 38 -27v-5q-15 -33 -22 -33q0 -37 32 -37h11l16 11l6 -11v-11q0 -12 -27 -16l-22 11v-5 q38 -16 43 -16q29 0 54 42q-7 27 -16 27h-16v-16h-16v11q0 7 16 16q37 0 37 -38v-10q-21 -24 -21 -27q8 0 75 64q19 16 37 16h11q91 -15 91 -37v-16h-16q0 37 -32 37q-7 -32 -16 -32h-6q0 21 -5 21q-10 -5 -16 -5q0 11 16 11v10q-6 0 -16 6q-16 0 -97 -80h6q80 53 91 53 q-91 -75 -145 -75q-43 0 -85 54v-6q9 -25 42 -53q-42 -15 -42 -43l-11 -5q-15 42 -43 42l-5 11q18 3 42 48v6h-5q0 -36 -86 -54q-37 0 -155 80q-5 0 -5 -5v-16h-6q-10 0 -10 11v5l5 11l-21 5q-22 -3 -22 -37h-16zM1554 500v10q8 0 26 32h27v-21h-11v-11h11v-16h-11v-26 l-5 -11q5 0 5 -6q-5 0 -5 -5q5 0 5 -5h-32v43zM1554 805v21h16q0 -37 16 -37h10q11 0 11 32h5q11 0 11 -21q109 72 155 80q49 0 91 -48v5q-14 23 -37 48l32 22q11 17 11 26h11q0 -37 42 -42v-6q-22 -25 -37 -48v-5q37 48 91 48q47 -8 155 -80v21h16q0 -32 22 -32h5 q11 12 11 37h16v-21q-9 -22 -38 -22h-10l-11 6q0 -8 -16 -16h-22q-34 0 -91 64l-21 16v-5q9 0 21 -32q-6 -27 -16 -27l6 27q0 32 -54 42q-37 -12 -37 -21q17 11 32 11l11 -16v-22l-17 11h-26q-8 0 -16 -16q5 -11 5 -16h-5l21 -38q-32 -5 -32 -26h-22q0 21 -32 21v5 q18 32 22 32l-6 11q6 11 6 16l-16 11h-27l-16 -11q0 11 -5 11q9 27 26 27l11 -6h5v6q-9 0 -32 10q-53 -9 -53 -48l5 -21q-8 0 -16 21q0 17 21 43h-5q-75 -80 -107 -80h-21q-8 0 -17 16l-10 -6h-11q-29 0 -37 22zM1607 457q0 27 54 27q0 8 -22 16v-6q6 0 6 -5h-33v5 q0 12 38 22q8 -6 32 -6v-32h16q0 24 27 38h11q19 0 42 -22q18 15 43 22v-6l11 6q32 -22 32 -48h-53l5 -11l27 5h16v-11q-8 0 -32 -16q-30 6 -49 22h-5q0 -11 -21 -22l-49 11l6 11q-11 0 -11 16h-11l6 -27v-5h-6q-5 0 -5 5l-11 -5h-5q-5 0 -5 5l-11 -5h-27q-4 0 -16 16z M1623 366l113 -64v5q-9 0 -81 69q-5 0 -16 6q-10 -6 -16 -6v-10zM1623 783l22 -5q14 0 101 86q-115 -70 -123 -70v-11zM1677 591v5q1 11 10 11v-6q0 -10 -10 -10zM1703 559v10q0 6 6 6l-6 10v16q11 -5 17 -5v-5h-11v-6q6 0 16 -5v5q-5 0 -5 6h5q11 -2 11 -11q-6 0 -6 -5 l11 -6v6q-5 0 -5 5h5q8 0 21 -21h-5q-5 0 -5 5l-11 -5l-16 10v-5q5 0 5 -5h-27zM1703 612l6 11q-6 0 -6 5q6 0 6 6q-6 0 -6 5q24 13 33 37q-6 11 -6 16h-5q0 -21 -22 -32v16q0 12 6 22q-6 10 -6 16v21h6v-27h5q0 7 6 54l10 -5q0 5 6 5v-11h5v11h11v-27q0 -5 5 -5 q-5 -10 -5 -16v-6h5v11h5v-16q0 -23 -10 -43h10q0 40 16 43v-11h6v11q-6 0 -6 5h6l11 -5v11h5l11 -6v6q16 0 16 -16h5v10q8 0 16 -16q-5 0 -5 -5h5q0 5 5 5l11 -16q0 -5 -5 -5l5 -11v-5q-27 16 -27 37h-5v-5l16 -27v-5l-16 11v-6q8 0 32 -32v-5l-5 -11q5 0 5 -5 q-17 0 -53 -27q0 5 -6 5l16 27v22l-10 -6h-6v16h11l16 -10v10l11 -5v5l-11 6v-6q-8 6 -32 6v10h11q-11 18 -11 32h-5v-10q5 -10 5 -22h-11v22h-5v-22h-6v27h-5q0 -16 -5 -37h-27q-11 -2 -11 -11v-5l16 10q11 -1 11 -10v-6h-5l-11 6q0 -6 -5 -6l16 -32q0 -11 -11 -11 q-38 21 -38 27zM1703 741v16h11v-6q0 -10 -11 -10zM1714 655v5q2 11 11 11v-5q0 -11 -11 -11zM1725 468l11 -6l32 6l10 -6v27l-10 -5h-16q-11 0 -11 16q-16 -6 -16 -32zM1757 789q27 0 27 16h11v-22l-27 -5q-11 0 -11 11zM1805 484h6v5l10 -5h11q0 10 -11 10h-5 q-11 -1 -11 -10zM1805 559v5q0 8 22 21h5l-11 -16h6q0 12 26 16v6h-10v5q2 0 21 5q0 -5 -5 -5l5 -11v-26h-32l5 10h-5q0 -10 -11 -10l-10 5q0 -5 -6 -5zM1805 826q9 6 27 6v5h-21zM1811 323h21v5h-21v-5zM1848 280h11l10 5l6 -26h5l6 26l10 -5h11q-27 29 -27 43h-5 q0 -14 -27 -43zM1853 403q6 -9 6 -21h37q0 12 6 21l-11 -5h-5q0 21 -11 21q-6 -9 -6 -21h-5zM1853 880q22 -27 22 -38h11q0 14 21 38h-21v16h-11q0 -12 -6 -22l-10 6h-6zM1859 757l10 5l6 -21h11l5 21l11 -5v5q-6 10 -6 16h-32zM1869 339h6v11h5v-11h6v16h-6q-11 -2 -11 -11 v-5zM1869 601q17 43 54 43l11 -16v-11l-11 -16h5l11 16l-5 27q10 -1 10 -10v-22l-16 -21h11q0 -11 -11 -11h-5l-27 5v6q3 0 22 5v5q-12 0 -22 6v-16h-5v10h-5v-10l21 -16h32q25 12 38 37v5h-6q0 -21 -16 -21q0 5 -5 5q0 -5 -6 -5l6 27v21l27 6v-27h5q5 53 5 80v5h11 q13 -10 21 -10v-70l16 11v-5q0 -18 -16 -59h11v21q11 -2 11 -11q-6 -10 -6 -16q11 -1 11 -10h-11q-13 10 -21 10l-21 -10q0 5 -6 5l11 21h-5q0 -5 -6 -5v5l6 11h-6q-16 -37 -53 -37h-16q-49 8 -49 42zM1880 660q0 8 16 16h6l-6 -10h6l5 10q-5 0 -5 6q7 0 16 16h-6 q-2 -11 -26 -22v6q0 21 37 21v-5l16 10h5q0 -3 -32 -32q8 -5 32 -5v-5l-37 -6h-27zM1886 617q9 6 21 6v5h-16zM1896 473q0 19 22 43l26 -6q11 0 11 11h-11v5h11l-5 11h27v-96h-49l-10 -6q-22 19 -22 38zM1923 323h21v5h-21v-5zM1928 682q2 10 11 10h5q0 -10 -10 -10h-6z M1928 832q18 0 27 -6v6l-11 5h-16v-5zM1944 692q0 9 22 22v-6q0 -7 -16 -16h-6zM1950 676v6q0 7 27 26h5q-21 -23 -21 -26q5 0 5 -6h-16zM1961 800l10 5h6q0 -16 26 -16q0 -11 -10 -11q-27 0 -32 22zM1966 676h5q11 -1 11 -10v-6h-11q0 6 -5 16zM1971 682q6 10 6 16h5v-22z M1982 462v27q16 27 43 27v-6l10 6q33 -22 33 -48h-54l5 -11l27 5h16v-11q-7 0 -32 -16q-33 0 -48 27zM2009 484h5v5l11 -5h10q0 10 -10 10h-6q-10 -1 -10 -10zM2014 858l96 -80h11q11 5 16 5v11q-9 0 -123 70v-6zM2052 687v5q5 11 5 16h21q-11 -32 -21 -32v6l5 10h-5 q0 -5 -5 -5zM2062 660v6q2 10 11 10v-5q0 -11 -11 -11zM2068 462h16l26 -5v11q-34 0 -42 21q0 14 26 27v-6l11 6q32 -6 32 -16v-6h-10l-27 6l-6 -11q32 0 49 -16l5 11l-5 26h32v-26h5q2 26 16 26v-5l11 5h11q5 0 5 -5l11 5h21v-26h5v26h11q12 0 22 -5q9 5 21 5q0 -5 5 -5v5 q11 -5 16 -5v-32l-5 -27q5 0 5 -5h-21q-11 0 -11 10v6q0 5 6 5q-6 9 -6 27h-5q-11 -2 -11 -11v-37h-27v37h-5q0 -64 -27 -64q-5 0 -16 -5q-17 10 -27 10v11q12 0 22 5q10 -5 16 -5l11 16l-27 -5q-14 0 -32 21l-11 -16h5q0 5 6 5v-10h-11q-5 0 -5 5l-11 -5h-5v16 q-11 -6 -16 -6l5 -10q-6 0 -16 -6q-48 6 -48 27zM2068 644l10 6v-16q-10 0 -10 10zM2068 650v5l21 37v6h-5v-11h-6v16l11 5q0 -5 5 -5q0 5 6 5q0 -5 5 -5q0 5 5 5v-10q0 -15 -10 -32h5l16 10v-5l-5 -11q12 0 16 -37h5l11 48l11 -5h5v5q-11 17 -11 27l16 10h22l10 -5q0 5 6 5 l5 -10v-6l-5 -10q5 0 5 -6h-5q-12 0 -16 27h-6v-11h-5v11h-5v-5q5 -11 5 -16v-6h-5l-6 22h-5v-6l21 -37h-5q-9 5 -21 5l-11 -16v-5l11 -16v-6q0 -10 -11 -10v5l5 11h-10v-16h-27q-11 0 -11 10v6l16 -11v11h-11l6 27v5l-27 5q0 -5 -5 -5q0 5 -6 5q0 -10 -10 -10zM2078 628 q8 22 16 22h6q10 -2 10 -11q-5 0 -5 -5l-11 5h-5v-5l5 -27q-5 0 -16 21zM2084 601v6q10 -2 10 -11v-5q-10 0 -10 10zM2084 666h5l11 21v5h-6q0 -9 -10 -26zM2105 591v5q8 0 16 -16h-5q-11 0 -11 11zM2121 580l32 5q0 -8 -21 -21zM2143 521v16h26q0 -6 6 -16l-11 -5h-5l5 10 h-5q-11 -5 -16 -5zM2159 644v6h10q11 -2 11 -11q-6 0 -16 -5zM2164 596v5q2 11 11 11v-5q0 -11 -11 -11zM2175 612v5q5 10 5 22h5v-22zM2180 671v5q11 -1 11 -10v-6q-11 0 -11 11zM2185 655q11 0 11 -16v-5h-5zM2223 559q0 8 21 21h6q0 -8 -22 -21h-5zM2223 569v6 q2 10 11 10h5q0 -7 -16 -16zM2223 585v6q24 26 59 26v-10h-11v-6h11v-5h-6l-21 5zM2223 617v6q5 29 5 43q-5 10 -5 16q27 -22 32 -22v6q-5 0 -5 5h5l11 -5v5q-11 0 -11 11h5q22 -8 22 -16h-11v-6h11v-5h-11v-5h11v-11q-44 -8 -59 -22zM2223 698v5h5q0 -11 22 -32h-6 q-21 11 -21 27zM2223 725l16 21l-11 -5h-5q0 12 27 16l-6 -11q6 0 6 -5q-11 0 -11 -16h-16zM2223 751v11h16v-5q-6 0 -16 -6zM2244 617v6q4 0 32 5h6v-5q-4 0 -32 -6h-6zM2250 580v5h10v6h-10v5h10q11 -5 16 -5v-6q-10 0 -10 -10q-11 5 -16 5zM2250 703v5h5q7 0 27 -26h-11 q-8 0 -21 21zM2250 746v5q2 0 21 6h5v-6q-10 0 -10 -10q-11 5 -16 5zM2255 559q0 12 27 16v-6q0 -10 -11 -10h-16zM2255 725q0 12 27 16v-6q0 -10 -11 -10h-16zM2266 708h5q11 -1 11 -10h-6q-10 0 -10 10zM2293 569l32 -5v-5h-27zM2293 607h5q11 -2 11 -11h-6q-10 0 -10 11z M2293 676q0 11 21 11v5h-21l5 11q-5 0 -5 5h5q5 0 5 -5l11 5h16l-5 -10h16v-6h-11l5 -10h-10v-6h10q0 6 6 6q5 -11 5 -16v-6h-5v11h-6v-11h-16q0 11 -16 11l6 11l-11 -6h-5zM2298 585v6l27 5v5h-16l5 11q-5 0 -5 5l26 -5l38 11l-6 -11q6 0 6 -5q-10 -6 -22 -6v-5h11 q11 5 16 5h6v-5h-11v-5q6 0 16 -6v6q-5 0 -5 5l10 5h6l-6 -10h6q1 10 10 10h6l-6 -10v-6l6 -26h-6q-102 12 -107 26h-5zM2319 623v5q17 0 38 6q0 -6 -22 -17q-10 6 -16 6zM2325 575h37v5h-37v-5zM2335 559v5h27v-5h-27zM2341 462v27q16 27 43 27v-6l10 6q27 -12 27 -43h5v37 h27v-10h6q0 16 16 16q5 -11 5 -16l-21 -27v-32h-33v27h-53l5 -11l27 5h16v-11q-7 0 -32 -16q-33 0 -48 27zM2346 687q11 0 11 -16v-5h-6zM2357 634v5q10 17 10 27q0 9 -10 32l37 10q0 -12 -27 -16v-10l17 10h10q-6 -53 -21 -53v11h-6q0 -16 -10 -16zM2367 484h6v5l11 -5h10 q0 10 -10 10h-6q-11 -1 -11 -10zM2384 634v5q16 27 16 53v16q32 0 32 -42l-16 -11q0 5 -6 5q0 -26 -16 -26q0 5 -5 5q0 -5 -5 -5zM2416 569v22h5v-22h-5zM2416 666h5v26h-5v-26zM2421 591q2 10 11 10h5v-16q-10 6 -16 6z" />
<glyph unicode="5" horiz-adv-x="2703" d="M6 7v1007q2 10 11 10h262q0 -85 27 -85q36 21 80 27q75 -25 75 -75q-15 -108 -27 -108q6 -10 6 -16h5q18 16 27 16q17 -10 32 -10q0 5 27 27l10 -6h22l11 6q0 6 -33 42q14 11 22 11q118 -58 118 -91q0 -16 5 -16l-5 -11q10 -21 10 -37q-3 -54 -16 -54q-10 28 -10 43 q-99 -25 -145 -59v-5q0 -12 27 -16q7 27 37 27h27q11 -2 11 -11v-11q-2 -10 -97 -59q-75 24 -75 59l-48 54l-10 -6q26 -87 91 -112q27 -19 58 -27q6 0 6 5q40 -10 48 -10q42 3 102 48q10 -5 16 -5v-6q0 -25 -38 -53q27 0 54 -32v-6q-9 -21 -38 -21h-53q-11 -2 -11 -11v-11 q56 -55 70 -96q46 -12 139 -96h11v160q-27 101 -27 214q133 -150 166 -150q193 -36 193 -69q48 -20 139 -220q44 -138 53 -139h1302v985h-1810q9 -40 27 -85q-14 -123 -43 -123h-6l-16 10h-5l-5 -27q10 -80 10 -133l-5 -27h-5v53q0 46 -11 70l5 11q-5 10 -5 16q5 0 5 5h-5 q5 10 5 16l-5 11q0 15 48 32l5 32v27l-10 -5l-32 42q0 14 21 16l27 -16q-7 49 -22 49q-34 -24 -42 -49l5 -10v-22l-5 -27h-17q0 6 -5 17q0 5 5 5l-32 128h1933v-1017h-1472q0 16 -22 27v-6l11 -21h-139l21 21l-10 6h-11q-11 0 -11 -27h-96q0 21 -22 32q-48 0 -48 -32h-59v5 h11v6q0 10 -11 10h-5q-13 0 -16 -21h-75v11h-5v-11h-108v11q13 26 49 53q10 -1 10 -10v-6q0 -4 -32 -32v-5h11q43 25 43 32v5q0 8 -32 32q-10 0 -75 -80h-584zM22 125h5q69 125 279 268l37 53q0 16 54 113v10q0 52 -64 123q-28 140 -81 193q-16 98 -16 123h-214v-883z M301 832q21 -35 32 -97h26l22 -32q0 13 37 91q6 30 6 43h-6q-53 -11 -53 -16l-27 16q-10 -5 -16 -5q-10 5 -16 5q0 -5 -5 -5zM461 960v6q78 58 107 58h54v-10q-40 0 -59 -32v-16l21 -6q28 16 65 16q10 -5 16 -5v-5q-4 -13 -75 -33v-5h37v-11q-2 -13 -69 -32q-54 4 -54 27 l5 37h-26q-13 11 -22 11zM483 660q10 0 10 -5q96 28 140 59q0 11 -11 11h-27q-108 -45 -112 -54v-11zM520 730q78 21 91 21v-5q9 5 27 5v22l-54 16l-64 -48v-11zM895 7q0 13 21 16q32 -5 32 -16h-53zM1002 189q3 -16 37 -16v-16q-32 -3 -32 -16v-22l11 -16l27 22q8 0 32 -27 q12 0 16 27h5q24 -22 27 -22l11 6q10 -6 16 -6v16q0 8 -102 97q-48 -11 -48 -22v-5zM1013 34h10q8 0 16 16l-5 11q-21 -8 -21 -17v-10zM1050 275q0 -11 107 -113q0 -21 32 -26q19 0 27 53q-11 24 -16 59h-11q0 -16 -5 -16q-26 13 -48 70q-45 68 -59 69q-9 -55 -27 -75v-21z M1088 61q1 -11 10 -11h6v5q0 11 -11 11h-5v-5zM1109 387q30 0 70 -102h5v22q0 5 -5 5q5 11 5 16q-4 28 -59 70h-5q-11 -2 -11 -11zM1136 71q3 -32 16 -32h5q0 22 11 22l21 -22v11q0 8 -21 27q-8 -6 -32 -6zM1216 66q11 -13 11 -22h11q10 0 10 11q-2 11 -26 22zM1248 494 l6 11q-6 0 -6 5q16 0 16 16v6h6q5 0 5 -6l11 6h5v-22h38q12 0 16 -37h5l5 37h6q5 0 5 -5l32 11q0 -9 22 -22h5v6h-11q0 8 22 16v-11l10 5h11q0 -5 6 -16q-6 0 -6 -5h11q21 27 53 27q23 -8 33 -27v-21h-54v-6q11 0 11 -5l10 5h33q-5 -16 -38 -27q-43 7 -43 38h-5 q0 -22 -16 -22l5 -10l-11 -6h-16v6h11v5q-35 -5 -53 -16v11q0 4 5 32q-5 10 -5 16q5 0 5 5q-5 0 -5 6q5 0 5 5h-11q-20 -91 -43 -91v-5h-5l-11 5q0 -5 -5 -5l-5 10v16h16v16q-15 43 -27 43q-5 0 -5 11h-6v-43h16v-5l-5 -11q5 0 5 -5q-5 0 -16 -6q-23 6 -32 33l5 10l-5 11 l11 5q0 -5 5 -5v5q-5 0 -5 6l-11 -6h-11zM1297 569l32 -5v-5h-27zM1297 607h5q11 -2 11 -11h-6q-10 0 -10 11zM1297 676q0 11 21 11v5h-21l5 11q-5 0 -5 5h5q5 0 5 -5l11 5h16l-5 -10h16v-6h-11l5 -10h-10v-6h10q0 6 6 6q5 -11 5 -16v-6h-5v11h-6v-11h-16q0 11 -16 11l6 11 l-11 -6h-5zM1302 585v6l27 5v5h-16l5 11q-5 0 -5 5l26 -5l38 11l-6 -11q6 0 6 -5q-10 -6 -22 -6v-5h11q11 5 16 5h6v-5h-11v-5q6 0 16 -6v6q-5 0 -5 5l10 5h6l-6 -10h6q1 10 10 10h6l-6 -10v-6l6 -26h-6q-102 12 -107 26h-5zM1323 623v5q17 0 38 6q0 -6 -22 -17q-10 6 -16 6 zM1329 575h37v5h-37v-5zM1339 559v5h27v-5h-27zM1350 687q11 0 11 -16v-5h-6zM1361 634v5q10 17 10 27q0 9 -10 32l37 10q0 -12 -27 -16v-10l17 10h10q-6 -53 -21 -53v11h-6q0 -16 -10 -16zM1388 414v5q5 16 32 16v-16h-11l-11 6q0 -11 -10 -11zM1388 634v5q16 27 16 53v16 q32 0 32 -42l-16 -11q0 5 -6 5q0 -26 -16 -26q0 5 -5 5q0 -5 -5 -5zM1420 569v22h5v-22h-5zM1420 666h5v26h-5v-26zM1425 591q2 10 11 10h5v-16q-10 6 -16 6zM1446 559q0 8 22 21h5q0 -8 -21 -21h-6zM1446 569v6q2 10 11 10h6q0 -7 -17 -16zM1446 585v6q24 26 59 26v-10h-10 v-6h10v-5h-5l-21 5zM1446 617v6q6 29 6 43q-6 10 -6 16q28 -22 33 -22v6q-6 0 -6 5h6l10 -5v5q-10 0 -10 11h5q21 -8 21 -16h-10v-6h10v-5h-10v-5h10v-11q-44 -8 -59 -22zM1446 698v5h6q0 -11 21 -32h-5q-22 11 -22 27zM1446 725l17 21l-11 -5h-6q0 12 27 16l-5 -11 q5 0 5 -5q-10 0 -10 -16h-17zM1446 751v11h17v-5q-6 0 -17 -6zM1468 617v6q28 5 32 5h5v-5q-28 -6 -32 -6h-5zM1473 580v5h11v6h-11v5h11q10 -5 16 -5v-6q-11 0 -11 -10q-10 5 -16 5zM1473 703v5h6q7 0 26 -26h-10q-9 0 -22 21zM1473 746v5q3 0 22 6h5v-6q-11 0 -11 -10 q-10 5 -16 5zM1479 559q0 12 26 16v-6q0 -10 -10 -10h-16zM1479 725q0 12 26 16v-6q0 -10 -10 -10h-16zM1489 708h6q10 -1 10 -10h-5q-11 0 -11 10zM1500 484h5v5l11 -5h5q0 10 -10 10q-11 -1 -11 -10zM1516 617h5l11 -5q0 6 5 16h-5v-5q-10 5 -16 5v11l5 11q-5 0 -5 5 q11 0 11 16h5q0 -12 16 -32v-5l-16 10v-5q24 -22 27 -22v6q-11 0 -11 11h6l16 -11v5q-38 28 -38 54l16 10q0 -5 6 -5q0 21 26 21h6l-6 -10v-22l6 -10q-11 0 -11 -11q-12 0 -16 27h-5v-6q21 -42 58 -42q22 0 33 21h-6q-5 -16 -32 -16q-10 5 -16 5v11l11 -5h21q8 0 16 16v5 l-10 -5h-6l-16 10q0 -5 -5 -5q0 5 -6 5q0 -5 -5 -5l-5 11v10q1 11 10 11v-11l11 6q0 -6 5 -6v6q-5 0 -5 5l11 5h21l-5 -10l11 5q42 -23 42 -64v-11q0 -11 -10 -11v38h-6q0 -24 -26 -38h-6l6 11q-18 -11 -33 -11h-10l-27 6q7 -27 27 -27v-5h-16v-6h16q24 11 27 22 q10 -6 16 -6q10 6 16 6l-6 -11h6q1 11 10 11h6q-16 -27 -38 -27v-5h6q17 10 26 10q-5 -10 -5 -16l-11 6v-6q6 0 6 -5q-8 0 -49 -11q-10 0 -37 11q-10 -5 -16 -5q0 10 -16 10l5 11q-19 0 -32 37zM1548 334v16q0 22 91 37h11q29 0 102 -75l10 -5v5q-8 0 -21 22v10q0 38 37 38 q8 0 17 -16v-11h-17v16h-16q-10 -2 -10 -11v-26q6 -19 48 -32q32 7 32 16q-10 -6 -16 -6q-21 8 -21 16v11q1 11 10 11q2 -11 11 -11h11q32 0 32 37q-7 0 -22 33v5q22 0 43 27q9 -27 38 -27v-5q-15 -33 -22 -33q0 -37 32 -37h11l16 11l6 -11v-11q0 -12 -27 -16l-22 11v-5 q38 -16 43 -16q29 0 54 42q-7 27 -16 27h-16v-16h-16v11q0 7 16 16q37 0 37 -38v-10q-21 -24 -21 -27q8 0 75 64q19 16 37 16h11q91 -15 91 -37v-16h-16q0 37 -32 37q-7 -32 -16 -32h-6q0 21 -5 21q-10 -5 -16 -5q0 11 16 11v10q-6 0 -16 6q-16 0 -97 -80h6q80 53 91 53 q-91 -75 -145 -75q-43 0 -85 54v-6q9 -25 42 -53q-42 -15 -42 -43l-11 -5q-15 42 -43 42l-5 11q18 3 42 48v6h-5q0 -36 -86 -54q-37 0 -155 80q-5 0 -5 -5v-16h-6q-10 0 -10 11v5l5 11l-21 5q-22 -3 -22 -37h-16zM1554 500v10q8 0 26 32h27v-21h-11v-11h11v-16h-11v-26 l-5 -11q5 0 5 -6q-5 0 -5 -5q5 0 5 -5h-32v43zM1554 805v21h16q0 -37 16 -37h10q11 0 11 32h5q11 0 11 -21q109 72 155 80q49 0 91 -48v5q-14 23 -37 48l32 22q11 17 11 26h11q0 -37 42 -42v-6q-22 -25 -37 -48v-5q37 48 91 48q47 -8 155 -80v21h16q0 -32 22 -32h5 q11 12 11 37h16v-21q-9 -22 -38 -22h-10l-11 6q0 -8 -16 -16h-22q-34 0 -91 64l-21 16v-5q9 0 21 -32q-6 -27 -16 -27l6 27q0 32 -54 42q-37 -12 -37 -21q17 11 32 11l11 -16v-22l-17 11h-26q-8 0 -16 -16q5 -11 5 -16h-5l21 -38q-32 -5 -32 -26h-22q0 21 -32 21v5 q18 32 22 32l-6 11q6 11 6 16l-16 11h-27l-16 -11q0 11 -5 11q9 27 26 27l11 -6h5v6q-9 0 -32 10q-53 -9 -53 -48l5 -21q-8 0 -16 21q0 17 21 43h-5q-75 -80 -107 -80h-21q-8 0 -17 16l-10 -6h-11q-29 0 -37 22zM1607 457q0 27 54 27q0 8 -22 16v-6q6 0 6 -5h-33v5 q0 12 38 22q8 -6 32 -6v-32h16q0 24 27 38h11q19 0 42 -22q18 15 43 22v-6l11 6q32 -22 32 -48h-53l5 -11l27 5h16v-11q-8 0 -32 -16q-30 6 -49 22h-5q0 -11 -21 -22l-49 11l6 11q-11 0 -11 16h-11l6 -27v-5h-6q-5 0 -5 5l-11 -5h-5q-5 0 -5 5l-11 -5h-27q-4 0 -16 16z M1623 366l113 -64v5q-9 0 -81 69q-5 0 -16 6q-10 -6 -16 -6v-10zM1623 783l22 -5q14 0 101 86q-115 -70 -123 -70v-11zM1677 591v5q1 11 10 11v-6q0 -10 -10 -10zM1703 559v10q0 6 6 6l-6 10v16q11 -5 17 -5v-5h-11v-6q6 0 16 -5v5q-5 0 -5 6h5q11 -2 11 -11q-6 0 -6 -5 l11 -6v6q-5 0 -5 5h5q8 0 21 -21h-5q-5 0 -5 5l-11 -5l-16 10v-5q5 0 5 -5h-27zM1703 612l6 11q-6 0 -6 5q6 0 6 6q-6 0 -6 5q24 13 33 37q-6 11 -6 16h-5q0 -21 -22 -32v16q0 12 6 22q-6 10 -6 16v21h6v-27h5q0 7 6 54l10 -5q0 5 6 5v-11h5v11h11v-27q0 -5 5 -5 q-5 -10 -5 -16v-6h5v11h5v-16q0 -23 -10 -43h10q0 40 16 43v-11h6v11q-6 0 -6 5h6l11 -5v11h5l11 -6v6q16 0 16 -16h5v10q8 0 16 -16q-5 0 -5 -5h5q0 5 5 5l11 -16q0 -5 -5 -5l5 -11v-5q-27 16 -27 37h-5v-5l16 -27v-5l-16 11v-6q8 0 32 -32v-5l-5 -11q5 0 5 -5 q-17 0 -53 -27q0 5 -6 5l16 27v22l-10 -6h-6v16h11l16 -10v10l11 -5v5l-11 6v-6q-8 6 -32 6v10h11q-11 18 -11 32h-5v-10q5 -10 5 -22h-11v22h-5v-22h-6v27h-5q0 -16 -5 -37h-27q-11 -2 -11 -11v-5l16 10q11 -1 11 -10v-6h-5l-11 6q0 -6 -5 -6l16 -32q0 -11 -11 -11 q-38 21 -38 27zM1703 741v16h11v-6q0 -10 -11 -10zM1714 655v5q2 11 11 11v-5q0 -11 -11 -11zM1725 468l11 -6l32 6l10 -6v27l-10 -5h-16q-11 0 -11 16q-16 -6 -16 -32zM1757 789q27 0 27 16h11v-22l-27 -5q-11 0 -11 11zM1805 484h6v5l10 -5h11q0 10 -11 10h-5 q-11 -1 -11 -10zM1805 559v5q0 8 22 21h5l-11 -16h6q0 12 26 16v6h-10v5q2 0 21 5q0 -5 -5 -5l5 -11v-26h-32l5 10h-5q0 -10 -11 -10l-10 5q0 -5 -6 -5zM1805 826q9 6 27 6v5h-21zM1811 323h21v5h-21v-5zM1848 280h11l10 5l6 -26h5l6 26l10 -5h11q-27 29 -27 43h-5 q0 -14 -27 -43zM1853 403q6 -9 6 -21h37q0 12 6 21l-11 -5h-5q0 21 -11 21q-6 -9 -6 -21h-5zM1853 880q22 -27 22 -38h11q0 14 21 38h-21v16h-11q0 -12 -6 -22l-10 6h-6zM1859 757l10 5l6 -21h11l5 21l11 -5v5q-6 10 -6 16h-32zM1869 339h6v11h5v-11h6v16h-6q-11 -2 -11 -11 v-5zM1869 601q17 43 54 43l11 -16v-11l-11 -16h5l11 16l-5 27q10 -1 10 -10v-22l-16 -21h11q0 -11 -11 -11h-5l-27 5v6q3 0 22 5v5q-12 0 -22 6v-16h-5v10h-5v-10l21 -16h32q25 12 38 37v5h-6q0 -21 -16 -21q0 5 -5 5q0 -5 -6 -5l6 27v21l27 6v-27h5q5 53 5 80v5h11 q13 -10 21 -10v-70l16 11v-5q0 -18 -16 -59h11v21q11 -2 11 -11q-6 -10 -6 -16q11 -1 11 -10h-11q-13 10 -21 10l-21 -10q0 5 -6 5l11 21h-5q0 -5 -6 -5v5l6 11h-6q-16 -37 -53 -37h-16q-49 8 -49 42zM1880 660q0 8 16 16h6l-6 -10h6l5 10q-5 0 -5 6q7 0 16 16h-6 q-2 -11 -26 -22v6q0 21 37 21v-5l16 10h5q0 -3 -32 -32q8 -5 32 -5v-5l-37 -6h-27zM1886 617q9 6 21 6v5h-16zM1896 473q0 19 22 43l26 -6q11 0 11 11h-11v5h11l-5 11h27v-96h-49l-10 -6q-22 19 -22 38zM1923 323h21v5h-21v-5zM1928 682q2 10 11 10h5q0 -10 -10 -10h-6z M1928 832q18 0 27 -6v6l-11 5h-16v-5zM1944 692q0 9 22 22v-6q0 -7 -16 -16h-6zM1950 676v6q0 7 27 26h5q-21 -23 -21 -26q5 0 5 -6h-16zM1961 800l10 5h6q0 -16 26 -16q0 -11 -10 -11q-27 0 -32 22zM1966 676h5q11 -1 11 -10v-6h-11q0 6 -5 16zM1971 682q6 10 6 16h5v-22z M1982 462v27q16 27 43 27v-6l10 6q33 -22 33 -48h-54l5 -11l27 5h16v-11q-7 0 -32 -16q-33 0 -48 27zM2009 484h5v5l11 -5h10q0 10 -10 10h-6q-10 -1 -10 -10zM2014 858l96 -80h11q11 5 16 5v11q-9 0 -123 70v-6zM2052 687v5q5 11 5 16h21q-11 -32 -21 -32v6l5 10h-5 q0 -5 -5 -5zM2062 660v6q2 10 11 10v-5q0 -11 -11 -11zM2068 462h16l26 -5v11q-34 0 -42 21q0 14 26 27v-6l11 6q32 -6 32 -16v-6h-10l-27 6l-6 -11q32 0 49 -16l5 11l-5 26h32v-26h5q2 26 16 26v-5l11 5h11q5 0 5 -5l11 5h21v-26h5v26h11q12 0 22 -5q9 5 21 5q0 -5 5 -5v5 q11 -5 16 -5v-32l-5 -27q5 0 5 -5h-21q-11 0 -11 10v6q0 5 6 5q-6 9 -6 27h-5q-11 -2 -11 -11v-37h-27v37h-5q0 -64 -27 -64q-5 0 -16 -5q-17 10 -27 10v11q12 0 22 5q10 -5 16 -5l11 16l-27 -5q-14 0 -32 21l-11 -16h5q0 5 6 5v-10h-11q-5 0 -5 5l-11 -5h-5v16 q-11 -6 -16 -6l5 -10q-6 0 -16 -6q-48 6 -48 27zM2068 644l10 6v-16q-10 0 -10 10zM2068 650v5l21 37v6h-5v-11h-6v16l11 5q0 -5 5 -5q0 5 6 5q0 -5 5 -5q0 5 5 5v-10q0 -15 -10 -32h5l16 10v-5l-5 -11q12 0 16 -37h5l11 48l11 -5h5v5q-11 17 -11 27l16 10h22l10 -5q0 5 6 5 l5 -10v-6l-5 -10q5 0 5 -6h-5q-12 0 -16 27h-6v-11h-5v11h-5v-5q5 -11 5 -16v-6h-5l-6 22h-5v-6l21 -37h-5q-9 5 -21 5l-11 -16v-5l11 -16v-6q0 -10 -11 -10v5l5 11h-10v-16h-27q-11 0 -11 10v6l16 -11v11h-11l6 27v5l-27 5q0 -5 -5 -5q0 5 -6 5q0 -10 -10 -10zM2078 628 q8 22 16 22h6q10 -2 10 -11q-5 0 -5 -5l-11 5h-5v-5l5 -27q-5 0 -16 21zM2084 601v6q10 -2 10 -11v-5q-10 0 -10 10zM2084 666h5l11 21v5h-6q0 -9 -10 -26zM2105 591v5q8 0 16 -16h-5q-11 0 -11 11zM2121 580l32 5q0 -8 -21 -21zM2143 521v16h26q0 -6 6 -16l-11 -5h-5l5 10 h-5q-11 -5 -16 -5zM2159 644v6h10q11 -2 11 -11q-6 0 -16 -5zM2164 596v5q2 11 11 11v-5q0 -11 -11 -11zM2175 612v5q5 10 5 22h5v-22zM2180 671v5q11 -1 11 -10v-6q-11 0 -11 11zM2185 655q11 0 11 -16v-5h-5zM2223 559q0 8 21 21h6q0 -8 -22 -21h-5zM2223 569v6 q2 10 11 10h5q0 -7 -16 -16zM2223 585v6q24 26 59 26v-10h-11v-6h11v-5h-6l-21 5zM2223 617v6q5 29 5 43q-5 10 -5 16q27 -22 32 -22v6q-5 0 -5 5h5l11 -5v5q-11 0 -11 11h5q22 -8 22 -16h-11v-6h11v-5h-11v-5h11v-11q-44 -8 -59 -22zM2223 698v5h5q0 -11 22 -32h-6 q-21 11 -21 27zM2223 725l16 21l-11 -5h-5q0 12 27 16l-6 -11q6 0 6 -5q-11 0 -11 -16h-16zM2223 751v11h16v-5q-6 0 -16 -6zM2244 617v6q4 0 32 5h6v-5q-4 0 -32 -6h-6zM2250 580v5h10v6h-10v5h10q11 -5 16 -5v-6q-10 0 -10 -10q-11 5 -16 5zM2250 703v5h5q7 0 27 -26h-11 q-8 0 -21 21zM2250 746v5q2 0 21 6h5v-6q-10 0 -10 -10q-11 5 -16 5zM2255 559q0 12 27 16v-6q0 -10 -11 -10h-16zM2255 725q0 12 27 16v-6q0 -10 -11 -10h-16zM2266 708h5q11 -1 11 -10h-6q-10 0 -10 10zM2293 569l32 -5v-5h-27zM2293 607h5q11 -2 11 -11h-6q-10 0 -10 11z M2293 676q0 11 21 11v5h-21l5 11q-5 0 -5 5h5q5 0 5 -5l11 5h16l-5 -10h16v-6h-11l5 -10h-10v-6h10q0 6 6 6q5 -11 5 -16v-6h-5v11h-6v-11h-16q0 11 -16 11l6 11l-11 -6h-5zM2298 585v6l27 5v5h-16l5 11q-5 0 -5 5l26 -5l38 11l-6 -11q6 0 6 -5q-10 -6 -22 -6v-5h11 q11 5 16 5h6v-5h-11v-5q6 0 16 -6v6q-5 0 -5 5l10 5h6l-6 -10h6q1 10 10 10h6l-6 -10v-6l6 -26h-6q-102 12 -107 26h-5zM2319 623v5q17 0 38 6q0 -6 -22 -17q-10 6 -16 6zM2325 575h37v5h-37v-5zM2335 559v5h27v-5h-27zM2341 462v27q16 27 43 27v-6l10 6q27 -12 27 -43h5v37 h27v-10h6q0 16 16 16q5 -11 5 -16l-21 -27v-32h-33v27h-53l5 -11l27 5h16v-11q-7 0 -32 -16q-33 0 -48 27zM2346 687q11 0 11 -16v-5h-6zM2357 634v5q10 17 10 27q0 9 -10 32l37 10q0 -12 -27 -16v-10l17 10h10q-6 -53 -21 -53v11h-6q0 -16 -10 -16zM2367 484h6v5l11 -5h10 q0 10 -10 10h-6q-11 -1 -11 -10zM2384 634v5q16 27 16 53v16q32 0 32 -42l-16 -11q0 5 -6 5q0 -26 -16 -26q0 5 -5 5q0 -5 -5 -5zM2416 569v22h5v-22h-5zM2416 666h5v26h-5v-26zM2421 591q2 10 11 10h5v-16q-10 6 -16 6z" />
<glyph unicode="6" horiz-adv-x="2703" d="M6 7v1007q2 10 11 10h262q0 -85 27 -85q36 21 80 27q75 -25 75 -75q-15 -108 -27 -108q6 -10 6 -16h5q18 16 27 16q17 -10 32 -10q0 5 27 27l10 -6h22l11 6q0 6 -33 42q14 11 22 11q118 -58 118 -91q0 -16 5 -16l-5 -11q10 -21 10 -37q-3 -54 -16 -54q-10 28 -10 43 q-99 -25 -145 -59v-5q0 -12 27 -16q7 27 37 27h27q11 -2 11 -11v-11q-2 -10 -97 -59q-75 24 -75 59l-48 54l-10 -6q26 -87 91 -112q27 -19 58 -27q6 0 6 5q40 -10 48 -10q42 3 102 48q10 -5 16 -5v-6q0 -25 -38 -53q27 0 54 -32v-6q-9 -21 -38 -21h-53q-11 -2 -11 -11v-11 q56 -55 70 -96q46 -12 139 -96h11v160q-27 101 -27 214q133 -150 166 -150q193 -36 193 -69q48 -20 139 -220q44 -138 53 -139h1302v985h-1810q9 -40 27 -85q-14 -123 -43 -123h-6l-16 10h-5l-5 -27q10 -80 10 -133l-5 -27h-5v53q0 46 -11 70l5 11q-5 10 -5 16q5 0 5 5h-5 q5 10 5 16l-5 11q0 15 48 32l5 32v27l-10 -5l-32 42q0 14 21 16l27 -16q-7 49 -22 49q-34 -24 -42 -49l5 -10v-22l-5 -27h-17q0 6 -5 17q0 5 5 5l-32 128h1933v-1017h-1472q0 16 -22 27v-6l11 -21h-139l21 21l-10 6h-11q-11 0 -11 -27h-96q0 21 -22 32q-48 0 -48 -32h-59v5 h11v6q0 10 -11 10h-5q-13 0 -16 -21h-75v11h-5v-11h-108v11q13 26 49 53q10 -1 10 -10v-6q0 -4 -32 -32v-5h11q43 25 43 32v5q0 8 -32 32q-10 0 -75 -80h-584zM22 125h5q69 125 279 268l37 53q0 16 54 113v10q0 52 -64 123q-28 140 -81 193q-16 98 -16 123h-214v-883z M301 832q21 -35 32 -97h26l22 -32q0 13 37 91q6 30 6 43h-6q-53 -11 -53 -16l-27 16q-10 -5 -16 -5q-10 5 -16 5q0 -5 -5 -5zM461 960v6q78 58 107 58h54v-10q-40 0 -59 -32v-16l21 -6q28 16 65 16q10 -5 16 -5v-5q-4 -13 -75 -33v-5h37v-11q-2 -13 -69 -32q-54 4 -54 27 l5 37h-26q-13 11 -22 11zM483 660q10 0 10 -5q96 28 140 59q0 11 -11 11h-27q-108 -45 -112 -54v-11zM520 730q78 21 91 21v-5q9 5 27 5v22l-54 16l-64 -48v-11zM895 7q0 13 21 16q32 -5 32 -16h-53zM1002 189q3 -16 37 -16v-16q-32 -3 -32 -16v-22l11 -16l27 22q8 0 32 -27 q12 0 16 27h5q24 -22 27 -22l11 6q10 -6 16 -6v16q0 8 -102 97q-48 -11 -48 -22v-5zM1013 34h10q8 0 16 16l-5 11q-21 -8 -21 -17v-10zM1050 275q0 -11 107 -113q0 -21 32 -26q19 0 27 53q-11 24 -16 59h-11q0 -16 -5 -16q-26 13 -48 70q-45 68 -59 69q-9 -55 -27 -75v-21z M1088 61q1 -11 10 -11h6v5q0 11 -11 11h-5v-5zM1109 387q30 0 70 -102h5v22q0 5 -5 5q5 11 5 16q-4 28 -59 70h-5q-11 -2 -11 -11zM1136 71q3 -32 16 -32h5q0 22 11 22l21 -22v11q0 8 -21 27q-8 -6 -32 -6zM1216 66q11 -13 11 -22h11q10 0 10 11q-2 11 -26 22zM1248 494 l6 11q-6 0 -6 5q16 0 16 16v6h6q5 0 5 -6l11 6h5v-22h38q12 0 16 -37h5l5 37h6q5 0 5 -5l32 11q0 -9 22 -22h5v6h-11q0 8 22 16v-11l10 5h11q0 -5 6 -16q-6 0 -6 -5h11q21 27 53 27q23 -8 33 -27v-21h-54v-6q11 0 11 -5l10 5h33q-5 -16 -38 -27q-43 7 -43 38h-5 q0 -22 -16 -22l5 -10l-11 -6h-16v6h11v5q-35 -5 -53 -16v11q0 4 5 32q-5 10 -5 16q5 0 5 5q-5 0 -5 6q5 0 5 5h-11q-20 -91 -43 -91v-5h-5l-11 5q0 -5 -5 -5l-5 10v16h16v16q-15 43 -27 43q-5 0 -5 11h-6v-43h16v-5l-5 -11q5 0 5 -5q-5 0 -16 -6q-23 6 -32 33l5 10l-5 11 l11 5q0 -5 5 -5v5q-5 0 -5 6l-11 -6h-11zM1297 569l32 -5v-5h-27zM1297 607h5q11 -2 11 -11h-6q-10 0 -10 11zM1297 676q0 11 21 11v5h-21l5 11q-5 0 -5 5h5q5 0 5 -5l11 5h16l-5 -10h16v-6h-11l5 -10h-10v-6h10q0 6 6 6q5 -11 5 -16v-6h-5v11h-6v-11h-16q0 11 -16 11l6 11 l-11 -6h-5zM1302 585v6l27 5v5h-16l5 11q-5 0 -5 5l26 -5l38 11l-6 -11q6 0 6 -5q-10 -6 -22 -6v-5h11q11 5 16 5h6v-5h-11v-5q6 0 16 -6v6q-5 0 -5 5l10 5h6l-6 -10h6q1 10 10 10h6l-6 -10v-6l6 -26h-6q-102 12 -107 26h-5zM1323 623v5q17 0 38 6q0 -6 -22 -17q-10 6 -16 6 zM1329 575h37v5h-37v-5zM1339 559v5h27v-5h-27zM1350 687q11 0 11 -16v-5h-6zM1361 634v5q10 17 10 27q0 9 -10 32l37 10q0 -12 -27 -16v-10l17 10h10q-6 -53 -21 -53v11h-6q0 -16 -10 -16zM1388 414v5q5 16 32 16v-16h-11l-11 6q0 -11 -10 -11zM1388 634v5q16 27 16 53v16 q32 0 32 -42l-16 -11q0 5 -6 5q0 -26 -16 -26q0 5 -5 5q0 -5 -5 -5zM1420 569v22h5v-22h-5zM1420 666h5v26h-5v-26zM1425 591q2 10 11 10h5v-16q-10 6 -16 6zM1446 559q0 8 22 21h5q0 -8 -21 -21h-6zM1446 569v6q2 10 11 10h6q0 -7 -17 -16zM1446 585v6q24 26 59 26v-10h-10 v-6h10v-5h-5l-21 5zM1446 617v6q6 29 6 43q-6 10 -6 16q28 -22 33 -22v6q-6 0 -6 5h6l10 -5v5q-10 0 -10 11h5q21 -8 21 -16h-10v-6h10v-5h-10v-5h10v-11q-44 -8 -59 -22zM1446 698v5h6q0 -11 21 -32h-5q-22 11 -22 27zM1446 725l17 21l-11 -5h-6q0 12 27 16l-5 -11 q5 0 5 -5q-10 0 -10 -16h-17zM1446 751v11h17v-5q-6 0 -17 -6zM1468 617v6q28 5 32 5h5v-5q-28 -6 -32 -6h-5zM1473 580v5h11v6h-11v5h11q10 -5 16 -5v-6q-11 0 -11 -10q-10 5 -16 5zM1473 703v5h6q7 0 26 -26h-10q-9 0 -22 21zM1473 746v5q3 0 22 6h5v-6q-11 0 -11 -10 q-10 5 -16 5zM1479 559q0 12 26 16v-6q0 -10 -10 -10h-16zM1479 725q0 12 26 16v-6q0 -10 -10 -10h-16zM1489 708h6q10 -1 10 -10h-5q-11 0 -11 10zM1500 484h5v5l11 -5h5q0 10 -10 10q-11 -1 -11 -10zM1516 617h5l11 -5q0 6 5 16h-5v-5q-10 5 -16 5v11l5 11q-5 0 -5 5 q11 0 11 16h5q0 -12 16 -32v-5l-16 10v-5q24 -22 27 -22v6q-11 0 -11 11h6l16 -11v5q-38 28 -38 54l16 10q0 -5 6 -5q0 21 26 21h6l-6 -10v-22l6 -10q-11 0 -11 -11q-12 0 -16 27h-5v-6q21 -42 58 -42q22 0 33 21h-6q-5 -16 -32 -16q-10 5 -16 5v11l11 -5h21q8 0 16 16v5 l-10 -5h-6l-16 10q0 -5 -5 -5q0 5 -6 5q0 -5 -5 -5l-5 11v10q1 11 10 11v-11l11 6q0 -6 5 -6v6q-5 0 -5 5l11 5h21l-5 -10l11 5q42 -23 42 -64v-11q0 -11 -10 -11v38h-6q0 -24 -26 -38h-6l6 11q-18 -11 -33 -11h-10l-27 6q7 -27 27 -27v-5h-16v-6h16q24 11 27 22 q10 -6 16 -6q10 6 16 6l-6 -11h6q1 11 10 11h6q-16 -27 -38 -27v-5h6q17 10 26 10q-5 -10 -5 -16l-11 6v-6q6 0 6 -5q-8 0 -49 -11q-10 0 -37 11q-10 -5 -16 -5q0 10 -16 10l5 11q-19 0 -32 37zM1548 334v16q0 22 91 37h11q29 0 102 -75l10 -5v5q-8 0 -21 22v10q0 38 37 38 q8 0 17 -16v-11h-17v16h-16q-10 -2 -10 -11v-26q6 -19 48 -32q32 7 32 16q-10 -6 -16 -6q-21 8 -21 16v11q1 11 10 11q2 -11 11 -11h11q32 0 32 37q-7 0 -22 33v5q22 0 43 27q9 -27 38 -27v-5q-15 -33 -22 -33q0 -37 32 -37h11l16 11l6 -11v-11q0 -12 -27 -16l-22 11v-5 q38 -16 43 -16q29 0 54 42q-7 27 -16 27h-16v-16h-16v11q0 7 16 16q37 0 37 -38v-10q-21 -24 -21 -27q8 0 75 64q19 16 37 16h11q91 -15 91 -37v-16h-16q0 37 -32 37q-7 -32 -16 -32h-6q0 21 -5 21q-10 -5 -16 -5q0 11 16 11v10q-6 0 -16 6q-16 0 -97 -80h6q80 53 91 53 q-91 -75 -145 -75q-43 0 -85 54v-6q9 -25 42 -53q-42 -15 -42 -43l-11 -5q-15 42 -43 42l-5 11q18 3 42 48v6h-5q0 -36 -86 -54q-37 0 -155 80q-5 0 -5 -5v-16h-6q-10 0 -10 11v5l5 11l-21 5q-22 -3 -22 -37h-16zM1554 500v10q8 0 26 32h27v-21h-11v-11h11v-16h-11v-26 l-5 -11q5 0 5 -6q-5 0 -5 -5q5 0 5 -5h-32v43zM1554 805v21h16q0 -37 16 -37h10q11 0 11 32h5q11 0 11 -21q109 72 155 80q49 0 91 -48v5q-14 23 -37 48l32 22q11 17 11 26h11q0 -37 42 -42v-6q-22 -25 -37 -48v-5q37 48 91 48q47 -8 155 -80v21h16q0 -32 22 -32h5 q11 12 11 37h16v-21q-9 -22 -38 -22h-10l-11 6q0 -8 -16 -16h-22q-34 0 -91 64l-21 16v-5q9 0 21 -32q-6 -27 -16 -27l6 27q0 32 -54 42q-37 -12 -37 -21q17 11 32 11l11 -16v-22l-17 11h-26q-8 0 -16 -16q5 -11 5 -16h-5l21 -38q-32 -5 -32 -26h-22q0 21 -32 21v5 q18 32 22 32l-6 11q6 11 6 16l-16 11h-27l-16 -11q0 11 -5 11q9 27 26 27l11 -6h5v6q-9 0 -32 10q-53 -9 -53 -48l5 -21q-8 0 -16 21q0 17 21 43h-5q-75 -80 -107 -80h-21q-8 0 -17 16l-10 -6h-11q-29 0 -37 22zM1607 457q0 27 54 27q0 8 -22 16v-6q6 0 6 -5h-33v5 q0 12 38 22q8 -6 32 -6v-32h16q0 24 27 38h11q19 0 42 -22q18 15 43 22v-6l11 6q32 -22 32 -48h-53l5 -11l27 5h16v-11q-8 0 -32 -16q-30 6 -49 22h-5q0 -11 -21 -22l-49 11l6 11q-11 0 -11 16h-11l6 -27v-5h-6q-5 0 -5 5l-11 -5h-5q-5 0 -5 5l-11 -5h-27q-4 0 -16 16z M1623 366l113 -64v5q-9 0 -81 69q-5 0 -16 6q-10 -6 -16 -6v-10zM1623 783l22 -5q14 0 101 86q-115 -70 -123 -70v-11zM1677 591v5q1 11 10 11v-6q0 -10 -10 -10zM1703 559v10q0 6 6 6l-6 10v16q11 -5 17 -5v-5h-11v-6q6 0 16 -5v5q-5 0 -5 6h5q11 -2 11 -11q-6 0 -6 -5 l11 -6v6q-5 0 -5 5h5q8 0 21 -21h-5q-5 0 -5 5l-11 -5l-16 10v-5q5 0 5 -5h-27zM1703 612l6 11q-6 0 -6 5q6 0 6 6q-6 0 -6 5q24 13 33 37q-6 11 -6 16h-5q0 -21 -22 -32v16q0 12 6 22q-6 10 -6 16v21h6v-27h5q0 7 6 54l10 -5q0 5 6 5v-11h5v11h11v-27q0 -5 5 -5 q-5 -10 -5 -16v-6h5v11h5v-16q0 -23 -10 -43h10q0 40 16 43v-11h6v11q-6 0 -6 5h6l11 -5v11h5l11 -6v6q16 0 16 -16h5v10q8 0 16 -16q-5 0 -5 -5h5q0 5 5 5l11 -16q0 -5 -5 -5l5 -11v-5q-27 16 -27 37h-5v-5l16 -27v-5l-16 11v-6q8 0 32 -32v-5l-5 -11q5 0 5 -5 q-17 0 -53 -27q0 5 -6 5l16 27v22l-10 -6h-6v16h11l16 -10v10l11 -5v5l-11 6v-6q-8 6 -32 6v10h11q-11 18 -11 32h-5v-10q5 -10 5 -22h-11v22h-5v-22h-6v27h-5q0 -16 -5 -37h-27q-11 -2 -11 -11v-5l16 10q11 -1 11 -10v-6h-5l-11 6q0 -6 -5 -6l16 -32q0 -11 -11 -11 q-38 21 -38 27zM1703 741v16h11v-6q0 -10 -11 -10zM1714 655v5q2 11 11 11v-5q0 -11 -11 -11zM1725 468l11 -6l32 6l10 -6v27l-10 -5h-16q-11 0 -11 16q-16 -6 -16 -32zM1757 789q27 0 27 16h11v-22l-27 -5q-11 0 -11 11zM1805 484h6v5l10 -5h11q0 10 -11 10h-5 q-11 -1 -11 -10zM1805 559v5q0 8 22 21h5l-11 -16h6q0 12 26 16v6h-10v5q2 0 21 5q0 -5 -5 -5l5 -11v-26h-32l5 10h-5q0 -10 -11 -10l-10 5q0 -5 -6 -5zM1805 826q9 6 27 6v5h-21zM1811 323h21v5h-21v-5zM1848 280h11l10 5l6 -26h5l6 26l10 -5h11q-27 29 -27 43h-5 q0 -14 -27 -43zM1853 403q6 -9 6 -21h37q0 12 6 21l-11 -5h-5q0 21 -11 21q-6 -9 -6 -21h-5zM1853 880q22 -27 22 -38h11q0 14 21 38h-21v16h-11q0 -12 -6 -22l-10 6h-6zM1859 757l10 5l6 -21h11l5 21l11 -5v5q-6 10 -6 16h-32zM1869 339h6v11h5v-11h6v16h-6q-11 -2 -11 -11 v-5zM1869 601q17 43 54 43l11 -16v-11l-11 -16h5l11 16l-5 27q10 -1 10 -10v-22l-16 -21h11q0 -11 -11 -11h-5l-27 5v6q3 0 22 5v5q-12 0 -22 6v-16h-5v10h-5v-10l21 -16h32q25 12 38 37v5h-6q0 -21 -16 -21q0 5 -5 5q0 -5 -6 -5l6 27v21l27 6v-27h5q5 53 5 80v5h11 q13 -10 21 -10v-70l16 11v-5q0 -18 -16 -59h11v21q11 -2 11 -11q-6 -10 -6 -16q11 -1 11 -10h-11q-13 10 -21 10l-21 -10q0 5 -6 5l11 21h-5q0 -5 -6 -5v5l6 11h-6q-16 -37 -53 -37h-16q-49 8 -49 42zM1880 660q0 8 16 16h6l-6 -10h6l5 10q-5 0 -5 6q7 0 16 16h-6 q-2 -11 -26 -22v6q0 21 37 21v-5l16 10h5q0 -3 -32 -32q8 -5 32 -5v-5l-37 -6h-27zM1886 617q9 6 21 6v5h-16zM1896 473q0 19 22 43l26 -6q11 0 11 11h-11v5h11l-5 11h27v-96h-49l-10 -6q-22 19 -22 38zM1923 323h21v5h-21v-5zM1928 682q2 10 11 10h5q0 -10 -10 -10h-6z M1928 832q18 0 27 -6v6l-11 5h-16v-5zM1944 692q0 9 22 22v-6q0 -7 -16 -16h-6zM1950 676v6q0 7 27 26h5q-21 -23 -21 -26q5 0 5 -6h-16zM1961 800l10 5h6q0 -16 26 -16q0 -11 -10 -11q-27 0 -32 22zM1966 676h5q11 -1 11 -10v-6h-11q0 6 -5 16zM1971 682q6 10 6 16h5v-22z M1982 462v27q16 27 43 27v-6l10 6q33 -22 33 -48h-54l5 -11l27 5h16v-11q-7 0 -32 -16q-33 0 -48 27zM2009 484h5v5l11 -5h10q0 10 -10 10h-6q-10 -1 -10 -10zM2014 858l96 -80h11q11 5 16 5v11q-9 0 -123 70v-6zM2052 687v5q5 11 5 16h21q-11 -32 -21 -32v6l5 10h-5 q0 -5 -5 -5zM2062 660v6q2 10 11 10v-5q0 -11 -11 -11zM2068 462h16l26 -5v11q-34 0 -42 21q0 14 26 27v-6l11 6q32 -6 32 -16v-6h-10l-27 6l-6 -11q32 0 49 -16l5 11l-5 26h32v-26h5q2 26 16 26v-5l11 5h11q5 0 5 -5l11 5h21v-26h5v26h11q12 0 22 -5q9 5 21 5q0 -5 5 -5v5 q11 -5 16 -5v-32l-5 -27q5 0 5 -5h-21q-11 0 -11 10v6q0 5 6 5q-6 9 -6 27h-5q-11 -2 -11 -11v-37h-27v37h-5q0 -64 -27 -64q-5 0 -16 -5q-17 10 -27 10v11q12 0 22 5q10 -5 16 -5l11 16l-27 -5q-14 0 -32 21l-11 -16h5q0 5 6 5v-10h-11q-5 0 -5 5l-11 -5h-5v16 q-11 -6 -16 -6l5 -10q-6 0 -16 -6q-48 6 -48 27zM2068 644l10 6v-16q-10 0 -10 10zM2068 650v5l21 37v6h-5v-11h-6v16l11 5q0 -5 5 -5q0 5 6 5q0 -5 5 -5q0 5 5 5v-10q0 -15 -10 -32h5l16 10v-5l-5 -11q12 0 16 -37h5l11 48l11 -5h5v5q-11 17 -11 27l16 10h22l10 -5q0 5 6 5 l5 -10v-6l-5 -10q5 0 5 -6h-5q-12 0 -16 27h-6v-11h-5v11h-5v-5q5 -11 5 -16v-6h-5l-6 22h-5v-6l21 -37h-5q-9 5 -21 5l-11 -16v-5l11 -16v-6q0 -10 -11 -10v5l5 11h-10v-16h-27q-11 0 -11 10v6l16 -11v11h-11l6 27v5l-27 5q0 -5 -5 -5q0 5 -6 5q0 -10 -10 -10zM2078 628 q8 22 16 22h6q10 -2 10 -11q-5 0 -5 -5l-11 5h-5v-5l5 -27q-5 0 -16 21zM2084 601v6q10 -2 10 -11v-5q-10 0 -10 10zM2084 666h5l11 21v5h-6q0 -9 -10 -26zM2105 591v5q8 0 16 -16h-5q-11 0 -11 11zM2121 580l32 5q0 -8 -21 -21zM2143 521v16h26q0 -6 6 -16l-11 -5h-5l5 10 h-5q-11 -5 -16 -5zM2159 644v6h10q11 -2 11 -11q-6 0 -16 -5zM2164 596v5q2 11 11 11v-5q0 -11 -11 -11zM2175 612v5q5 10 5 22h5v-22zM2180 671v5q11 -1 11 -10v-6q-11 0 -11 11zM2185 655q11 0 11 -16v-5h-5zM2223 559q0 8 21 21h6q0 -8 -22 -21h-5zM2223 569v6 q2 10 11 10h5q0 -7 -16 -16zM2223 585v6q24 26 59 26v-10h-11v-6h11v-5h-6l-21 5zM2223 617v6q5 29 5 43q-5 10 -5 16q27 -22 32 -22v6q-5 0 -5 5h5l11 -5v5q-11 0 -11 11h5q22 -8 22 -16h-11v-6h11v-5h-11v-5h11v-11q-44 -8 -59 -22zM2223 698v5h5q0 -11 22 -32h-6 q-21 11 -21 27zM2223 725l16 21l-11 -5h-5q0 12 27 16l-6 -11q6 0 6 -5q-11 0 -11 -16h-16zM2223 751v11h16v-5q-6 0 -16 -6zM2244 617v6q4 0 32 5h6v-5q-4 0 -32 -6h-6zM2250 580v5h10v6h-10v5h10q11 -5 16 -5v-6q-10 0 -10 -10q-11 5 -16 5zM2250 703v5h5q7 0 27 -26h-11 q-8 0 -21 21zM2250 746v5q2 0 21 6h5v-6q-10 0 -10 -10q-11 5 -16 5zM2255 559q0 12 27 16v-6q0 -10 -11 -10h-16zM2255 725q0 12 27 16v-6q0 -10 -11 -10h-16zM2266 708h5q11 -1 11 -10h-6q-10 0 -10 10zM2293 569l32 -5v-5h-27zM2293 607h5q11 -2 11 -11h-6q-10 0 -10 11z M2293 676q0 11 21 11v5h-21l5 11q-5 0 -5 5h5q5 0 5 -5l11 5h16l-5 -10h16v-6h-11l5 -10h-10v-6h10q0 6 6 6q5 -11 5 -16v-6h-5v11h-6v-11h-16q0 11 -16 11l6 11l-11 -6h-5zM2298 585v6l27 5v5h-16l5 11q-5 0 -5 5l26 -5l38 11l-6 -11q6 0 6 -5q-10 -6 -22 -6v-5h11 q11 5 16 5h6v-5h-11v-5q6 0 16 -6v6q-5 0 -5 5l10 5h6l-6 -10h6q1 10 10 10h6l-6 -10v-6l6 -26h-6q-102 12 -107 26h-5zM2319 623v5q17 0 38 6q0 -6 -22 -17q-10 6 -16 6zM2325 575h37v5h-37v-5zM2335 559v5h27v-5h-27zM2341 462v27q16 27 43 27v-6l10 6q27 -12 27 -43h5v37 h27v-10h6q0 16 16 16q5 -11 5 -16l-21 -27v-32h-33v27h-53l5 -11l27 5h16v-11q-7 0 -32 -16q-33 0 -48 27zM2346 687q11 0 11 -16v-5h-6zM2357 634v5q10 17 10 27q0 9 -10 32l37 10q0 -12 -27 -16v-10l17 10h10q-6 -53 -21 -53v11h-6q0 -16 -10 -16zM2367 484h6v5l11 -5h10 q0 10 -10 10h-6q-11 -1 -11 -10zM2384 634v5q16 27 16 53v16q32 0 32 -42l-16 -11q0 5 -6 5q0 -26 -16 -26q0 5 -5 5q0 -5 -5 -5zM2416 569v22h5v-22h-5zM2416 666h5v26h-5v-26zM2421 591q2 10 11 10h5v-16q-10 6 -16 6z" />
<glyph unicode="7" d="M51 432v2l75 288h5l251 -432h4l432 247h5q-69 -286 -73 -290l-439 -249h-4zM122 1129q443 199 454 199h2l49 -113v-3l-316 -139l60 -144l282 120h2q45 -96 45 -107l-277 -127l120 -271q-130 -65 -137 -65zM537 679q315 146 322 146l-234 540l138 64l292 -662l-456 -212z " />
<glyph unicode="8" horiz-adv-x="2703" d="M6 7v1007q2 10 11 10h262q0 -85 27 -85q36 21 80 27q75 -25 75 -75q-15 -108 -27 -108q6 -10 6 -16h5q18 16 27 16q17 -10 32 -10q0 5 27 27l10 -6h22l11 6q0 6 -33 42q14 11 22 11q118 -58 118 -91q0 -16 5 -16l-5 -11q10 -21 10 -37q-3 -54 -16 -54q-10 28 -10 43 q-99 -25 -145 -59v-5q0 -12 27 -16q7 27 37 27h27q11 -2 11 -11v-11q-2 -10 -97 -59q-75 24 -75 59l-48 54l-10 -6q26 -87 91 -112q27 -19 58 -27q6 0 6 5q40 -10 48 -10q42 3 102 48q10 -5 16 -5v-6q0 -25 -38 -53q27 0 54 -32v-6q-9 -21 -38 -21h-53q-11 -2 -11 -11v-11 q56 -55 70 -96q46 -12 139 -96h11v160q-27 101 -27 214q133 -150 166 -150q193 -36 193 -69q48 -20 139 -220q44 -138 53 -139h1302v985h-1810q9 -40 27 -85q-14 -123 -43 -123h-6l-16 10h-5l-5 -27q10 -80 10 -133l-5 -27h-5v53q0 46 -11 70l5 11q-5 10 -5 16q5 0 5 5h-5 q5 10 5 16l-5 11q0 15 48 32l5 32v27l-10 -5l-32 42q0 14 21 16l27 -16q-7 49 -22 49q-34 -24 -42 -49l5 -10v-22l-5 -27h-17q0 6 -5 17q0 5 5 5l-32 128h1933v-1017h-1472q0 16 -22 27v-6l11 -21h-139l21 21l-10 6h-11q-11 0 -11 -27h-96q0 21 -22 32q-48 0 -48 -32h-59v5 h11v6q0 10 -11 10h-5q-13 0 -16 -21h-75v11h-5v-11h-108v11q13 26 49 53q10 -1 10 -10v-6q0 -4 -32 -32v-5h11q43 25 43 32v5q0 8 -32 32q-10 0 -75 -80h-584zM22 125h5q69 125 279 268l37 53q0 16 54 113v10q0 52 -64 123q-28 140 -81 193q-16 98 -16 123h-214v-883z M301 832q21 -35 32 -97h26l22 -32q0 13 37 91q6 30 6 43h-6q-53 -11 -53 -16l-27 16q-10 -5 -16 -5q-10 5 -16 5q0 -5 -5 -5zM461 960v6q78 58 107 58h54v-10q-40 0 -59 -32v-16l21 -6q28 16 65 16q10 -5 16 -5v-5q-4 -13 -75 -33v-5h37v-11q-2 -13 -69 -32q-54 4 -54 27 l5 37h-26q-13 11 -22 11zM483 660q10 0 10 -5q96 28 140 59q0 11 -11 11h-27q-108 -45 -112 -54v-11zM520 730q78 21 91 21v-5q9 5 27 5v22l-54 16l-64 -48v-11zM895 7q0 13 21 16q32 -5 32 -16h-53zM1002 189q3 -16 37 -16v-16q-32 -3 -32 -16v-22l11 -16l27 22q8 0 32 -27 q12 0 16 27h5q24 -22 27 -22l11 6q10 -6 16 -6v16q0 8 -102 97q-48 -11 -48 -22v-5zM1013 34h10q8 0 16 16l-5 11q-21 -8 -21 -17v-10zM1050 275q0 -11 107 -113q0 -21 32 -26q19 0 27 53q-11 24 -16 59h-11q0 -16 -5 -16q-26 13 -48 70q-45 68 -59 69q-9 -55 -27 -75v-21z M1088 61q1 -11 10 -11h6v5q0 11 -11 11h-5v-5zM1109 387q30 0 70 -102h5v22q0 5 -5 5q5 11 5 16q-4 28 -59 70h-5q-11 -2 -11 -11zM1136 71q3 -32 16 -32h5q0 22 11 22l21 -22v11q0 8 -21 27q-8 -6 -32 -6zM1216 66q11 -13 11 -22h11q10 0 10 11q-2 11 -26 22zM1248 494 l6 11q-6 0 -6 5q16 0 16 16v6h6q5 0 5 -6l11 6h5v-22h38q12 0 16 -37h5l5 37h6q5 0 5 -5l32 11q0 -9 22 -22h5v6h-11q0 8 22 16v-11l10 5h11q0 -5 6 -16q-6 0 -6 -5h11q21 27 53 27q23 -8 33 -27v-21h-54v-6q11 0 11 -5l10 5h33q-5 -16 -38 -27q-43 7 -43 38h-5 q0 -22 -16 -22l5 -10l-11 -6h-16v6h11v5q-35 -5 -53 -16v11q0 4 5 32q-5 10 -5 16q5 0 5 5q-5 0 -5 6q5 0 5 5h-11q-20 -91 -43 -91v-5h-5l-11 5q0 -5 -5 -5l-5 10v16h16v16q-15 43 -27 43q-5 0 -5 11h-6v-43h16v-5l-5 -11q5 0 5 -5q-5 0 -16 -6q-23 6 -32 33l5 10l-5 11 l11 5q0 -5 5 -5v5q-5 0 -5 6l-11 -6h-11zM1297 569l32 -5v-5h-27zM1297 607h5q11 -2 11 -11h-6q-10 0 -10 11zM1297 676q0 11 21 11v5h-21l5 11q-5 0 -5 5h5q5 0 5 -5l11 5h16l-5 -10h16v-6h-11l5 -10h-10v-6h10q0 6 6 6q5 -11 5 -16v-6h-5v11h-6v-11h-16q0 11 -16 11l6 11 l-11 -6h-5zM1302 585v6l27 5v5h-16l5 11q-5 0 -5 5l26 -5l38 11l-6 -11q6 0 6 -5q-10 -6 -22 -6v-5h11q11 5 16 5h6v-5h-11v-5q6 0 16 -6v6q-5 0 -5 5l10 5h6l-6 -10h6q1 10 10 10h6l-6 -10v-6l6 -26h-6q-102 12 -107 26h-5zM1323 623v5q17 0 38 6q0 -6 -22 -17q-10 6 -16 6 zM1329 575h37v5h-37v-5zM1339 559v5h27v-5h-27zM1350 687q11 0 11 -16v-5h-6zM1361 634v5q10 17 10 27q0 9 -10 32l37 10q0 -12 -27 -16v-10l17 10h10q-6 -53 -21 -53v11h-6q0 -16 -10 -16zM1388 414v5q5 16 32 16v-16h-11l-11 6q0 -11 -10 -11zM1388 634v5q16 27 16 53v16 q32 0 32 -42l-16 -11q0 5 -6 5q0 -26 -16 -26q0 5 -5 5q0 -5 -5 -5zM1420 569v22h5v-22h-5zM1420 666h5v26h-5v-26zM1425 591q2 10 11 10h5v-16q-10 6 -16 6zM1446 559q0 8 22 21h5q0 -8 -21 -21h-6zM1446 569v6q2 10 11 10h6q0 -7 -17 -16zM1446 585v6q24 26 59 26v-10h-10 v-6h10v-5h-5l-21 5zM1446 617v6q6 29 6 43q-6 10 -6 16q28 -22 33 -22v6q-6 0 -6 5h6l10 -5v5q-10 0 -10 11h5q21 -8 21 -16h-10v-6h10v-5h-10v-5h10v-11q-44 -8 -59 -22zM1446 698v5h6q0 -11 21 -32h-5q-22 11 -22 27zM1446 725l17 21l-11 -5h-6q0 12 27 16l-5 -11 q5 0 5 -5q-10 0 -10 -16h-17zM1446 751v11h17v-5q-6 0 -17 -6zM1468 617v6q28 5 32 5h5v-5q-28 -6 -32 -6h-5zM1473 580v5h11v6h-11v5h11q10 -5 16 -5v-6q-11 0 -11 -10q-10 5 -16 5zM1473 703v5h6q7 0 26 -26h-10q-9 0 -22 21zM1473 746v5q3 0 22 6h5v-6q-11 0 -11 -10 q-10 5 -16 5zM1479 559q0 12 26 16v-6q0 -10 -10 -10h-16zM1479 725q0 12 26 16v-6q0 -10 -10 -10h-16zM1489 708h6q10 -1 10 -10h-5q-11 0 -11 10zM1500 484h5v5l11 -5h5q0 10 -10 10q-11 -1 -11 -10zM1516 617h5l11 -5q0 6 5 16h-5v-5q-10 5 -16 5v11l5 11q-5 0 -5 5 q11 0 11 16h5q0 -12 16 -32v-5l-16 10v-5q24 -22 27 -22v6q-11 0 -11 11h6l16 -11v5q-38 28 -38 54l16 10q0 -5 6 -5q0 21 26 21h6l-6 -10v-22l6 -10q-11 0 -11 -11q-12 0 -16 27h-5v-6q21 -42 58 -42q22 0 33 21h-6q-5 -16 -32 -16q-10 5 -16 5v11l11 -5h21q8 0 16 16v5 l-10 -5h-6l-16 10q0 -5 -5 -5q0 5 -6 5q0 -5 -5 -5l-5 11v10q1 11 10 11v-11l11 6q0 -6 5 -6v6q-5 0 -5 5l11 5h21l-5 -10l11 5q42 -23 42 -64v-11q0 -11 -10 -11v38h-6q0 -24 -26 -38h-6l6 11q-18 -11 -33 -11h-10l-27 6q7 -27 27 -27v-5h-16v-6h16q24 11 27 22 q10 -6 16 -6q10 6 16 6l-6 -11h6q1 11 10 11h6q-16 -27 -38 -27v-5h6q17 10 26 10q-5 -10 -5 -16l-11 6v-6q6 0 6 -5q-8 0 -49 -11q-10 0 -37 11q-10 -5 -16 -5q0 10 -16 10l5 11q-19 0 -32 37zM1548 334v16q0 22 91 37h11q29 0 102 -75l10 -5v5q-8 0 -21 22v10q0 38 37 38 q8 0 17 -16v-11h-17v16h-16q-10 -2 -10 -11v-26q6 -19 48 -32q32 7 32 16q-10 -6 -16 -6q-21 8 -21 16v11q1 11 10 11q2 -11 11 -11h11q32 0 32 37q-7 0 -22 33v5q22 0 43 27q9 -27 38 -27v-5q-15 -33 -22 -33q0 -37 32 -37h11l16 11l6 -11v-11q0 -12 -27 -16l-22 11v-5 q38 -16 43 -16q29 0 54 42q-7 27 -16 27h-16v-16h-16v11q0 7 16 16q37 0 37 -38v-10q-21 -24 -21 -27q8 0 75 64q19 16 37 16h11q91 -15 91 -37v-16h-16q0 37 -32 37q-7 -32 -16 -32h-6q0 21 -5 21q-10 -5 -16 -5q0 11 16 11v10q-6 0 -16 6q-16 0 -97 -80h6q80 53 91 53 q-91 -75 -145 -75q-43 0 -85 54v-6q9 -25 42 -53q-42 -15 -42 -43l-11 -5q-15 42 -43 42l-5 11q18 3 42 48v6h-5q0 -36 -86 -54q-37 0 -155 80q-5 0 -5 -5v-16h-6q-10 0 -10 11v5l5 11l-21 5q-22 -3 -22 -37h-16zM1554 500v10q8 0 26 32h27v-21h-11v-11h11v-16h-11v-26 l-5 -11q5 0 5 -6q-5 0 -5 -5q5 0 5 -5h-32v43zM1554 805v21h16q0 -37 16 -37h10q11 0 11 32h5q11 0 11 -21q109 72 155 80q49 0 91 -48v5q-14 23 -37 48l32 22q11 17 11 26h11q0 -37 42 -42v-6q-22 -25 -37 -48v-5q37 48 91 48q47 -8 155 -80v21h16q0 -32 22 -32h5 q11 12 11 37h16v-21q-9 -22 -38 -22h-10l-11 6q0 -8 -16 -16h-22q-34 0 -91 64l-21 16v-5q9 0 21 -32q-6 -27 -16 -27l6 27q0 32 -54 42q-37 -12 -37 -21q17 11 32 11l11 -16v-22l-17 11h-26q-8 0 -16 -16q5 -11 5 -16h-5l21 -38q-32 -5 -32 -26h-22q0 21 -32 21v5 q18 32 22 32l-6 11q6 11 6 16l-16 11h-27l-16 -11q0 11 -5 11q9 27 26 27l11 -6h5v6q-9 0 -32 10q-53 -9 -53 -48l5 -21q-8 0 -16 21q0 17 21 43h-5q-75 -80 -107 -80h-21q-8 0 -17 16l-10 -6h-11q-29 0 -37 22zM1607 457q0 27 54 27q0 8 -22 16v-6q6 0 6 -5h-33v5 q0 12 38 22q8 -6 32 -6v-32h16q0 24 27 38h11q19 0 42 -22q18 15 43 22v-6l11 6q32 -22 32 -48h-53l5 -11l27 5h16v-11q-8 0 -32 -16q-30 6 -49 22h-5q0 -11 -21 -22l-49 11l6 11q-11 0 -11 16h-11l6 -27v-5h-6q-5 0 -5 5l-11 -5h-5q-5 0 -5 5l-11 -5h-27q-4 0 -16 16z M1623 366l113 -64v5q-9 0 -81 69q-5 0 -16 6q-10 -6 -16 -6v-10zM1623 783l22 -5q14 0 101 86q-115 -70 -123 -70v-11zM1677 591v5q1 11 10 11v-6q0 -10 -10 -10zM1703 559v10q0 6 6 6l-6 10v16q11 -5 17 -5v-5h-11v-6q6 0 16 -5v5q-5 0 -5 6h5q11 -2 11 -11q-6 0 -6 -5 l11 -6v6q-5 0 -5 5h5q8 0 21 -21h-5q-5 0 -5 5l-11 -5l-16 10v-5q5 0 5 -5h-27zM1703 612l6 11q-6 0 -6 5q6 0 6 6q-6 0 -6 5q24 13 33 37q-6 11 -6 16h-5q0 -21 -22 -32v16q0 12 6 22q-6 10 -6 16v21h6v-27h5q0 7 6 54l10 -5q0 5 6 5v-11h5v11h11v-27q0 -5 5 -5 q-5 -10 -5 -16v-6h5v11h5v-16q0 -23 -10 -43h10q0 40 16 43v-11h6v11q-6 0 -6 5h6l11 -5v11h5l11 -6v6q16 0 16 -16h5v10q8 0 16 -16q-5 0 -5 -5h5q0 5 5 5l11 -16q0 -5 -5 -5l5 -11v-5q-27 16 -27 37h-5v-5l16 -27v-5l-16 11v-6q8 0 32 -32v-5l-5 -11q5 0 5 -5 q-17 0 -53 -27q0 5 -6 5l16 27v22l-10 -6h-6v16h11l16 -10v10l11 -5v5l-11 6v-6q-8 6 -32 6v10h11q-11 18 -11 32h-5v-10q5 -10 5 -22h-11v22h-5v-22h-6v27h-5q0 -16 -5 -37h-27q-11 -2 -11 -11v-5l16 10q11 -1 11 -10v-6h-5l-11 6q0 -6 -5 -6l16 -32q0 -11 -11 -11 q-38 21 -38 27zM1703 741v16h11v-6q0 -10 -11 -10zM1714 655v5q2 11 11 11v-5q0 -11 -11 -11zM1725 468l11 -6l32 6l10 -6v27l-10 -5h-16q-11 0 -11 16q-16 -6 -16 -32zM1757 789q27 0 27 16h11v-22l-27 -5q-11 0 -11 11zM1805 484h6v5l10 -5h11q0 10 -11 10h-5 q-11 -1 -11 -10zM1805 559v5q0 8 22 21h5l-11 -16h6q0 12 26 16v6h-10v5q2 0 21 5q0 -5 -5 -5l5 -11v-26h-32l5 10h-5q0 -10 -11 -10l-10 5q0 -5 -6 -5zM1805 826q9 6 27 6v5h-21zM1811 323h21v5h-21v-5zM1848 280h11l10 5l6 -26h5l6 26l10 -5h11q-27 29 -27 43h-5 q0 -14 -27 -43zM1853 403q6 -9 6 -21h37q0 12 6 21l-11 -5h-5q0 21 -11 21q-6 -9 -6 -21h-5zM1853 880q22 -27 22 -38h11q0 14 21 38h-21v16h-11q0 -12 -6 -22l-10 6h-6zM1859 757l10 5l6 -21h11l5 21l11 -5v5q-6 10 -6 16h-32zM1869 339h6v11h5v-11h6v16h-6q-11 -2 -11 -11 v-5zM1869 601q17 43 54 43l11 -16v-11l-11 -16h5l11 16l-5 27q10 -1 10 -10v-22l-16 -21h11q0 -11 -11 -11h-5l-27 5v6q3 0 22 5v5q-12 0 -22 6v-16h-5v10h-5v-10l21 -16h32q25 12 38 37v5h-6q0 -21 -16 -21q0 5 -5 5q0 -5 -6 -5l6 27v21l27 6v-27h5q5 53 5 80v5h11 q13 -10 21 -10v-70l16 11v-5q0 -18 -16 -59h11v21q11 -2 11 -11q-6 -10 -6 -16q11 -1 11 -10h-11q-13 10 -21 10l-21 -10q0 5 -6 5l11 21h-5q0 -5 -6 -5v5l6 11h-6q-16 -37 -53 -37h-16q-49 8 -49 42zM1880 660q0 8 16 16h6l-6 -10h6l5 10q-5 0 -5 6q7 0 16 16h-6 q-2 -11 -26 -22v6q0 21 37 21v-5l16 10h5q0 -3 -32 -32q8 -5 32 -5v-5l-37 -6h-27zM1886 617q9 6 21 6v5h-16zM1896 473q0 19 22 43l26 -6q11 0 11 11h-11v5h11l-5 11h27v-96h-49l-10 -6q-22 19 -22 38zM1923 323h21v5h-21v-5zM1928 682q2 10 11 10h5q0 -10 -10 -10h-6z M1928 832q18 0 27 -6v6l-11 5h-16v-5zM1944 692q0 9 22 22v-6q0 -7 -16 -16h-6zM1950 676v6q0 7 27 26h5q-21 -23 -21 -26q5 0 5 -6h-16zM1961 800l10 5h6q0 -16 26 -16q0 -11 -10 -11q-27 0 -32 22zM1966 676h5q11 -1 11 -10v-6h-11q0 6 -5 16zM1971 682q6 10 6 16h5v-22z M1982 462v27q16 27 43 27v-6l10 6q33 -22 33 -48h-54l5 -11l27 5h16v-11q-7 0 -32 -16q-33 0 -48 27zM2009 484h5v5l11 -5h10q0 10 -10 10h-6q-10 -1 -10 -10zM2014 858l96 -80h11q11 5 16 5v11q-9 0 -123 70v-6zM2052 687v5q5 11 5 16h21q-11 -32 -21 -32v6l5 10h-5 q0 -5 -5 -5zM2062 660v6q2 10 11 10v-5q0 -11 -11 -11zM2068 462h16l26 -5v11q-34 0 -42 21q0 14 26 27v-6l11 6q32 -6 32 -16v-6h-10l-27 6l-6 -11q32 0 49 -16l5 11l-5 26h32v-26h5q2 26 16 26v-5l11 5h11q5 0 5 -5l11 5h21v-26h5v26h11q12 0 22 -5q9 5 21 5q0 -5 5 -5v5 q11 -5 16 -5v-32l-5 -27q5 0 5 -5h-21q-11 0 -11 10v6q0 5 6 5q-6 9 -6 27h-5q-11 -2 -11 -11v-37h-27v37h-5q0 -64 -27 -64q-5 0 -16 -5q-17 10 -27 10v11q12 0 22 5q10 -5 16 -5l11 16l-27 -5q-14 0 -32 21l-11 -16h5q0 5 6 5v-10h-11q-5 0 -5 5l-11 -5h-5v16 q-11 -6 -16 -6l5 -10q-6 0 -16 -6q-48 6 -48 27zM2068 644l10 6v-16q-10 0 -10 10zM2068 650v5l21 37v6h-5v-11h-6v16l11 5q0 -5 5 -5q0 5 6 5q0 -5 5 -5q0 5 5 5v-10q0 -15 -10 -32h5l16 10v-5l-5 -11q12 0 16 -37h5l11 48l11 -5h5v5q-11 17 -11 27l16 10h22l10 -5q0 5 6 5 l5 -10v-6l-5 -10q5 0 5 -6h-5q-12 0 -16 27h-6v-11h-5v11h-5v-5q5 -11 5 -16v-6h-5l-6 22h-5v-6l21 -37h-5q-9 5 -21 5l-11 -16v-5l11 -16v-6q0 -10 -11 -10v5l5 11h-10v-16h-27q-11 0 -11 10v6l16 -11v11h-11l6 27v5l-27 5q0 -5 -5 -5q0 5 -6 5q0 -10 -10 -10zM2078 628 q8 22 16 22h6q10 -2 10 -11q-5 0 -5 -5l-11 5h-5v-5l5 -27q-5 0 -16 21zM2084 601v6q10 -2 10 -11v-5q-10 0 -10 10zM2084 666h5l11 21v5h-6q0 -9 -10 -26zM2105 591v5q8 0 16 -16h-5q-11 0 -11 11zM2121 580l32 5q0 -8 -21 -21zM2143 521v16h26q0 -6 6 -16l-11 -5h-5l5 10 h-5q-11 -5 -16 -5zM2159 644v6h10q11 -2 11 -11q-6 0 -16 -5zM2164 596v5q2 11 11 11v-5q0 -11 -11 -11zM2175 612v5q5 10 5 22h5v-22zM2180 671v5q11 -1 11 -10v-6q-11 0 -11 11zM2185 655q11 0 11 -16v-5h-5zM2223 559q0 8 21 21h6q0 -8 -22 -21h-5zM2223 569v6 q2 10 11 10h5q0 -7 -16 -16zM2223 585v6q24 26 59 26v-10h-11v-6h11v-5h-6l-21 5zM2223 617v6q5 29 5 43q-5 10 -5 16q27 -22 32 -22v6q-5 0 -5 5h5l11 -5v5q-11 0 -11 11h5q22 -8 22 -16h-11v-6h11v-5h-11v-5h11v-11q-44 -8 -59 -22zM2223 698v5h5q0 -11 22 -32h-6 q-21 11 -21 27zM2223 725l16 21l-11 -5h-5q0 12 27 16l-6 -11q6 0 6 -5q-11 0 -11 -16h-16zM2223 751v11h16v-5q-6 0 -16 -6zM2244 617v6q4 0 32 5h6v-5q-4 0 -32 -6h-6zM2250 580v5h10v6h-10v5h10q11 -5 16 -5v-6q-10 0 -10 -10q-11 5 -16 5zM2250 703v5h5q7 0 27 -26h-11 q-8 0 -21 21zM2250 746v5q2 0 21 6h5v-6q-10 0 -10 -10q-11 5 -16 5zM2255 559q0 12 27 16v-6q0 -10 -11 -10h-16zM2255 725q0 12 27 16v-6q0 -10 -11 -10h-16zM2266 708h5q11 -1 11 -10h-6q-10 0 -10 10zM2293 569l32 -5v-5h-27zM2293 607h5q11 -2 11 -11h-6q-10 0 -10 11z M2293 676q0 11 21 11v5h-21l5 11q-5 0 -5 5h5q5 0 5 -5l11 5h16l-5 -10h16v-6h-11l5 -10h-10v-6h10q0 6 6 6q5 -11 5 -16v-6h-5v11h-6v-11h-16q0 11 -16 11l6 11l-11 -6h-5zM2298 585v6l27 5v5h-16l5 11q-5 0 -5 5l26 -5l38 11l-6 -11q6 0 6 -5q-10 -6 -22 -6v-5h11 q11 5 16 5h6v-5h-11v-5q6 0 16 -6v6q-5 0 -5 5l10 5h6l-6 -10h6q1 10 10 10h6l-6 -10v-6l6 -26h-6q-102 12 -107 26h-5zM2319 623v5q17 0 38 6q0 -6 -22 -17q-10 6 -16 6zM2325 575h37v5h-37v-5zM2335 559v5h27v-5h-27zM2341 462v27q16 27 43 27v-6l10 6q27 -12 27 -43h5v37 h27v-10h6q0 16 16 16q5 -11 5 -16l-21 -27v-32h-33v27h-53l5 -11l27 5h16v-11q-7 0 -32 -16q-33 0 -48 27zM2346 687q11 0 11 -16v-5h-6zM2357 634v5q10 17 10 27q0 9 -10 32l37 10q0 -12 -27 -16v-10l17 10h10q-6 -53 -21 -53v11h-6q0 -16 -10 -16zM2367 484h6v5l11 -5h10 q0 10 -10 10h-6q-11 -1 -11 -10zM2384 634v5q16 27 16 53v16q32 0 32 -42l-16 -11q0 5 -6 5q0 -26 -16 -26q0 5 -5 5q0 -5 -5 -5zM2416 569v22h5v-22h-5zM2416 666h5v26h-5v-26zM2421 591q2 10 11 10h5v-16q-10 6 -16 6z" />
<glyph unicode="9" horiz-adv-x="891" d="M24 808q0 165 91 268q106 119 312 119q251 0 342 -146q88 -143 88 -456q0 -319 -96 -457q-93 -146 -387 -146q-117 0 -260 52l8 34q109 -17 215 -17q178 0 252 119q63 102 63 320q-113 -78 -288 -78q-340 0 -340 388zM194 808q0 -319 225 -319q129 0 233 86 q0 297 -52 424q-51 127 -173 127q-119 0 -179 -97q-54 -85 -54 -221z" />
<glyph unicode=":" horiz-adv-x="557" />
<glyph unicode=";" horiz-adv-x="557" />
<glyph unicode="&#x3c;" d="M51 432v2l75 288h5l251 -432h4l432 247h5q-69 -286 -73 -290l-439 -249h-4zM122 1129q443 199 454 199h2l49 -113v-3l-316 -139l60 -144l282 120h2q45 -96 45 -107l-277 -127l120 -271q-130 -65 -137 -65zM537 679q315 146 322 146l-234 540l138 64l292 -662l-456 -212z " />
<glyph unicode="=" horiz-adv-x="1707" />
<glyph unicode="&#x3e;" d="M51 432v2l75 288h5l251 -432h4l432 247h5q-69 -286 -73 -290l-439 -249h-4zM122 1129q443 199 454 199h2l49 -113v-3l-316 -139l60 -144l282 120h2q45 -96 45 -107l-277 -127l120 -271q-130 -65 -137 -65zM537 679q315 146 322 146l-234 540l138 64l292 -662l-456 -212z " />
<glyph unicode="?" horiz-adv-x="954" d="M40 963q0 204 51 266q133 164 391 164q162 0 267 -72q143 -98 143 -317q0 -185 -211 -369q-215 -189 -219 -316h-82q6 170 158 353q149 180 149 332q0 147 -80 231q-71 76 -186 76q-125 0 -215 -90q-94 -93 -125 -258h-41zM310 84q0 47 31 80q33 33 80 33t80 -33t33 -80 q0 -45 -35 -78q-33 -33 -78 -33q-47 0 -80 33q-31 33 -31 78z" />
<glyph unicode="@" d="M51 432v2l75 288h5l251 -432h4l432 247h5q-69 -286 -73 -290l-439 -249h-4zM122 1129q443 199 454 199h2l49 -113v-3l-316 -139l60 -144l282 120h2q45 -96 45 -107l-277 -127l120 -271q-130 -65 -137 -65zM537 679q315 146 322 146l-234 540l138 64l292 -662l-456 -212z " />
<glyph unicode="A" horiz-adv-x="1540" d="M94 947q0 68 33 144q56 119 183 170q79 30 155 30q115 0 247 -78l29 -18q11 4 25 18q13 18 13 37q0 27 -32 37l-11 1l-13 -2v1q0 4 11 11q11 6 22 6t27 -7v1q-17 25 -49 25q-25 0 -42 -22v1q15 32 45 42q14 5 27 5h6q48 0 67 -42q10 -24 10 -52v-1q0 -67 -38 -100l-4 -5 q40 -35 59 -59q24 -31 24 -34h1q10 18 21 54q13 50 13 100v7q0 66 -21 107q-10 15 -29 34q-24 20 -54 20h-14q-19 -1 -54 -29q38 46 49 46q16 7 36 7q17 0 75 -13q10 -1 18 -1q32 0 52 27q0 -14 -13 -33q-9 -12 -31 -18l-13 -2q36 -40 53 -94q15 -38 15 -122v-7l-1 -52 q41 44 54 51q36 28 63 42q99 52 213 52q98 0 159 -54q22 -24 26 -40q12 -28 12 -52v-1q0 -48 -51 -63l-18 -2q-31 0 -49 24q-5 11 -5 18q0 15 16 23l4 1q10 0 13 -13q0 -11 -11 -11q-10 1 -10 6q-2 -1 -2 -4q0 -17 20 -23h5q22 0 38 26q3 8 3 16q0 29 -37 57q-49 32 -127 32 q-47 0 -85 -13v-1h19q72 0 100 -23q29 -22 35 -43q4 -11 4 -21v-5q0 -26 -26 -45q-10 -6 -14 -6h-1v1q21 14 21 29l1 14q0 29 -15 41q-16 17 -45 26q-24 8 -55 8q-51 0 -100 -16q20 2 39 2h5q49 0 82 -24q27 -22 27 -57q0 -11 -4 -22h-1v10q0 47 -32 61q-34 15 -77 15h-4 q-71 0 -136 -47q-38 -27 -54 -79q-11 -35 -11 -68v-6q0 -77 54 -132q36 -29 68 -35v-1q-36 0 -78 33q-27 25 -33 36q-15 24 -15 27h-1v-1q7 -68 52 -144q17 -30 61 -82l25 -27q-28 17 -72 57q-42 42 -51 57q-16 21 -25 39q-8 15 -13 29h-1q-19 -71 -19 -152v-5 q0 -122 30 -204q20 -54 48 -111q13 -23 13 -25q-19 19 -35 43q-35 55 -59 121q-32 92 -32 168v21q-2 -41 -3 -85q0 -300 139 -487q16 -21 40 -46h-1q-21 12 -62 50q-48 52 -71 91q-35 57 -58 118q-19 46 -35 117q-13 63 -13 85q-5 42 -5 120v18q0 60 10 102q-45 -28 -76 -35 h-1q16 9 44 35q31 35 39 53q-44 -40 -77 -58q-33 -20 -89 -42q-43 -17 -98 -30v1q83 34 149 81q57 42 90 91q21 34 32 59q13 34 13 38q-89 -70 -204 -70q-140 0 -206 109q-6 11 -6 13q10 -13 28 -30q68 -60 148 -60q97 0 175 67l4 4q-33 -21 -71 -35q-50 -17 -84 -17h-10 q-53 0 -100 33q-21 17 -21 32q4 16 13 16h1q11 0 15 -10v-2q-2 -11 -10 -11h-1q-6 0 -9 6v-2q0 -28 73 -51q18 -3 31 -3h8q48 0 108 24q43 20 87 61q23 24 23 26l-1 3q-46 -43 -71 -57q-28 -18 -49 -24v1q32 16 85 60q30 27 30 30q-18 34 -39 64q-25 30 -53 52 q-38 -15 -78 -15q-35 0 -90 15q-55 11 -90 11q-78 0 -99 -51q-5 -13 -5 -25v-5q0 -25 20 -47q15 -12 29 -12h3q16 0 24 23v3l-1 6q-6 -6 -12 -6q-12 2 -12 11v2q0 10 13 12h1q14 0 18 -22v-7q0 -29 -35 -39l-16 -2q-44 0 -72 49q-11 23 -11 43v5q0 36 30 69q21 19 40 26 q22 10 47 15l5 1v1h-14q-77 0 -128 -44q-22 -23 -26 -33q-8 -13 -15 -34q-3 -16 -4 -16v3q0 69 76 115q47 25 122 25h6q59 0 135 -16l24 -1h18v1q-91 42 -181 42h-2q-155 0 -252 -117q-42 -53 -54 -107q-3 -16 -3 -40q0 -89 45 -150q-29 19 -44 67q-12 40 -12 77 q0 114 87 202l18 16q-77 -41 -118 -128q-23 -50 -23 -99v-7q0 -93 80 -168q23 -19 33 -23v-1q-27 5 -56 27q-85 67 -85 175z" />
<glyph unicode="B" horiz-adv-x="1219" d="M146 438v2l75 288h5l251 -432h4l432 247h5q-69 -286 -73 -290l-439 -249h-4zM217 1135q443 199 454 199h2l49 -113v-3l-316 -139l60 -144l282 120h2q45 -96 45 -107l-277 -127l120 -271q-130 -65 -137 -65zM632 685q315 146 322 146l-234 540l138 64l292 -662l-456 -212z " />
<glyph unicode="C" d="M51 432v2l75 288h5l251 -432h4l432 247h5q-69 -286 -73 -290l-439 -249h-4zM122 1129q443 199 454 199h2l49 -113v-3l-316 -139l60 -144l282 120h2q45 -96 45 -107l-277 -127l120 -271q-130 -65 -137 -65zM537 679q315 146 322 146l-234 540l138 64l292 -662l-456 -212z " />
<glyph unicode="D" horiz-adv-x="1518" d="M15 959q0 70 33 147q57 120 186 172q80 31 157 31q117 0 250 -80l29 -18q12 4 26 18q13 19 13 37q0 29 -33 38l-10 1l-14 -2v1q0 4 12 12q11 5 21 5q12 0 28 -6q-17 25 -49 25q-26 0 -43 -21q16 33 46 43q14 5 27 5h6q49 0 68 -42q10 -24 10 -53v-2q0 -67 -38 -101l-4 -5 q40 -35 59 -60q25 -31 25 -34q11 18 21 55q14 50 14 101v7q0 67 -22 108q-9 16 -28 35q-25 20 -55 20h-14q-20 -1 -55 -29q38 47 50 47q15 7 36 7q18 0 76 -13q10 -1 18 -1q33 0 52 27h1q0 -15 -13 -34q-9 -12 -32 -18l-13 -1q36 -41 54 -96q15 -39 15 -124v-7l-1 -52 q42 44 54 51q37 28 65 43q100 53 216 53q99 0 160 -55q23 -25 27 -41q12 -28 12 -52v-2q0 -48 -52 -63q-8 -2 -18 -2q-31 0 -50 24q-5 11 -5 18q0 16 17 24l4 1q10 0 13 -13v-1q0 -11 -12 -11q-10 1 -10 6q-1 0 -1 -4q0 -17 20 -23h5q22 0 38 26q4 9 4 17q0 29 -38 57 q-50 33 -129 33q-48 0 -86 -14h19q73 0 102 -23q29 -24 35 -44q4 -11 4 -21v-6q0 -26 -26 -45q-11 -6 -15 -6q21 14 21 30v14q0 29 -15 42q-15 17 -45 26q-24 8 -55 8q-53 0 -102 -16q20 2 40 2h4q50 0 84 -24q27 -23 27 -58q0 -11 -4 -23h-1v10q0 48 -33 62q-34 15 -78 15 h-4q-71 0 -137 -46q-38 -29 -55 -81q-11 -36 -11 -69v-6q0 -78 55 -133q36 -31 68 -36v-1q-36 0 -79 33q-27 26 -33 37q-15 24 -15 27h-1v-1q7 -68 52 -146q18 -30 62 -83l26 -27h-1q-27 17 -72 57q-43 43 -52 58q-16 21 -26 40q-7 15 -13 29h-1q-19 -72 -19 -154v-5 q0 -123 31 -207q20 -55 49 -112q12 -24 12 -26q-19 19 -35 44q-36 56 -60 122q-32 94 -32 171v22q-3 -42 -3 -87q0 -304 140 -493q17 -21 41 -47h-1q-21 12 -63 51q-49 53 -71 92q-36 58 -59 119q-19 47 -36 119q-13 64 -14 86q-4 43 -4 122v18q0 61 10 104q-46 -29 -77 -36 h-1q17 9 44 35q32 36 40 54q-44 -40 -78 -58q-33 -21 -90 -43q-44 -18 -100 -31v1q84 35 152 83q57 42 90 92q22 34 33 60q13 34 13 38q-90 -71 -207 -71q-142 0 -208 110q-6 12 -6 14q10 -14 28 -31q69 -60 150 -60q99 0 178 67l4 4q-34 -21 -72 -35q-51 -18 -85 -18h-10 q-55 0 -102 34q-21 18 -21 33q3 16 13 16h1q11 0 15 -11v-2q-2 -11 -10 -11h-1q-6 0 -9 7v-2q0 -29 74 -52q18 -4 32 -4h8q48 0 109 25q44 21 88 62q24 24 24 26l-2 3q-46 -43 -72 -57q-29 -18 -49 -25v1q32 17 86 61q30 28 30 30q-18 35 -40 65q-25 30 -53 53 q-39 -16 -79 -16q-35 0 -92 16q-55 11 -91 11q-78 0 -100 -52q-5 -13 -5 -25v-5q0 -26 20 -48q16 -12 29 -12h4q16 0 24 24v3l-1 6q-6 -6 -12 -6q-12 2 -12 11v2q0 10 13 12h1q14 0 18 -23v-6q0 -30 -35 -40l-17 -2q-44 0 -72 50q-11 23 -11 43v5q0 37 29 70q22 20 41 26 q23 10 48 16l5 1l-14 1q-79 0 -130 -45q-23 -23 -26 -34q-9 -13 -15 -34q-3 -16 -4 -16h-1v3q0 70 78 116q47 26 123 26h7q59 0 136 -16l24 -1h19q-92 43 -184 43h-2q-157 0 -255 -118q-43 -54 -55 -109q-3 -16 -3 -40q0 -90 46 -153h-1q-29 20 -44 69q-12 40 -12 78 q0 115 88 204l18 17q-78 -42 -119 -130q-23 -51 -23 -100v-7q0 -95 80 -171q23 -19 33 -23v-1q-26 5 -56 28q-86 67 -86 176z" />
<glyph unicode="E" horiz-adv-x="1151" d="M27 535v9q0 127 142 214q90 48 237 48q111 0 252 -29q30 -3 63 -3q169 0 224 68q19 35 19 62q0 51 -58 70l-19 2h-4q-13 0 -24 -3l-1 1q19 32 60 32h2q24 0 51 -11q-14 27 -56 42q-20 5 -33 5q-49 0 -82 -40v1q46 88 143 88q113 0 141 -109q7 -32 7 -70q0 -109 -51 -168 q-33 -38 -63 -57q-88 -55 -199 -55q-66 0 -159 26q-105 24 -175 24h-11q-140 0 -180 -100q-9 -27 -9 -46q0 -46 30 -86q31 -31 65 -31q35 0 48 42l1 8q-1 11 -3 11q-9 -11 -19 -11h-4q-21 3 -21 18v5q4 22 22 22h4q22 0 32 -30q2 -9 2 -18v-4q0 -64 -81 -77l-16 -1 q-87 0 -139 103q-16 42 -16 74q0 61 43 119q34 37 64 52q27 15 81 32l40 10v1h-29q-142 0 -238 -83q-49 -52 -60 -88q-21 -52 -21 -69h-2zM215 545q0 -57 38 -98v1q-24 48 -24 81v2q0 93 101 149q55 26 126 26h8q87 0 230 -39q47 -9 90 -9q54 0 108 15v1q-27 -6 -60 -6 q-93 0 -245 46q-57 15 -158 15h-1q-146 0 -202 -123q-11 -33 -11 -61z" />
<glyph unicode="F" horiz-adv-x="1079" d="M39 481v2l75 288h5l251 -432h4l432 247h5q-69 -286 -73 -290l-439 -249h-4zM110 1178q443 199 454 199h2l49 -113v-3l-316 -139l60 -144l282 120h2q45 -96 45 -107l-277 -127l120 -271q-130 -65 -137 -65zM525 728q315 146 322 146l-234 540l138 64l292 -662l-456 -212z " />
<glyph unicode="G" horiz-adv-x="1479" d="M15 959q0 70 33 147q57 120 186 172q80 31 157 31q117 0 250 -80l29 -18q12 4 26 18q13 19 13 37q0 29 -33 38l-10 1l-14 -2v1q0 4 12 12q11 5 21 5q12 0 28 -6q-17 25 -49 25q-26 0 -43 -21q16 33 46 43q14 5 27 5h6q49 0 68 -42q10 -24 10 -53v-2q0 -67 -38 -101l-4 -5 q40 -35 59 -60q25 -31 25 -34q11 18 21 55q14 50 14 101v7q0 67 -22 108q-9 16 -28 35q-25 20 -55 20h-14q-20 -1 -55 -29q38 47 50 47q15 7 36 7q18 0 76 -13q10 -1 18 -1q33 0 52 27h1q0 -15 -13 -34q-9 -12 -32 -18l-13 -1q36 -41 54 -96q15 -39 15 -124v-7l-1 -52 q42 44 54 51q37 28 65 43q100 53 216 53q99 0 160 -55q23 -25 27 -41q12 -28 12 -52v-2q0 -48 -52 -63q-8 -2 -18 -2q-31 0 -50 24q-5 11 -5 18q0 16 17 24l4 1q10 0 13 -13v-1q0 -11 -12 -11q-10 1 -10 6q-1 0 -1 -4q0 -17 20 -23h5q22 0 38 26q4 9 4 17q0 29 -38 57 q-50 33 -129 33q-48 0 -86 -14h19q73 0 102 -23q29 -24 35 -44q4 -11 4 -21v-6q0 -26 -26 -45q-11 -6 -15 -6q21 14 21 30v14q0 29 -15 42q-15 17 -45 26q-24 8 -55 8q-53 0 -102 -16q20 2 40 2h4q50 0 84 -24q27 -23 27 -58q0 -11 -4 -23h-1v10q0 48 -33 62q-34 15 -78 15 h-4q-71 0 -137 -46q-38 -29 -55 -81q-11 -36 -11 -69v-6q0 -78 55 -133q36 -31 68 -36v-1q-36 0 -79 33q-27 26 -33 37q-15 24 -15 27h-1v-1q7 -68 52 -146q18 -30 62 -83l26 -27h-1q-27 17 -72 57q-43 43 -52 58q-16 21 -26 40q-7 15 -13 29h-1q-19 -72 -19 -154v-5 q0 -123 31 -207q20 -55 49 -112q12 -24 12 -26q-19 19 -35 44q-36 56 -60 122q-32 94 -32 171v22q-3 -42 -3 -87q0 -304 140 -493q17 -21 41 -47h-1q-21 12 -63 51q-49 53 -71 92q-36 58 -59 119q-19 47 -36 119q-13 64 -14 86q-4 43 -4 122v18q0 61 10 104q-46 -29 -77 -36 h-1q17 9 44 35q32 36 40 54q-44 -40 -78 -58q-33 -21 -90 -43q-44 -18 -100 -31v1q84 35 152 83q57 42 90 92q22 34 33 60q13 34 13 38q-90 -71 -207 -71q-142 0 -208 110q-6 12 -6 14q10 -14 28 -31q69 -60 150 -60q99 0 178 67l4 4q-34 -21 -72 -35q-51 -18 -85 -18h-10 q-55 0 -102 34q-21 18 -21 33q3 16 13 16h1q11 0 15 -11v-2q-2 -11 -10 -11h-1q-6 0 -9 7v-2q0 -29 74 -52q18 -4 32 -4h8q48 0 109 25q44 21 88 62q24 24 24 26l-2 3q-46 -43 -72 -57q-29 -18 -49 -25v1q32 17 86 61q30 28 30 30q-18 35 -40 65q-25 30 -53 53 q-39 -16 -79 -16q-35 0 -92 16q-55 11 -91 11q-78 0 -100 -52q-5 -13 -5 -25v-5q0 -26 20 -48q16 -12 29 -12h4q16 0 24 24v3l-1 6q-6 -6 -12 -6q-12 2 -12 11v2q0 10 13 12h1q14 0 18 -23v-6q0 -30 -35 -40l-17 -2q-44 0 -72 50q-11 23 -11 43v5q0 37 29 70q22 20 41 26 q23 10 48 16l5 1l-14 1q-79 0 -130 -45q-23 -23 -26 -34q-9 -13 -15 -34q-3 -16 -4 -16h-1v3q0 70 78 116q47 26 123 26h7q59 0 136 -16l24 -1h19q-92 43 -184 43h-2q-157 0 -255 -118q-43 -54 -55 -109q-3 -16 -3 -40q0 -90 46 -153h-1q-29 20 -44 69q-12 40 -12 78 q0 115 88 204l18 17q-78 -42 -119 -130q-23 -51 -23 -100v-7q0 -95 80 -171q23 -19 33 -23v-1q-26 5 -56 28q-86 67 -86 176zM526 673q0 -17 13 -30q-8 16 -8 28q0 28 28 47q20 13 51 13q29 0 79 -14q17 -3 30 -3q18 0 37 5v1q-8 -2 -16 -2h-6q-29 0 -79 15q-20 5 -50 5h-10 q-38 0 -59 -30q-10 -15 -10 -31v-4zM857 393v1v-1z" />
<glyph unicode="H" d="M51 432v2l75 288h5l251 -432h4l432 247h5q-69 -286 -73 -290l-439 -249h-4zM122 1129q443 199 454 199h2l49 -113v-3l-316 -139l60 -144l282 120h2q45 -96 45 -107l-277 -127l120 -271q-130 -65 -137 -65zM537 679q315 146 322 146l-234 540l138 64l292 -662l-456 -212z " />
<glyph unicode="I" horiz-adv-x="657" d="M45 629v1q81 34 146 78q73 55 106 115q14 24 29 66q66 210 66 323v5q0 73 -26 117q-34 51 -76 51h-3q-35 0 -72 -32v1q38 45 48 45q16 8 37 8q18 0 68 -12q12 -2 24 -2q34 0 52 27h1q0 -14 -13 -33q-10 -13 -31 -18l-13 -2q38 -43 53 -94q15 -37 15 -125v-4 q0 -80 -6 -118l-26 -233q-9 -22 -16 -53q-12 -61 -12 -122v-12q0 -121 33 -206q17 -46 41 -96q14 -27 17 -33q-14 13 -27 31q-43 66 -62 119q-37 96 -37 190l1 11v2h-1q-3 -52 -3 -86q0 -255 102 -430q20 -34 52 -74l24 -27q-21 11 -66 54q-48 53 -73 97q-34 57 -63 139 q-13 38 -25 90q-12 64 -12 84q-2 0 -5 122q0 116 32 176l9 19v1q-4 -9 -32 -38q-91 -82 -256 -122zM361 625h1v1h-1v-1z" />
<glyph unicode="J" d="M51 432v2l75 288h5l251 -432h4l432 247h5q-69 -286 -73 -290l-439 -249h-4zM122 1129q443 199 454 199h2l49 -113v-3l-316 -139l60 -144l282 120h2q45 -96 45 -107l-277 -127l120 -271q-130 -65 -137 -65zM537 679q315 146 322 146l-234 540l138 64l292 -662l-456 -212z " />
<glyph unicode="K" d="M51 432v2l75 288h5l251 -432h4l432 247h5q-69 -286 -73 -290l-439 -249h-4zM122 1129q443 199 454 199h2l49 -113v-3l-316 -139l60 -144l282 120h2q45 -96 45 -107l-277 -127l120 -271q-130 -65 -137 -65zM537 679q315 146 322 146l-234 540l138 64l292 -662l-456 -212z " />
<glyph unicode="L" d="M51 432v2l75 288h5l251 -432h4l432 247h5q-69 -286 -73 -290l-439 -249h-4zM122 1129q443 199 454 199h2l49 -113v-3l-316 -139l60 -144l282 120h2q45 -96 45 -107l-277 -127l120 -271q-130 -65 -137 -65zM537 679q315 146 322 146l-234 540l138 64l292 -662l-456 -212z " />
<glyph unicode="M" horiz-adv-x="1827" d="M8 579v14l3 3h49q21 0 32 -24l3 -21v-112q0 -35 25 -35h17l4 -4v-7l-4 -3h-56q-28 0 -31 52v109q0 24 -21 24h-18zM8 754v3l3 4h28q14 0 32 -56l10 -18l28 60q0 7 -14 10l4 4h24l4 -4q-42 -105 -49 -112q-7 7 -42 88q-7 17 -18 17h-7zM120 579v14l3 3h53q21 0 31 -24v-4 q35 28 74 28h10q53 0 70 -59q4 -4 4 -21v-77q0 -35 28 -35h17v-14h-59q-28 7 -28 49v84q0 42 -49 45h-4q-49 -3 -59 -35l-4 -7v-136h-38l-4 3v158q-3 24 -24 24h-18zM134 750v7l3 4h25q21 0 21 -28v-60q0 -17 10 -17h11l3 -4l-3 -3h-32q-14 0 -14 24v60q0 17 -24 17z M200 733q0 24 35 28h32l3 -4v-3l-3 -4h-28q-18 0 -18 -14q0 -10 42 -31q14 -11 14 -28q0 -21 -28 -28h-24l-4 3l4 4h14q21 0 21 17q0 11 -35 25q-25 17 -25 35zM288 754v7h28q17 0 17 -35v-56q4 -14 11 -14h10l4 -4l-4 -3h-31q-11 0 -14 21v63q0 17 -18 17q-3 0 -3 4z M347 799v4l4 3h31q14 0 14 -28v-17h25v-14h-25v-70q0 -14 21 -14q4 0 4 -4v-10h-32q-14 0 -17 24v105q0 18 -18 18q-7 0 -7 3zM403 484v14q0 46 46 81q24 17 56 17q42 0 70 -31v77q0 31 -21 31h-18l-3 4v3l3 4h53q31 0 31 -46v-178q0 -46 35 -56q11 0 11 -4v-7l-4 -3h-59 q-25 0 -28 31v4q-32 -35 -60 -35h-7q-84 0 -101 77zM452 488q0 -56 42 -70l21 -4h7q32 0 53 42v74q-18 42 -60 42t-59 -49l-4 -21v-14zM655 488v3q0 67 74 95l49 7q45 14 45 24h4q0 -28 -18 -38l-7 -4q53 -28 53 -84v-3q0 -67 -70 -95q-11 -3 -28 -3h-4q-63 0 -91 66 q-7 14 -7 32zM704 488q0 -49 35 -70q7 -4 18 -4q35 0 49 56v25q-11 70 -53 70q-28 0 -45 -42q-4 -14 -4 -32v-3zM844 579v14l4 3h52q18 0 31 -24q35 24 74 24h10q53 0 70 -56l4 -17v-77q0 -42 24 -42h18l3 -4v-7l-3 -3h-53q-31 7 -31 42v84q0 35 -28 49q-14 3 -25 3 q-42 0 -59 -35l-4 -10v-130l-3 -3h-35l-3 3v151q0 31 -21 31h-21zM1120 516q0 56 67 77l21 3h7q59 0 84 -49q3 -17 3 -35q0 -56 -49 -77q-14 -3 -35 -7l-35 4q25 -28 56 -28h32l3 -4v-7l-3 -3h-60q-45 0 -73 45q-18 35 -18 81zM1169 512q0 -45 35 -59l7 -4q28 0 42 42 q7 11 7 25q0 42 -35 59h-14q-31 0 -42 -56v-7zM1316 537v14q11 45 56 45h67l3 -3v-14l-3 -4h-60q-21 0 -28 -14v-7q0 -21 67 -52q38 -25 38 -56q0 -42 -56 -56h-45l-4 3v7l4 4h28q38 3 38 28q0 28 -59 49q-46 31 -46 56zM1463 575v21h53q28 0 31 -42v-115q0 -35 32 -35h14 l3 -4v-7l-3 -3h-60q-28 7 -28 42v108q0 35 -21 35h-21zM1600 432v7q0 52 105 77l17 3v14q0 42 -35 42h-42v18l4 3h52q42 0 60 -45v-25q63 11 63 32h3v-14q0 -32 -66 -39v-73q0 -32 31 -32v-7l-3 -3h-39q-21 0 -28 35q-35 -32 -66 -32h-4q-42 0 -52 39zM1645 442 q4 -24 28 -24q18 0 49 28v52q-77 -14 -77 -49v-7z" />
<glyph unicode="N" horiz-adv-x="1554" d="M145 324q21 -31 76 -82q104 -94 261 -129q42 -7 82 -7h17q224 0 414 158l12 12h-1q-57 -38 -132 -70q-145 -57 -256 -57q-150 0 -263 88q-40 39 -40 65v7q0 30 29 39h5q35 -8 35 -30q-6 -28 -25 -28h-5q-8 0 -20 15v-1q0 -74 186 -128q48 -8 79 -8q127 0 277 64 q79 35 190 132q88 88 114 129l15 20h-1q-86 -96 -136 -134q-120 -98 -217 -130q98 58 213 154q90 86 109 116q65 84 89 167q45 139 45 291q0 160 -49 262q-20 34 -55 72q-62 65 -151 65h-29l-8 -1v1q44 30 94 30q100 0 206 -124q111 -166 111 -415v-18q0 -246 -110 -470 q-115 -206 -356 -301q-140 -52 -288 -52h-3q-350 0 -506 279z" />
<glyph unicode="O" horiz-adv-x="1614" d="M99 643l41 295q80 71 80 82q42 60 128 149q134 122 275 181q187 76 380 76h14q209 0 340 -120q43 -44 56 -83q25 -64 25 -110v-10q0 -97 -104 -131q-24 -6 -43 -6h-4q-72 0 -108 57q-8 17 -8 30v8q0 31 37 47l9 1q19 0 25 -27v-4q0 -19 -23 -23q-22 4 -22 15h-1l-3 -11 q0 -16 16 -33q19 -16 38 -16q43 0 77 49q13 21 13 41q0 78 -106 141q-101 55 -253 55q-105 0 -184 -29v-1h58q156 0 222 -66q40 -37 50 -66q15 -35 15 -62q0 -68 -64 -109q-15 -7 -26 -8v1q43 32 43 52q4 13 4 44q0 62 -37 93q-41 41 -126 60q-38 7 -76 7h-19 q-99 0 -209 -33v-1h2q46 4 88 5q121 0 195 -61q48 -47 48 -117q0 -24 -8 -46h-2v22q0 102 -71 131q-28 15 -76 25q-67 9 -96 9q-147 0 -286 -92q-92 -64 -126 -170q-28 -83 -28 -163v-9q0 -173 122 -292q74 -60 141 -72v-2h-2q-72 0 -159 65q-60 54 -76 82q-26 39 -36 61h-1 v-2q7 -89 65 -224q33 -70 87 -149q46 -67 128 -156l21 -20h-1q-61 37 -149 117q-66 61 -105 110q-50 66 -74 114z" />
<glyph unicode="P" d="M51 432v2l75 288h5l251 -432h4l432 247h5q-69 -286 -73 -290l-439 -249h-4zM122 1129q443 199 454 199h2l49 -113v-3l-316 -139l60 -144l282 120h2q45 -96 45 -107l-277 -127l120 -271q-130 -65 -137 -65zM537 679q315 146 322 146l-234 540l138 64l292 -662l-456 -212z " />
<glyph unicode="Q" d="M51 432v2l75 288h5l251 -432h4l432 247h5q-69 -286 -73 -290l-439 -249h-4zM122 1129q443 199 454 199h2l49 -113v-3l-316 -139l60 -144l282 120h2q45 -96 45 -107l-277 -127l120 -271q-130 -65 -137 -65zM537 679q315 146 322 146l-234 540l138 64l292 -662l-456 -212z " />
<glyph unicode="R" horiz-adv-x="1283" d="M15 825q0 60 29 126q48 104 159 148q69 27 135 27q101 0 216 -69l25 -15q10 3 22 15q11 16 11 33q0 24 -28 32l-9 1l-12 -2v1q0 3 10 10q10 5 19 5q10 0 24 -6v1q-15 21 -43 21q-22 0 -37 -19v1q14 28 40 37q12 4 23 4h6q41 0 58 -36q8 -21 8 -45v-2q0 -58 -32 -87l-4 -4 q35 -31 51 -52q22 -27 22 -29q9 15 18 47q12 43 12 87v6q0 57 -19 93q-8 13 -24 30q-21 17 -48 17h-11q-18 -1 -48 -25q33 40 43 40q13 6 31 6q15 0 66 -11q8 -1 15 -1q28 0 45 24h1q0 -13 -12 -29q-8 -11 -27 -16l-11 -1q31 -35 46 -82q13 -34 13 -107v-51q35 38 46 44 q32 24 56 37q86 45 186 45q85 0 138 -47q19 -21 23 -35q10 -24 10 -45v-2q0 -41 -44 -54l-16 -2q-27 0 -43 21q-5 10 -5 16q0 13 15 20l3 1q9 0 11 -11v-1q0 -9 -9 -9q-9 1 -9 5q-1 0 -1 -3q0 -15 17 -20l4 -1q20 0 33 23q3 7 3 14q0 25 -32 50q-43 28 -111 28 q-41 0 -74 -12h16q63 0 88 -20t30 -38q3 -9 3 -18v-5q0 -22 -22 -39q-9 -5 -13 -5v1q18 12 18 25l1 12q0 25 -13 36q-14 15 -39 23q-21 6 -48 6q-45 0 -88 -13v-1q18 2 35 2h4q43 0 72 -20q23 -20 23 -50q0 -10 -3 -20h-1v9q0 41 -29 53q-29 13 -67 13h-3q-62 0 -119 -40 q-32 -24 -46 -69q-10 -31 -10 -60v-5q0 -67 47 -115q31 -26 59 -31v-1q-31 0 -68 29q-23 22 -28 32q-14 20 -14 23v-1q6 -58 45 -125q15 -26 53 -72l22 -23h-1q-23 15 -62 50q-36 36 -45 49q-13 18 -22 34q-6 13 -11 26h-1q-16 -63 -16 -133v-4q0 -106 26 -179 q18 -47 42 -96q11 -20 11 -22q-16 16 -30 37q-31 48 -52 106q-27 81 -27 147v18h-1q-2 -36 -2 -74q0 -262 121 -425q14 -18 34 -40q-18 10 -54 44q-42 45 -62 79q-30 50 -50 103q-17 40 -31 102q-11 55 -12 74q-3 37 -3 105v16q0 52 8 89q-39 -25 -67 -31q14 8 38 30 q27 31 34 47q-38 -35 -67 -51q-29 -17 -78 -37q-38 -14 -86 -26v1q73 30 131 71q50 36 78 79q19 30 28 52q11 29 11 32q-77 -61 -177 -61q-123 0 -180 95q-5 11 -5 12q9 -11 24 -26q60 -52 130 -52q84 0 152 58l4 3q-29 -18 -62 -30q-44 -15 -74 -15h-8q-47 0 -88 29 q-18 15 -18 28q3 14 11 14h2q9 0 12 -9v-2q-2 -10 -9 -10q-5 0 -8 6v-2q0 -24 64 -44q15 -3 27 -3h7q42 0 94 21q38 18 76 53q20 21 20 23l-1 2q-40 -37 -62 -49q-25 -15 -43 -21q28 15 75 53q25 24 25 26q-15 30 -34 56q-22 26 -46 45q-33 -13 -68 -13q-30 0 -79 13 q-47 10 -78 10q-68 0 -86 -45q-5 -11 -5 -21v-5q0 -22 18 -41q13 -10 25 -10h3q14 0 21 20v3l-1 5q-5 -5 -11 -5q-10 1 -10 10v1q0 9 12 10q12 0 16 -19v-6q0 -25 -31 -34l-14 -1q-38 0 -62 42q-10 20 -10 37v5q0 32 26 60q19 17 35 23q19 8 41 13l4 1l-11 1q-68 0 -112 -39 q-20 -20 -23 -29q-7 -11 -13 -30q-3 -13 -4 -13v2q0 61 67 101q41 22 106 22h5q52 0 118 -14l21 -1h16q-80 37 -158 37h-2q-135 0 -220 -101q-36 -47 -47 -94q-3 -14 -3 -35q0 -77 40 -131h-1q-25 16 -38 59q-10 34 -10 67q0 99 76 176l15 14q-67 -36 -103 -112 q-19 -43 -19 -86v-6q0 -81 69 -147q20 -16 29 -20v-1q-23 5 -49 24q-74 58 -74 152z" />
<glyph unicode="S" horiz-adv-x="1085" d="M40 777q0 89 44 183q67 132 210 192q95 38 191 38q147 0 316 -107q36 -21 79 -54q170 -137 170 -316q0 -188 -182 -267q-23 -8 -29 -9q19 12 44 34q38 39 49 62q13 20 26 54q21 68 21 127q0 87 -57 172q-48 87 -175 157q-122 65 -239 65h-13q-158 0 -270 -110 q-43 -46 -60 -79q-15 -27 -24 -54q-12 -33 -12 -73q0 -106 54 -179v-1q-36 25 -55 89q-11 46 -11 83q0 137 104 242l21 19q-28 -11 -71 -51q-43 -46 -58 -77q-39 -71 -39 -143v-9q0 -112 96 -202q23 -19 37 -27v-1q-34 8 -72 38q-95 80 -95 204z" />
<glyph unicode="T" horiz-adv-x="974" d="M-45 924v138q0 146 156 146h851v-73h-412v-1148h-1q-4 -125 -104 -158l-38 -3h-183l-6 6v62l6 6h79q68 0 82 91v1144h-165q-228 0 -228 -211h-37z" />
<glyph unicode="U" horiz-adv-x="1501" d="M15 959q0 70 33 147q57 120 186 172q80 31 157 31q117 0 250 -80l29 -18q12 4 26 18q13 19 13 37q0 29 -33 38l-10 1l-14 -2v1q0 4 12 12q11 5 21 5q12 0 28 -6q-17 25 -49 25q-26 0 -43 -21q16 33 46 43q14 5 27 5h6q49 0 68 -42q10 -24 10 -53v-2q0 -67 -38 -101l-4 -5 q40 -35 59 -60q25 -31 25 -34q11 18 21 55q14 50 14 101v7q0 67 -22 108q-9 16 -28 35q-25 20 -55 20h-14q-20 -1 -55 -29q38 47 50 47q15 7 36 7q18 0 76 -13q10 -1 18 -1q33 0 52 27h1q0 -15 -13 -34q-9 -12 -32 -18l-13 -1q36 -41 54 -96q15 -39 15 -124v-7l-1 -52 q42 44 54 51q37 28 65 43q100 53 216 53q99 0 160 -55q23 -25 27 -41q12 -28 12 -52v-2q0 -48 -52 -63q-8 -2 -18 -2q-31 0 -50 24q-5 11 -5 18q0 16 17 24l4 1q10 0 13 -13v-1q0 -11 -12 -11q-10 1 -10 6q-1 0 -1 -4q0 -17 20 -23h5q22 0 38 26q4 9 4 17q0 29 -38 57 q-50 33 -129 33q-48 0 -86 -14h19q73 0 102 -23q29 -24 35 -44q4 -11 4 -21v-6q0 -26 -26 -45q-11 -6 -15 -6q21 14 21 30v14q0 29 -15 42q-15 17 -45 26q-24 8 -55 8q-53 0 -102 -16q20 2 40 2h4q50 0 84 -24q27 -23 27 -58q0 -11 -4 -23h-1v10q0 48 -33 62q-34 15 -78 15 h-4q-71 0 -137 -46q-38 -29 -55 -81q-11 -36 -11 -69v-6q0 -78 55 -133q36 -31 68 -36v-1q-36 0 -79 33q-27 26 -33 37q-15 24 -15 27h-1v-1q7 -68 52 -146q18 -30 62 -83l26 -27h-1q-27 17 -72 57q-43 43 -52 58q-16 21 -26 40q-7 15 -13 29h-1q-19 -72 -19 -154v-5 q0 -123 31 -207q20 -55 49 -112q12 -24 12 -26q-19 19 -35 44q-36 56 -60 122q-32 94 -32 171v22q-3 -42 -3 -87q0 -304 140 -493q17 -21 41 -47h-1q-21 12 -63 51q-49 53 -71 92q-36 58 -59 119q-19 47 -36 119q-13 64 -14 86q-4 43 -4 122v18q0 61 10 104q-46 -29 -77 -36 h-1q17 9 44 35q32 36 40 54q-44 -40 -78 -58q-33 -21 -90 -43q-44 -18 -100 -31v1q84 35 152 83q57 42 90 92q22 34 33 60q13 34 13 38q-90 -71 -207 -71q-142 0 -208 110q-6 12 -6 14q10 -14 28 -31q69 -60 150 -60q99 0 178 67l4 4q-34 -21 -72 -35q-51 -18 -85 -18h-10 q-55 0 -102 34q-21 18 -21 33q3 16 13 16h1q11 0 15 -11v-2q-2 -11 -10 -11h-1q-6 0 -9 7v-2q0 -29 74 -52q18 -4 32 -4h8q48 0 109 25q44 21 88 62q24 24 24 26l-2 3q-46 -43 -72 -57q-29 -18 -49 -25v1q32 17 86 61q30 28 30 30q-18 35 -40 65q-25 30 -53 53 q-39 -16 -79 -16q-35 0 -92 16q-55 11 -91 11q-78 0 -100 -52q-5 -13 -5 -25v-5q0 -26 20 -48q16 -12 29 -12h4q16 0 24 24v3l-1 6q-6 -6 -12 -6q-12 2 -12 11v2q0 10 13 12h1q14 0 18 -23v-6q0 -30 -35 -40l-17 -2q-44 0 -72 50q-11 23 -11 43v5q0 37 29 70q22 20 41 26 q23 10 48 16l5 1l-14 1q-79 0 -130 -45q-23 -23 -26 -34q-9 -13 -15 -34q-3 -16 -4 -16h-1v3q0 70 78 116q47 26 123 26h7q59 0 136 -16l24 -1h19q-92 43 -184 43h-2q-157 0 -255 -118q-43 -54 -55 -109q-3 -16 -3 -40q0 -90 46 -153h-1q-29 20 -44 69q-12 40 -12 78 q0 115 88 204l18 17q-78 -42 -119 -130q-23 -51 -23 -100v-7q0 -95 80 -171q23 -19 33 -23v-1q-26 5 -56 28q-86 67 -86 176z" />
<glyph unicode="V" d="M51 432v2l75 288h5l251 -432h4l432 247h5q-69 -286 -73 -290l-439 -249h-4zM122 1129q443 199 454 199h2l49 -113v-3l-316 -139l60 -144l282 120h2q45 -96 45 -107l-277 -127l120 -271q-130 -65 -137 -65zM537 679q315 146 322 146l-234 540l138 64l292 -662l-456 -212z " />
<glyph unicode="W" horiz-adv-x="2030" d="M25 348q0 36 37 82q27 29 41 37q25 18 49 30q62 29 109 65q33 27 33 60q0 37 -50 51q-12 3 -24 3h-158l-1 1v46l1 1h152l21 1q29 0 65 -13q45 -19 70 -67q14 -30 14 -53v-8q0 -48 -52 -104q-34 -28 -57 -42q-50 -32 -111 -59q-50 -33 -50 -77q0 -46 55 -69q16 -6 28 -6 h93l1 -1v-29l-1 -1h-105q-34 0 -75 17q-19 8 -41 28q-35 37 -37 47q-7 9 -7 60zM25 802v4l1 1h15q9 0 10 -13v-37q1 -8 8 -8h5l1 -1v-2l-1 -1h-15q-7 0 -10 7l-1 6v32q0 11 -8 11h-4zM25 853v2l1 1h9q3 0 12 -23l8 19v2h-3l-1 1l1 1h8v-1h1q-13 -31 -15 -33h-1q-2 3 -12 26 q-1 4 -6 4q-2 0 -2 1zM59 802v4l1 1h15q7 0 10 -8q9 8 23 8h2q15 0 21 -16l1 -8v-23q0 -11 8 -11h5l1 -1v-2l-1 -1h-16q-8 0 -10 12v25q0 12 -9 15q-2 1 -5 1h-3q-17 -3 -17 -13v-39l-1 -1h-11l-1 1v46q0 9 -9 9h-3zM63 853v2l1 1h8q5 0 5 -11v-16q0 -5 7 -5l1 -1l-1 -1h-9 q-5 1 -5 7v17q0 6 -5 6q-2 0 -2 1zM83 848q0 6 9 8h11l1 -1v-2l-1 -1h-9q-4 0 -5 -2v-1q0 -4 14 -10q3 -4 3 -7v-2q0 -6 -9 -8h-7l-1 1l1 1h4q5 0 6 5q0 4 -13 10q-4 4 -4 9zM108 853v2l1 1h8q5 0 6 -7v-19q0 -6 7 -6v-1l-1 -1h-9q-5 0 -5 7v18q0 5 -5 5q-2 0 -2 1zM127 867 v2l1 1h10q4 -2 4 -8v-6h6l1 -1v-2l-1 -1h-6v-21q0 -5 6 -5q1 0 1 -1v-2l-1 -1h-8q-5 0 -5 7v33q0 5 -8 5zM144 772v4q0 22 24 30l7 1q12 0 20 -9v21q0 11 -8 11h-4l-1 1v1l1 1h16q9 0 9 -11v-54q0 -17 12 -19q2 0 2 -1v-2l-1 -1h-15q-11 0 -11 10q-9 -10 -20 -10 q-20 0 -28 15q-3 6 -3 12zM158 776q0 -24 20 -24q12 0 17 14v20q-4 14 -18 14q-16 0 -18 -21zM219 773v3q0 20 23 28q22 0 27 9h1q0 -10 -6 -12v-1q14 -9 14 -24v-3q0 -19 -22 -28l-8 -1q-18 0 -27 21q-2 4 -2 8zM234 775q0 -16 11 -23h4q12 0 16 19v5q0 14 -12 20l-4 1 q-12 0 -15 -19v-3zM276 802v4l1 1h16q5 0 9 -8q10 8 24 8h1q17 0 22 -18v-27q0 -13 8 -13h5l1 -1v-2l-1 -1h-16q-10 0 -10 16v23q-1 14 -13 14h-3q-12 0 -17 -9q-1 -2 -1 -6v-37l-1 -1h-11l-1 1v47q-1 8 -7 8h-5zM359 780v4q0 15 20 22q2 1 6 1h2q19 0 26 -17l1 -8v-2 q-3 -23 -23 -23h-4l-9 1q6 -9 17 -9h9l1 -1v-2l-1 -1h-15q-30 0 -30 35zM373 782q0 -15 12 -19l1 -1q12 0 14 20q-2 19 -14 19q-9 0 -12 -15zM402 446v9q0 87 62 162q31 33 46 42q69 48 150 48h2q109 0 190 -82q69 -77 69 -175q0 -107 -83 -187q-41 -35 -74 -48 q-49 -21 -101 -21h-2q-110 0 -190 82q-27 30 -43 61q-26 56 -26 109zM417 792q4 14 15 14l3 1h19l1 -1v-4l-1 -1h-15q-11 0 -11 -7t22 -16q9 -8 9 -14v-6q0 -6 -12 -12l-8 -1h-10l-1 1v2l1 1h8q12 1 12 7v2q0 7 -16 14q-16 8 -16 20zM461 802v4l1 1h15q9 0 10 -13v-37 q1 -8 8 -8h5l1 -1v-2l-1 -1h-15q-7 0 -10 7l-1 6v32q0 11 -9 11h-3zM503 759q0 16 30 23l6 1v2q0 16 -9 16h-6q-8 0 -8 1v4l1 1h16q12 0 17 -14l1 -6v-1h1q18 3 18 9h1v-3q0 -9 -15 -12q-5 0 -5 -1v-20q0 -10 5 -10l4 -1v-2l-1 -1h-9q-7 0 -10 7q0 3 -1 3q-9 -10 -21 -10 q-15 2 -15 14zM516 762q2 -9 8 -9t15 9v15q-23 -3 -23 -15zM525 448q0 -72 39 -134q44 -58 96 -58h5q43 0 83 43q52 64 52 155q0 81 -44 144q-42 53 -94 53q-58 0 -102 -66q-35 -60 -35 -127v-10zM950 451q0 102 76 181q80 75 183 75h2q103 0 183 -75q76 -79 76 -181 t-76 -181q-80 -76 -183 -76h-3q-103 0 -183 76q-75 78 -75 181zM1073 453q0 -85 47 -148q19 -22 33 -31q29 -18 54 -18h6q50 0 92 55q43 62 43 142q0 72 -35 132q-26 43 -71 60q-17 6 -31 6q-60 0 -105 -69q-33 -59 -33 -129zM1491 564q0 77 43 125q49 56 146 56 q118 0 160 -68t42 -214q0 -150 -45 -215q-44 -68 -182 -68q-55 0 -122 24l4 16q51 -8 101 -8q83 0 118 56q29 48 29 150q-53 -36 -135 -36q-159 0 -159 182zM1571 564q0 -150 105 -150q61 0 109 40q0 140 -24 199q-24 60 -81 60q-56 0 -84 -46q-25 -40 -25 -103z" />
<glyph unicode="X" d="M51 432v2l75 288h5l251 -432h4l432 247h5q-69 -286 -73 -290l-439 -249h-4zM122 1129q443 199 454 199h2l49 -113v-3l-316 -139l60 -144l282 120h2q45 -96 45 -107l-277 -127l120 -271q-130 -65 -137 -65zM537 679q315 146 322 146l-234 540l138 64l292 -662l-456 -212z " />
<glyph unicode="Y" d="M51 432v2l75 288h5l251 -432h4l432 247h5q-69 -286 -73 -290l-439 -249h-4zM122 1129q443 199 454 199h2l49 -113v-3l-316 -139l60 -144l282 120h2q45 -96 45 -107l-277 -127l120 -271q-130 -65 -137 -65zM537 679q315 146 322 146l-234 540l138 64l292 -662l-456 -212z " />
<glyph unicode="Z" horiz-adv-x="1124" d="M84 435v2l75 288h5l251 -432h4l432 247h5q-69 -286 -73 -290l-439 -249h-4zM155 1132q443 199 454 199h2l49 -113v-3l-316 -139l60 -144l282 120h2q45 -96 45 -107l-277 -127l120 -271q-130 -65 -137 -65zM570 682q315 146 322 146l-234 540l138 64l292 -662l-456 -212z " />
<glyph unicode="[" d="M51 432v2l75 288h5l251 -432h4l432 247h5q-69 -286 -73 -290l-439 -249h-4zM122 1129q443 199 454 199h2l49 -113v-3l-316 -139l60 -144l282 120h2q45 -96 45 -107l-277 -127l120 -271q-130 -65 -137 -65zM537 679q315 146 322 146l-234 540l138 64l292 -662l-456 -212z " />
<glyph unicode="\" d="M51 432v2l75 288h5l251 -432h4l432 247h5q-69 -286 -73 -290l-439 -249h-4zM122 1129q443 199 454 199h2l49 -113v-3l-316 -139l60 -144l282 120h2q45 -96 45 -107l-277 -127l120 -271q-130 -65 -137 -65zM537 679q315 146 322 146l-234 540l138 64l292 -662l-456 -212z " />
<glyph unicode="]" d="M51 432v2l75 288h5l251 -432h4l432 247h5q-69 -286 -73 -290l-439 -249h-4zM122 1129q443 199 454 199h2l49 -113v-3l-316 -139l60 -144l282 120h2q45 -96 45 -107l-277 -127l120 -271q-130 -65 -137 -65zM537 679q315 146 322 146l-234 540l138 64l292 -662l-456 -212z " />
<glyph unicode="^" horiz-adv-x="1014" />
<glyph unicode="_" horiz-adv-x="1024" d="M0 -100h1024v-60h-1024v60z" />
<glyph unicode="`" horiz-adv-x="1024" d="M212 1363q0 31 20.5 51t53.5 20q20 0 40.5 -12t55.5 -47l291 -296h-69l-330 202q-31 20 -46.5 40t-15.5 42z" />
<glyph unicode="a" horiz-adv-x="897" d="M1 197v4q0 63 42 132q35 53 100 97q41 28 89 51q57 28 139 53q64 18 94 18q34 5 78 13v71q0 47 -22 108q-8 17 -22 38q-18 25 -50 35q-6 3 -52 4l-195 6l-1 1v83l1 1h234q50 0 117 -27q98 -44 139 -137q11 -27 17 -53q9 -43 9 -67l1 -26q163 34 192 42q61 22 81 63 q10 21 10 38v3h1q12 -29 12 -57q0 -73 -79 -127q-24 -16 -53 -26q-23 -7 -63 -13q-54 -10 -101 -18v-316q0 -44 15 -87q8 -19 24 -36q22 -18 45 -18h46l1 -1v-52l-1 -1h-158q-92 0 -128 99q-7 15 -14 48l-2 12q-152 -153 -311 -153q-58 0 -117 22q-20 10 -41 25 q-77 62 -77 148zM201 248q0 -50 32 -97q32 -39 86 -39q43 0 90 26l134 100v242q-84 -16 -149 -38q-82 -27 -113 -52q-33 -26 -53 -55q-27 -42 -27 -86v-1z" />
<glyph unicode="b" horiz-adv-x="1116" d="M36 5v45l4 3h31q13 0 35 7q126 61 126 248l4 -3v687q0 93 -27 133q-32 50 -120 50h-42v37h189q112 0 149 -41q39 -44 39 -179v-166q126 55 262 55q196 0 302 -132q97 -120 97 -318q0 -196 -95 -318q-102 -132 -283 -132q-190 0 -283 101h-10l-8 -21q-21 -22 -35 -36 l-37 -11l-98 -15v3h-196zM424 165q84 -111 220 -111q120 0 184 110q57 99 57 267q0 377 -262 377q-73 0 -199 -55v-588z" />
<glyph unicode="c" horiz-adv-x="858" d="M26 469q0 205 107 331q117 138 330 156h14q128 0 224 -52q136 -71 136 -282l-97 24q3 16 3 31q0 74 -62 126q-80 62 -156 62q-20 0 -40 -4h-4q-76 0 -151 -110q-69 -104 -69 -279t69 -279q77 -113 203 -113q183 24 219 202l61 -66q-39 -194 -350 -216q-213 0 -330 138 q-107 126 -107 331z" />
<glyph unicode="d" horiz-adv-x="1076" d="M21 467q0 202 107 326q118 135 334 135q151 0 290 -57v170q0 95 -29 136q-36 51 -133 51h-47v38h209q124 0 166 -42q43 -45 43 -183v-829q24 -116 118 -162q22 -7 35 -7h31l4 -3v-45l-4 -3h-237q-107 0 -134 93l-2 13v4l-8 8h-12q-102 -103 -313 -103q-201 0 -314 135 q-104 125 -104 325zM241 467q0 -172 64 -273q70 -112 203 -112q151 0 244 113v601q-139 57 -220 57q-291 0 -291 -386z" />
<glyph unicode="e" horiz-adv-x="844" d="M6 535v33q0 135 81 216q30 35 61 56q130 91 255 91h15q222 0 354 -169q53 -84 53 -213q0 -208 -154 -316q-91 -58 -227 -58q-81 0 -163 21v-1q44 -84 165 -128q39 -13 64 -13h182l3 -3v-49l-3 -3h-274q-107 0 -245 79q-55 40 -86 89q-81 146 -81 368zM212 553 q0 -168 115 -261q49 -29 89 -29q110 0 178 140q30 73 30 153q0 153 -103 249q-51 40 -103 40q-106 0 -175 -136q-31 -74 -31 -156z" />
<glyph unicode="f" horiz-adv-x="549" d="M-12 2v48l3 3h89q34 6 34 12q48 26 49 166l3 329l2 256h-89v71h89v52q0 299 379 327l-13 -113q-12 1 -24 1q-178 0 -178 -215v-52h160v-71h-160v-701h-1q-4 -117 -121 -117h-8l-212 1z" />
<glyph unicode="g" horiz-adv-x="950" d="M19 -86q0 188 222 262q-81 40 -81 121q0 63 71 110q-151 76 -151 262q0 302 384 302l26 -7q268 60 268 149h6l3 -35q0 -122 -90 -169l28 -8v-10q142 -70 142 -222q0 -301 -383 -301q-213 0 -213 -71t213 -71q195 0 312 -73q131 -82 131 -239q0 -312 -443 -312 q-445 0 -445 312zM201 -86q0 -231 263 -231q262 0 262 231q0 202 -243 232l-110 9q-172 -68 -172 -241zM262 669q0 -231 202 -231q201 0 201 231q0 116 -59 176q-53 56 -142 56q-202 0 -202 -232z" />
<glyph unicode="h" horiz-adv-x="1116" d="M-23 2v44l6 5h83q67 0 89 99q9 19 9 47v500l3 3l-3 3v317q-12 114 -107 114h-74l-6 5v70l6 6h222q94 0 134 -125l6 -52v-254q142 119 231 119h32q195 0 288 -212q23 -68 23 -143v-334q0 -135 66 -166l20 -3h101l6 -6v-43l-6 -6h-224q-90 0 -127 104q-15 66 -15 108v361 q0 171 -169 212l-49 3q-61 0 -151 -113q32 -20 112 -41l3 -3v-3q0 -25 -103 -72l-38 -24v-346q0 -131 -109 -174l-40 -6h-213z" />
<glyph unicode="i" horiz-adv-x="496" d="M-34 802v82l3 2h223q72 0 121 -75q26 -51 26 -124v-483v-13q0 -105 79 -113l25 -3h42l3 -2v-70l-3 -3h-181q-96 0 -131 102q-17 50 -17 96v482q0 88 -68 115q-19 5 -33 5h-86z" />
<glyph unicode="j" horiz-adv-x="356" d="M-30 -303q176 0 176 362v603q0 95 -22 136q-30 50 -108 50h-37v37h167q101 0 132 -41q35 -44 35 -182v-603q0 -215 -70 -304q-76 -95 -273 -95v37z" />
<glyph unicode="k" horiz-adv-x="1045" d="M39 0v6v62v6h87q71 0 83 98v873q0 104 -102 104h-62l-6 6v59l6 6h199q115 0 131 -160v-347q0 -41 1 -186q139 65 179 66l32 7h10q118 0 142 87q20 98 39 149q31 77 152 82q-57 -43 -79 -111q-8 -152 -45 -223l-41 -43q119 -68 119 -178v-188q0 -120 44 -132l29 -6h70 l6 -6v-22l-6 -6h-178q-103 12 -103 123v224q0 103 -109 136l-60 6q-161 -12 -198 -96l-4 -15v-209q0 -135 -106 -169l-38 -3h-192z" />
<glyph unicode="l" horiz-adv-x="429" d="M-40 1126v69h163h13q66 0 109 -38q41 -32 41 -145v-780q0 -140 49 -166q0 -6 35 -13h92l3 -3v-48l-3 -3h-218q-90 0 -117 149q-4 17 -4 36v828q0 50 -22 92q-22 24 -71 24q-15 0 -34 -2h-36z" />
<glyph unicode="m" horiz-adv-x="1747" d="M-8 814v95h213q149 0 184 -78h11q108 97 281 97q190 0 259 -135q117 135 324 135q289 0 301 -319h1v-374q0 -140 58 -166q0 -6 42 -13h109l3 -3v-48l-3 -3h-259q-107 0 -140 149q-4 17 -4 36v393q0 261 -173 261q-133 0 -216 -126q4 -14 4 -47.5t-4 -87.5v-580h-194v580 q0 261 -173 261q-114 0 -216 -102v-739h-195v677q0 98 -27 109q-30 28 -120 28h-23h-43z" />
<glyph unicode="n" horiz-adv-x="1127" d="M-43 819v78l3 3h227q86 0 133 -95l9 -31q147 132 315 135h19q136 0 235 -100q97 -108 97 -249v-329q0 -140 55 -166q0 -6 40 -13h104l3 -3v-48l-3 -3h-247q-102 0 -133 149q-4 17 -4 36v354q0 175 -125 227q-51 18 -107 18q-103 -3 -203 -103q-37 -45 -37 -90v-591l-3 -3 h-180l-4 3v694q0 88 -72 119l-35 5h-84z" />
<glyph unicode="o" horiz-adv-x="895" d="M7 444v12q0 198 163 343q128 101 279 101l49 -2q113 24 176 52q45 22 68 46q20 22 24 46h1l2 -1l1 -38q0 -112 -86 -153l-16 -6q47 -25 116 -93q113 -137 113 -302q0 -177 -130 -316q-137 -133 -316 -133q-207 0 -353 176q-91 127 -91 268zM223 448q0 -180 113 -293 q58 -49 123 -49h1q117 0 196 156q36 92 36 173v27q0 141 -88 255q-68 74 -144 74h-1q-119 0 -194 -148q-42 -90 -42 -195z" />
<glyph unicode="p" horiz-adv-x="962" d="M-160 -315l3 3h91q73 0 97 82q7 29 7 57v497q0 38 6 65l-1 35v27q0 148 104 280q63 69 91 84l36 24q-48 14 -73 50q-30 48 -30 103v18l1 33h3v-2q0 -73 178 -125q44 -13 97 -24l43 3q202 0 347 -164q104 -132 104 -287v-11q0 -208 -175 -357q-128 -94 -276 -94 q-145 0 -270 91v-246q0 -89 -57 -158q-36 -33 -80 -33h-243l-3 3v46zM248 436q0 -177 111 -292q60 -55 131 -55q96 0 171 112q64 104 64 237q0 164 -97 278q-67 69 -141 69q-116 0 -195 -149q-44 -97 -44 -200z" />
<glyph unicode="q" horiz-adv-x="1024" d="M8 434v19q0 191 157 339q134 111 295 111l50 -1q273 57 273 150h3l2 -34v-14q0 -113 -93 -154l-11 -3l69 -49q165 -149 165 -354l-3 -48q6 -24 6 -73v-491q0 -115 77 -142l27 -3h94l3 -3v-47l-3 -3h-236q-96 0 -131 102q-18 52 -18 99v238h-1q-124 -89 -264 -89h-14 q-170 0 -309 129q-138 143 -138 321zM229 440q0 -194 127 -309q58 -39 105 -39h15q100 0 178 127q55 104 55 221q0 192 -122 308q-58 44 -121 44q-114 0 -193 -148q-44 -94 -44 -204z" />
<glyph unicode="r" horiz-adv-x="584" d="M-35 813v80l2 1h226q78 0 125 -70q21 -38 21 -70v-3q76 62 161 103q40 22 69 24l14 2h2q18 0 31 -44l-1 -7q-5 -4 -38 -17q-21 -9 -44 -19q-24 -11 -80 -49q-37 -20 -70 -58q-32 -46 -32 -83v-602l-2 -2h-185l-2 2v671q0 106 -69 134q-21 5 -40 5h-86z" />
<glyph unicode="s" horiz-adv-x="649" d="M24 647v12q0 78 76 161q75 60 171 60h285l3 -3v-76l-3 -3h-269q-66 0 -104 -51q-9 -20 -9 -36v-3q0 -79 134 -150q39 -24 152 -82q44 -27 98 -83q60 -79 60 -135q0 -103 -22 -122q-62 -90 -159 -120q-45 -12 -97 -12h-159l-3 3v46l3 3h139q90 0 138 72q12 24 12 44v15 q0 65 -81 121q-127 53 -249 141q-116 102 -116 198z" />
<glyph unicode="t" horiz-adv-x="614" d="M-16 1151v67l3 3h254q84 0 124 -110q12 -45 12 -78v-146h161l3 -3v-81l-3 -3h-161v-583q0 -84 69 -114q19 -7 50 -7h89l3 -3v-89l-3 -2h-233q-74 0 -128 64q-37 44 -37 143v801q0 110 -79 135l-31 3h-90z" />
<glyph unicode="u" horiz-adv-x="1163" d="M-30 853v47l3 3h245q102 0 132 -148q5 -17 5 -36v-351q0 -174 123 -226q52 -18 106 -18q80 0 179 99q37 45 37 90v587l3 3h179l3 -3v-689q0 -88 72 -119l35 -4h83l3 -3v-78l-3 -3h-225q-85 0 -132 94l-9 31q-146 -131 -290 -131h-18q-135 0 -234 99q-96 107 -96 248v327 q0 139 -55 164q0 7 -40 14h-103z" />
<glyph unicode="v" horiz-adv-x="968" d="M24 879v38l65 4q221 0 323 -237l171 -409l266 627h95l-390 -912h-38l-294 694q-47 108 -87 149q-42 42 -111 46z" />
<glyph unicode="w" horiz-adv-x="1422" d="M-52 818v75l4 4h243q89 0 144 -159l195 -438q22 33 188 444q-10 19 -17 32q-23 29 -63 35l-18 1h-84l-3 2v75l1 4h243q89 0 144 -159l195 -438q9 8 193 458q14 34 14 51v5q0 32 -41 43h-60l-5 4v32l5 4h245l2 -2h2q-256 -635 -366 -881l-20 -11q-24 3 -68 88 q-158 358 -242 539q-168 -407 -256 -612l-32 -11q-12 15 -49 85q-257 569 -323 692q-23 29 -56 36l-27 -2h-84z" />
<glyph unicode="x" horiz-adv-x="1068" d="M1 851v44l4 3h231q84 0 136 -96l186 -264q9 5 125 170q13 20 13 31v2q0 19 -39 26h-58l-4 3v18l4 3h233l3 -1h2q-116 -167 -219 -321q232 -326 293 -397q21 -17 53 -22l25 1h80l4 -3v-44l-4 -2h-231q-84 0 -136 96l-186 264q-9 -6 -184 -276q-13 -21 -13 -32v-3 q0 -18 39 -24h58l4 -3v-20l-4 -2h-233l-3 1h-2q175 274 278 428q-232 325 -293 396q-21 18 -53 23l-25 -2h-80z" />
<glyph unicode="y" horiz-adv-x="897" d="M-71 863v37h165q170 0 232 -146l213 -503l239 577h97l-375 -924q-56 -145 -129 -199q-55 -43 -147 -43q-12 0 -24 1l-99 6v94q42 -6 78 -6q178 0 224 147l39 100l-300 713q-55 132 -213 146z" />
<glyph unicode="z" horiz-adv-x="968" d="M41 0v36l531 781h-234q-255 0 -255 -171h-42v95q0 152 174 152h623l-505 -742h511h2q45 0 63 95h41v-95q0 -121 -110 -146l-8 -2l-29 -3q-13 -1 -27 -1l-5 1h-730z" />
<glyph unicode="{" horiz-adv-x="1014" />
<glyph unicode="|" horiz-adv-x="1014" />
<glyph unicode="}" horiz-adv-x="1014" />
<glyph unicode="~" horiz-adv-x="1014" />
<glyph unicode="&#xa1;" horiz-adv-x="672" />
<glyph unicode="&#xa2;" horiz-adv-x="1139" />
<glyph unicode="&#xa3;" d="M51 432v2l75 288h5l251 -432h4l432 247h5q-69 -286 -73 -290l-439 -249h-4zM122 1129q443 199 454 199h2l49 -113v-3l-316 -139l60 -144l282 120h2q45 -96 45 -107l-277 -127l120 -271q-130 -65 -137 -65zM537 679q315 146 322 146l-234 540l138 64l292 -662l-456 -212z " />
<glyph unicode="&#xa4;" horiz-adv-x="1014" />
<glyph unicode="&#xa5;" d="M51 432v2l75 288h5l251 -432h4l432 247h5q-69 -286 -73 -290l-439 -249h-4zM122 1129q443 199 454 199h2l49 -113v-3l-316 -139l60 -144l282 120h2q45 -96 45 -107l-277 -127l120 -271q-130 -65 -137 -65zM537 679q315 146 322 146l-234 540l138 64l292 -662l-456 -212z " />
<glyph unicode="&#xa6;" horiz-adv-x="1014" />
<glyph unicode="&#xa7;" horiz-adv-x="1014" />
<glyph unicode="&#xa8;" horiz-adv-x="1024" />
<glyph unicode="&#xaa;" horiz-adv-x="648" />
<glyph unicode="&#xab;" horiz-adv-x="944" />
<glyph unicode="&#xac;" horiz-adv-x="1014" />
<glyph unicode="&#xad;" horiz-adv-x="686" d="M81 471v143h522v-143h-522z" />
<glyph unicode="&#xaf;" horiz-adv-x="670" />
<glyph unicode="&#xb0;" horiz-adv-x="674" />
<glyph unicode="&#xb1;" horiz-adv-x="1014" />
<glyph unicode="&#xb2;" horiz-adv-x="1014" />
<glyph unicode="&#xb3;" horiz-adv-x="1014" />
<glyph unicode="&#xb4;" horiz-adv-x="1024" />
<glyph unicode="&#xb5;" horiz-adv-x="1180" />
<glyph unicode="&#xb6;" horiz-adv-x="1024" />
<glyph unicode="&#xb7;" horiz-adv-x="508" />
<glyph unicode="&#xb8;" horiz-adv-x="1024" />
<glyph unicode="&#xb9;" horiz-adv-x="1014" />
<glyph unicode="&#xba;" horiz-adv-x="718" />
<glyph unicode="&#xbb;" horiz-adv-x="944" />
<glyph unicode="&#xbc;" horiz-adv-x="1708" />
<glyph unicode="&#xbd;" horiz-adv-x="1964" />
<glyph unicode="&#xbe;" horiz-adv-x="1708" />
<glyph unicode="&#xbf;" horiz-adv-x="748" />
<glyph unicode="&#xc0;" horiz-adv-x="1540" />
<glyph unicode="&#xc1;" horiz-adv-x="1540" />
<glyph unicode="&#xc2;" horiz-adv-x="1540" />
<glyph unicode="&#xc3;" horiz-adv-x="1540" />
<glyph unicode="&#xc4;" horiz-adv-x="1540" />
<glyph unicode="&#xc5;" horiz-adv-x="1540" />
<glyph unicode="&#xc6;" horiz-adv-x="2118" />
<glyph unicode="&#xc7;" horiz-adv-x="1399" />
<glyph unicode="&#xc8;" horiz-adv-x="1151" />
<glyph unicode="&#xc9;" horiz-adv-x="1151" />
<glyph unicode="&#xca;" horiz-adv-x="1151" />
<glyph unicode="&#xcb;" horiz-adv-x="1151" />
<glyph unicode="&#xcc;" horiz-adv-x="657" />
<glyph unicode="&#xcd;" horiz-adv-x="657" />
<glyph unicode="&#xce;" horiz-adv-x="657" />
<glyph unicode="&#xcf;" horiz-adv-x="657" />
<glyph unicode="&#xd0;" horiz-adv-x="1518" />
<glyph unicode="&#xd1;" horiz-adv-x="1554" />
<glyph unicode="&#xd2;" horiz-adv-x="1614" />
<glyph unicode="&#xd3;" horiz-adv-x="1614" />
<glyph unicode="&#xd4;" horiz-adv-x="1614" />
<glyph unicode="&#xd5;" horiz-adv-x="1614" />
<glyph unicode="&#xd6;" horiz-adv-x="1614" />
<glyph unicode="&#xd7;" horiz-adv-x="1014" />
<glyph unicode="&#xd8;" horiz-adv-x="1614" />
<glyph unicode="&#xd9;" horiz-adv-x="1501" />
<glyph unicode="&#xda;" horiz-adv-x="1501" />
<glyph unicode="&#xdb;" horiz-adv-x="1501" />
<glyph unicode="&#xdc;" horiz-adv-x="1501" />
<glyph unicode="&#xdd;" horiz-adv-x="1233" />
<glyph unicode="&#xde;" horiz-adv-x="1120" />
<glyph unicode="&#xdf;" horiz-adv-x="1251" />
<glyph unicode="&#xe0;" horiz-adv-x="922" />
<glyph unicode="&#xe1;" horiz-adv-x="922" />
<glyph unicode="&#xe2;" horiz-adv-x="922" />
<glyph unicode="&#xe3;" horiz-adv-x="922" />
<glyph unicode="&#xe4;" horiz-adv-x="922" />
<glyph unicode="&#xe5;" horiz-adv-x="922" />
<glyph unicode="&#xe6;" horiz-adv-x="1454" d="M9 197v4q0 63 42 132q35 53 100 97q41 28 89 51q57 28 139 53q64 18 94 18q34 5 78 13v71q0 47 -22 108q-8 17 -22 38q-18 25 -50 35q-6 3 -52 4l-195 6l-1 1v83l1 1h234q50 0 117 -27q98 -44 139 -137q11 -27 17 -53q9 -43 9 -67l1 -26q163 34 192 42q61 22 81 63 q10 21 10 38v3h1q12 -29 12 -57q0 -73 -79 -127q-24 -16 -53 -26q-23 -7 -63 -13q-54 -10 -101 -18v-316q0 -44 15 -87q8 -19 24 -36q22 -18 45 -18h46l1 -1v-52l-1 -1h-158q-92 0 -128 99q-7 15 -14 48l-2 12q-152 -153 -311 -153q-58 0 -117 22q-20 10 -41 25 q-77 62 -77 148zM209 248q0 -50 32 -97q32 -39 86 -39q43 0 90 26l134 100v242q-84 -16 -149 -38q-82 -27 -113 -52q-33 -26 -53 -55q-27 -42 -27 -86v-1zM554 532v33q0 135 82 216q29 35 61 56q129 91 254 91h15q223 0 354 -169q53 -84 53 -213q0 -208 -154 -316 q-90 -58 -226 -58q-82 0 -163 21v-1q43 -84 164 -128q40 -13 64 -13h182l3 -3v-49l-3 -3h-274q-106 0 -244 79q-55 40 -86 89q-82 146 -82 368zM760 550q0 -168 116 -261q48 -29 89 -29q109 0 177 140q30 73 30 153q0 153 -102 249q-52 40 -104 40q-106 0 -175 -136 q-31 -74 -31 -156z" />
<glyph unicode="&#xe7;" horiz-adv-x="905" />
<glyph unicode="&#xe8;" horiz-adv-x="909" />
<glyph unicode="&#xe9;" horiz-adv-x="909" />
<glyph unicode="&#xea;" horiz-adv-x="909" />
<glyph unicode="&#xeb;" horiz-adv-x="909" />
<glyph unicode="&#xec;" horiz-adv-x="514" />
<glyph unicode="&#xed;" horiz-adv-x="514" />
<glyph unicode="&#xee;" horiz-adv-x="514" />
<glyph unicode="&#xef;" horiz-adv-x="514" />
<glyph unicode="&#xf0;" horiz-adv-x="1139" />
<glyph unicode="&#xf1;" horiz-adv-x="1108" />
<glyph unicode="&#xf2;" horiz-adv-x="1010" />
<glyph unicode="&#xf3;" horiz-adv-x="1010" />
<glyph unicode="&#xf4;" horiz-adv-x="1010" />
<glyph unicode="&#xf5;" horiz-adv-x="1010" />
<glyph unicode="&#xf6;" horiz-adv-x="1010" />
<glyph unicode="&#xf7;" horiz-adv-x="1014" />
<glyph unicode="&#xf8;" horiz-adv-x="1010" />
<glyph unicode="&#xf9;" horiz-adv-x="1059" />
<glyph unicode="&#xfa;" horiz-adv-x="1059" />
<glyph unicode="&#xfb;" horiz-adv-x="1059" />
<glyph unicode="&#xfc;" horiz-adv-x="1059" />
<glyph unicode="&#xfd;" horiz-adv-x="868" />
<glyph unicode="&#xfe;" horiz-adv-x="1010" />
<glyph unicode="&#xff;" horiz-adv-x="868" />
<glyph unicode="&#x152;" horiz-adv-x="2765" d="M99 643l41 295q80 71 80 82q42 60 128 149q134 122 275 181q187 76 380 76h14q209 0 340 -120q43 -44 56 -83q25 -64 25 -110v-10q0 -97 -104 -131q-24 -6 -43 -6h-4q-72 0 -108 57q-8 17 -8 30v8q0 31 37 47l9 1q19 0 25 -27v-4q0 -19 -23 -23q-22 4 -22 15h-1l-3 -11 q0 -16 16 -33q19 -16 38 -16q43 0 77 49q13 21 13 41q0 78 -106 141q-101 55 -253 55q-105 0 -184 -29v-1h58q156 0 222 -66q40 -37 50 -66q15 -35 15 -62q0 -68 -64 -109q-15 -7 -26 -8v1q43 32 43 52q4 13 4 44q0 62 -37 93q-41 41 -126 60q-38 7 -76 7h-19 q-99 0 -209 -33v-1h2q46 4 88 5q121 0 195 -61q48 -47 48 -117q0 -24 -8 -46h-2v22q0 102 -71 131q-28 15 -76 25q-67 9 -96 9q-147 0 -286 -92q-92 -64 -126 -170q-28 -83 -28 -163v-9q0 -173 122 -292q74 -60 141 -72v-2h-2q-72 0 -159 65q-60 54 -76 82q-26 39 -36 61h-1 v-2q7 -89 65 -224q33 -70 87 -149q46 -67 128 -156l21 -20h-1q-61 37 -149 117q-66 61 -105 110q-50 66 -74 114zM1641 535v9q0 127 142 214q90 48 237 48q111 0 252 -29q30 -3 63 -3q169 0 224 68q19 35 19 62q0 51 -58 70l-19 2h-4q-13 0 -24 -3l-1 1q19 32 60 32h2 q24 0 51 -11q-14 27 -56 42q-20 5 -33 5q-49 0 -82 -40v1q46 88 143 88q113 0 141 -109q7 -32 7 -70q0 -109 -51 -168q-33 -38 -63 -57q-88 -55 -199 -55q-66 0 -159 26q-105 24 -175 24h-11q-140 0 -180 -100q-9 -27 -9 -46q0 -46 30 -86q31 -31 65 -31q35 0 48 42l1 8 q-1 11 -3 11q-9 -11 -19 -11h-4q-21 3 -21 18v5q4 22 22 22h4q22 0 32 -30q2 -9 2 -18v-4q0 -64 -81 -77l-16 -1q-87 0 -139 103q-16 42 -16 74q0 61 43 119q34 37 64 52q27 15 81 32l40 10v1h-29q-142 0 -238 -83q-49 -52 -60 -88q-21 -52 -21 -69h-2zM1829 545 q0 -57 38 -98v1q-24 48 -24 81v2q0 93 101 149q55 26 126 26h8q87 0 230 -39q47 -9 90 -9q54 0 108 15v1q-27 -6 -60 -6q-93 0 -245 46q-57 15 -158 15h-1q-146 0 -202 -123q-11 -33 -11 -61z" />
<glyph unicode="&#x153;" horiz-adv-x="1919" d="M36 444v12q0 198 163 343q128 101 279 101l49 -2q113 24 176 52q45 22 68 46q20 22 24 46h1l2 -1l1 -38q0 -112 -86 -153l-16 -6q47 -25 116 -93q113 -137 113 -302q0 -177 -130 -316q-137 -133 -316 -133q-207 0 -353 176q-91 127 -91 268zM252 448q0 -180 113 -293 q58 -49 123 -49h1q117 0 196 156q36 92 36 173v27q0 141 -88 255q-68 74 -144 74h-1q-119 0 -194 -148q-42 -90 -42 -195zM1016 535v33q0 135 81 216q30 35 61 56q130 91 255 91h15q222 0 354 -169q53 -84 53 -213q0 -208 -154 -316q-91 -58 -227 -58q-81 0 -163 21v-1 q44 -84 165 -128q39 -13 64 -13h182l3 -3v-49l-3 -3h-274q-107 0 -245 79q-55 40 -86 89q-81 146 -81 368zM1222 553q0 -168 115 -261q49 -29 89 -29q110 0 178 140q30 73 30 153q0 153 -103 249q-51 40 -103 40q-106 0 -175 -136q-31 -74 -31 -156z" />
<glyph unicode="&#x178;" horiz-adv-x="1233" />
<glyph unicode="&#x2c6;" horiz-adv-x="1707" />
<glyph unicode="&#x2dc;" horiz-adv-x="1024" />
<glyph unicode="&#x2000;" horiz-adv-x="739" />
<glyph unicode="&#x2001;" horiz-adv-x="1478" />
<glyph unicode="&#x2002;" horiz-adv-x="739" />
<glyph unicode="&#x2003;" horiz-adv-x="1478" />
<glyph unicode="&#x2004;" horiz-adv-x="492" />
<glyph unicode="&#x2005;" horiz-adv-x="369" />
<glyph unicode="&#x2006;" horiz-adv-x="246" />
<glyph unicode="&#x2007;" horiz-adv-x="246" />
<glyph unicode="&#x2008;" horiz-adv-x="184" />
<glyph unicode="&#x2009;" horiz-adv-x="295" />
<glyph unicode="&#x200a;" horiz-adv-x="82" />
<glyph unicode="&#x2010;" horiz-adv-x="686" d="M81 471v143h522v-143h-522z" />
<glyph unicode="&#x2011;" horiz-adv-x="686" d="M81 471v143h522v-143h-522z" />
<glyph unicode="&#x2012;" horiz-adv-x="686" d="M81 471v143h522v-143h-522z" />
<glyph unicode="&#x2013;" horiz-adv-x="1108" />
<glyph unicode="&#x2014;" horiz-adv-x="2048" />
<glyph unicode="&#x2018;" horiz-adv-x="557" />
<glyph unicode="&#x2019;" horiz-adv-x="557" />
<glyph unicode="&#x201a;" horiz-adv-x="557" />
<glyph unicode="&#x201c;" horiz-adv-x="910" />
<glyph unicode="&#x201d;" horiz-adv-x="910" />
<glyph unicode="&#x201e;" horiz-adv-x="910" />
<glyph unicode="&#x2022;" horiz-adv-x="1024" />
<glyph unicode="&#x2026;" horiz-adv-x="2048" />
<glyph unicode="&#x202f;" horiz-adv-x="295" />
<glyph unicode="&#x2039;" horiz-adv-x="631" />
<glyph unicode="&#x203a;" horiz-adv-x="631" />
<glyph unicode="&#x205f;" horiz-adv-x="369" />
<glyph unicode="&#x20ac;" horiz-adv-x="1014" />
<glyph unicode="&#x2122;" horiz-adv-x="803" d="M20 1100v43q0 58 54 58h261v-29h-125v-309h-65v309h-36q-75 0 -75 -72h-14zM368 863v338h68l107 -238l107 238h64v-374q0 -43 15 -74q17 -34 43 -34v-14q-122 0 -122 122v299l-118 -263h-14l-122 270v-270h-28z" />
<glyph unicode="&#x25fc;" horiz-adv-x="900" d="M0 0v900h900v-900h-900z" />
</font>
</defs>
</svg>
